<?xml version="1.0" encoding="UTF-8" standalone="no"?>
<!-- Created with Inkscape (http://www.inkscape.org/) -->

<svg
   xmlns:dc="http://purl.org/dc/elements/1.1/"
   xmlns:cc="http://creativecommons.org/ns#"
   xmlns:rdf="http://www.w3.org/1999/02/22-rdf-syntax-ns#"
   xmlns:svg="http://www.w3.org/2000/svg"
   xmlns="http://www.w3.org/2000/svg"
   xmlns:sodipodi="http://sodipodi.sourceforge.net/DTD/sodipodi-0.dtd"
   xmlns:inkscape="http://www.inkscape.org/namespaces/inkscape"
   id="svg3438"
   version="1.1"
   inkscape:version="0.91 r13725"
   width="822.1875"
   height="850.3125"
   viewBox="0 0 822.1875 850.3125"
   sodipodi:docname="Roulette2.svg">
  <metadata
     id="metadata3444">
    <rdf:RDF>
      <cc:Work
         rdf:about="">
        <dc:format>image/svg+xml</dc:format>
        <dc:type
           rdf:resource="http://purl.org/dc/dcmitype/StillImage" />
        <dc:title></dc:title>
      </cc:Work>
    </rdf:RDF>
  </metadata>
  <defs
     id="defs3442" />
  <sodipodi:namedview
     pagecolor="#ffffff"
     bordercolor="#666666"
     borderopacity="1"
     objecttolerance="10"
     gridtolerance="10"
     guidetolerance="10"
     inkscape:pageopacity="0"
     inkscape:pageshadow="2"
     inkscape:window-width="1600"
     inkscape:window-height="837"
     id="namedview3440"
     showgrid="false"
     inkscape:zoom="0.78857219"
     inkscape:cx="410.63752"
     inkscape:cy="424.83896"
     inkscape:window-x="-8"
     inkscape:window-y="-8"
     inkscape:window-maximized="1"
     inkscape:current-layer="svg3438" />
  <path
     style="fill:#000000"
     d="m 434.5771,849.20004 c -0.2253,-0.67721 -1.09129,-4.81723 -1.92442,-9.20004 -5.07369,-26.69097 -20.99934,-67.10024 -38.01962,-96.46985 l -4.02106,-6.93858 -2.18848,2.71983 c -20.8012,25.85173 -47.3589,74.78556 -52.86559,97.40735 -1.24617,5.11935 -2.6558,7.52743 -3.72757,6.36786 -0.37764,-0.40858 -0.32054,-5.17255 0.12686,-10.58661 2.12796,-25.75025 -5.46032,-79.05654 -15.58576,-109.4872 -0.62156,-1.86802 -14.92734,9.91747 -31.66648,26.08768 -20.52089,19.82343 -37.68193,40.64114 -46.58313,56.50905 -4.24401,7.56566 -5.48558,5.73574 -2.51119,-3.70116 3.02507,-9.59771 6.78526,-26.5181 8.51459,-38.31462 4.27268,-29.1459 5.6656,-74.53125 2.28744,-74.53125 -0.51595,0 -7.34813,3.08796 -15.18262,6.86213 -28.77416,13.86161 -57.30644,32.63785 -74.7343,49.18042 -5.04039,4.78434 -9.39941,8.31843 -9.68673,7.85354 -0.28732,-0.4649 1.61543,-4.37936 4.22836,-8.69881 9.42391,-15.57875 18.22867,-35.68791 25.80996,-58.94728 4.16142,-12.76723 12.85763,-45.92001 12.21398,-46.56366 -0.54517,-0.54518 -28.061,5.03847 -39.99884,8.11676 -23.65328,6.09924 -48.86211,15.70562 -63.75,24.29335 -9.187126,5.29937 -11.910209,4.90277 -5.440216,-0.79235 12.18481,-10.7255 32.597026,-37.46886 46.910386,-61.46035 7.38477,-12.37806 18.11957,-33.10236 17.45416,-33.69652 -0.66745,-0.59599 -32.75412,-2.39712 -42.63824,-2.39341 -22.839153,0.008 -51.464455,3.38103 -67.074809,7.90244 -6.898553,1.9981 -8.273781,2.07926 -8.273781,0.48829 0,-0.36738 3.680513,-2.72284 8.178919,-5.23438 7.86748,-4.39254 25.462438,-16.67756 32.119909,-22.42653 17.007741,-14.68678 32.792225,-30.46851 47.987392,-47.97904 l 2.50498,-2.88667 -9.06748,-3.38352 C 78.173694,488.17703 40.369439,480.29764 13.125,479.52796 6.1640625,479.33131 0.27890625,479.14613 0.046875,479.11645 c -0.23203125,-0.0297 0.01071764,-0.48654 0.53944197,-1.01526 0.52872433,-0.52873 4.82018453,-1.99403 9.53657803,-3.25621 17.690862,-4.73439 43.210671,-15.81806 62.647526,-27.20883 9.270351,-5.4328 35.042079,-21.96566 35.042079,-22.4799 0,-0.51424 -25.771728,-17.0471 -35.042079,-22.4799 -19.436855,-11.39078 -44.956664,-22.47444 -62.647526,-27.20883 -4.7163935,-1.26218 -9.0078537,-2.72748 -9.53657803,-3.25621 -0.52872433,-0.52872 -0.77147322,-0.98559 -0.53944197,-1.01526 0.23203125,-0.0297 6.1171875,-0.21486 13.078125,-0.41151 27.258909,-0.77008 65.048468,-8.64882 94.88501,-19.78255 7.17028,-2.67566 8.86271,-3.64163 7.96875,-4.54829 -0.62425,-0.63313 -3.24438,-3.59634 -5.82251,-6.58489 C 98.416744,326.26041 82.896153,310.92216 66.541388,296.76636 59.93661,291.04961 42.312325,278.74126 34.428919,274.33983 29.930513,271.82829 26.25,269.47282 26.25,269.10545 c 0,-1.59097 1.375228,-1.50981 8.273781,0.48829 15.610354,4.52141 44.235656,7.8939 67.074809,7.90244 10.3913,0.004 41.99107,-1.81047 42.69632,-2.45148 0.36906,-0.33546 -3.61343,-8.34498 -10.87682,-21.87533 -13.15924,-24.5132 -31.9405,-50.92064 -48.101329,-67.63299 -5.148328,-5.32403 -9.048389,-9.97241 -8.666803,-10.32972 0.381586,-0.35733 4.279729,1.41877 8.662542,3.94689 14.88789,8.58772 40.09672,18.19411 63.75,24.29335 11.93784,3.07829 39.45367,8.66194 39.99884,8.11676 0.19109,-0.19109 -1.55071,-7.89842 -3.87066,-17.12742 -9.52153,-37.8777 -21.71,-68.82317 -35.88068,-91.09795 -1.72953,-2.71863 -2.88223,-5.367468 -2.56158,-5.886299 0.32066,-0.518841 4.70696,2.971119 9.74735,7.755459 17.45096,16.5645 45.6354,35.11155 74.571,49.07221 7.9459,3.83369 14.8604,6.97034 15.36555,6.97034 3.35949,0 1.95168,-45.48037 -2.30707,-74.53125 -1.72933,-11.79652 -5.48952,-28.716905 -8.51459,-38.314617 -2.97439,-9.4369 -1.73282,-11.266819 2.51119,-3.701158 7.04788,12.564053 22.46533,32.296716 36.39832,46.585888 16.34443,16.762267 40.75784,38.036677 41.76985,36.399197 0.79419,-1.28503 5.9647,-21.85473 8.42832,-33.530182 5.62799,-26.671837 8.68205,-58.881703 7.23888,-76.345378 -0.4474,-5.414062 -0.5045,-10.178036 -0.12686,-10.5866078 1.07177,-1.1595775 2.4814,1.2485057 3.72757,6.3678578 5.47504,22.491799 32.38499,72.074455 52.88698,97.44638 l 2.22934,2.75887 3.92974,-6.97762 c 7.19895,-12.782424 19.83848,-39.175738 23.99372,-50.10263 7.61483,-20.024498 10.9445,-30.950949 13.86067,-45.484358 1.14648,-5.7137378 2.50376,-10.47344528 3.01618,-10.57712799 0.53239,-0.10772094 1.22648,3.82941019 1.61951,9.18648599 1.43974,19.623825 5.57961,40.316253 12.99479,64.952201 4.37865,14.547497 14.20784,40.941469 15.9375,42.796409 0.81019,0.86887 2.12824,-0.36847 13.18687,-12.3795 5.17076,-5.616094 16.25847,-19.046447 23.69609,-28.702663 8.13753,-10.564919 20.70212,-30.833109 26.97612,-43.515739 6.70777,-13.55945 9.30479,-16.105102 7.27259,-7.128763 -5.96466,26.346456 -5.91446,68.321986 0.13184,110.212285 l 1.03514,7.17174 8.99866,-5.6692 c 11.88434,-7.48719 26.68556,-18.02075 37.67633,-26.81304 11.80788,-9.44596 31.34001,-28.558382 38.58335,-37.754275 3.20071,-4.063512 6.09446,-7.388205 6.43056,-7.388205 1.75473,0 1.43775,1.682425 -1.38526,7.35243 -11.16928,22.433492 -21.16205,62.18734 -25.20302,100.26419 l -1.22287,11.52287 2.88299,-0.62471 c 5.54133,-1.20075 30.1721,-9.99319 42.258,-15.08484 21.19729,-8.93017 42.84982,-21.05117 56.89268,-31.84829 5.66749,-4.35757 8.465,-4.0638 4.26315,0.44766 -8.75733,9.40262 -21.51214,29.54513 -32.08453,50.66815 -10.34537,20.66946 -22.99306,51.97453 -21.57242,53.39518 0.84949,0.84948 32.92023,-1.6429 46.33974,-3.60131 23.87489,-3.48424 45.98913,-9.07159 61.05804,-15.42685 4.30816,-1.81696 8.18863,-2.94794 8.62328,-2.51329 0.43465,0.43465 -2.92172,3.54573 -7.45858,6.91352 -17.55661,13.03253 -41.17849,38.02687 -57.91124,61.27595 -9.59878,13.33688 -14.63545,21.30396 -13.90437,21.99413 1.0893,1.02833 22.02735,5.16893 37.31675,7.37956 26.6125,3.84779 61.16427,4.32914 75.73536,1.05508 4.08316,-0.91747 6.35311,-0.10033 4.22625,1.52137 -0.66639,0.50811 -3.32099,1.68598 -5.89911,2.6175 -12.35082,4.46256 -31.94749,15.38449 -50.85034,28.34072 -16.75279,11.48255 -42.93386,33.40374 -41.89758,35.08047 0.68654,1.11086 25.13526,12.97076 35.56042,17.25011 22.6833,9.31112 46.30913,16.26062 64.60227,19.00262 6.01297,0.9013 10.93267,2.04837 10.93267,2.54903 0,0.50066 -4.9197,1.64773 -10.93267,2.54903 -19.82029,2.97091 -45.67251,10.88096 -70.69602,21.63096 -9.99135,4.29224 -27.95131,13.24007 -29.31751,14.60627 -0.41155,0.41155 2.11418,3.30964 5.61274,6.44019 26.66527,23.86039 58.28042,44.95453 82.4599,55.01862 4.55186,1.89459 8.86033,3.75483 9.57436,4.13386 1.64528,0.87338 1.03709,2.56011 -0.82949,2.30043 -0.77344,-0.10759 -4.78125,-0.69251 -8.90625,-1.29981 -9.41905,-1.38672 -39.81078,-1.37763 -53.4375,0.016 -17.70411,1.81059 -51.48919,7.79424 -53.26951,9.4345 -0.42322,0.38994 1.93059,4.69142 5.23072,9.55886 20.55867,30.32252 45.77575,58.21939 66.60015,73.67765 4.53686,3.36779 7.89323,6.47887 7.45858,6.91352 -0.43465,0.43464 -4.31512,-0.69634 -8.62328,-2.51329 -15.58872,-6.57449 -40.80846,-12.79011 -64.27166,-15.84031 -13.35432,-1.73605 -31.77202,-3.32203 -38.73505,-3.33554 -5.78222,-0.0113 -5.74111,-1.22615 -0.44374,13.11533 8.08962,21.90086 20.63346,48.28963 30.62443,64.42532 5.70932,9.22072 15.24801,22.55043 19.08519,26.67037 4.20185,4.51146 1.40434,4.80522 -4.26315,0.44766 -14.25171,-10.95775 -35.26465,-22.71825 -56.89268,-31.84168 -12.06691,-5.09024 -36.69742,-13.88658 -42.25656,-15.09119 l -2.88154,-0.62439 1.14514,10.61082 c 4.26329,39.50325 14.06423,78.87446 25.0634,100.68191 3.04746,6.04202 3.41529,7.84613 1.59972,7.84613 -0.3361,0 -3.22985,-3.32469 -6.43056,-7.3882 C 616.34001,768.10341 596.80788,748.99098 585,739.54502 574.00923,730.75273 559.20801,720.21917 547.32367,712.73198 l -8.99866,-5.6692 -1.03514,7.17174 c -6.0463,41.8903 -6.0965,83.86583 -0.13184,110.21228 2.0322,8.97635 -0.56482,6.4307 -7.27259,-7.12876 -6.27522,-12.6851 -18.8439,-32.95927 -26.97612,-43.51444 -7.30968,-9.48754 -15.73087,-19.71138 -21.7454,-26.40024 -12.18457,-13.55063 -14.28677,-15.59359 -15.12352,-14.69725 -0.45576,0.4882 -3.15954,6.79389 -6.00842,14.01264 -12.1878,30.88267 -21.15005,67.34258 -22.79044,92.71526 -0.59128,9.14568 -1.61836,12.91026 -2.66444,9.76603 z m 7.45506,-55.27072 c 4.95574,-19.69951 12.6193,-42.05233 21.73364,-63.39188 0.63629,-1.48977 -6.80611,-8.67482 -32.57483,-31.44846 l -5.09722,-4.50477 -4.50825,4.97352 c -14.35515,15.83665 -28.773,33.05465 -28.773,34.36113 0,0.50941 1.95476,4.23061 4.34392,8.2693 13.61169,23.00966 30.21289,62.52805 35.63439,84.82604 l 1.72492,7.09439 2.06631,-13.36416 c 1.13648,-7.35029 3.58903,-19.41708 5.45012,-26.81511 z M 335.625,828.28125 c 0,-0.25781 -0.21094,-0.46875 -0.46875,-0.46875 -0.25781,0 -0.46875,0.21094 -0.46875,0.46875 0,0.25781 0.21094,0.46875 0.46875,0.46875 0.25781,0 0.46875,-0.21094 0.46875,-0.46875 z m 13.14338,-30.9375 c 10.5293,-20.5469 22.3432,-39.53339 34.82705,-55.97167 l 5.48441,-7.22167 -1.74401,-3.09083 c -2.04862,-3.63068 -8.62564,-14.06702 -11.40087,-18.09083 -1.06689,-1.54688 -4.89137,-7.13672 -8.49884,-12.42188 -3.60747,-5.28515 -6.92622,-9.60937 -7.37499,-9.60937 -1.93606,0 -41.31113,27.62735 -41.31113,28.98578 0,0.3033 0.85391,3.50322 1.89758,7.11095 7.83365,27.07915 12.84484,57.38855 14.55834,88.05383 l 0.62481,11.18179 2.86565,-7.43179 c 1.57611,-4.08749 6.10851,-13.75994 10.072,-21.49431 z m 182.75031,10.298 c -2.65591,-20.36234 -1.9638,-55.3086 1.65219,-83.423 2.58876,-20.12769 2.95323,-18.65313 -5.82713,-23.57487 -13.96459,-7.8277 -36.23676,-18.3759 -37.05912,-17.55137 -1.60142,1.60562 -18.79365,35.43915 -21.52141,42.35315 -1.18365,3.00018 -1.10403,3.22999 2.42838,7.00849 2.00868,2.14863 3.89656,4.12777 4.19528,4.3981 3.71493,3.36179 20.90069,23.76411 30.33494,36.01255 5.402,7.01339 19.23517,28.3532 23.01613,35.50595 1.79806,3.40153 3.35146,6.10233 3.45201,6.0018 0.10054,-0.10055 -0.20153,-3.12941 -0.67127,-6.7308 z m -284.28372,-20.6105 c 14.96085,-20.19488 40.81053,-46.77181 60.96815,-62.68343 3.73829,-2.95085 6.79688,-5.66362 6.79687,-6.02837 -1e-5,-1.44373 -6.047,-19.27621 -11.41166,-33.65285 l -5.66337,-15.17716 -15.13436,5.24279 c -8.32389,2.88354 -18.93122,6.82499 -23.57185,8.75877 l -8.4375,3.51598 0.30294,12.51214 c 0.71307,29.45073 -3.15608,66.5372 -9.71677,93.13713 -0.85651,3.47264 -0.91065,3.52455 5.86755,-5.625 z m 372.9364,-21.99265 c -8.38178,-21.38773 -15.34596,-52.02643 -18.76104,-82.5386 -2.22032,-19.83755 -0.75692,-17.75563 -15.0139,-21.35963 -17.80462,-4.50081 -35.31269,-7.91682 -36.13819,-7.05095 -1.39658,1.46486 -11.18717,44.78985 -11.19429,49.53657 -7.9e-4,0.53336 1.36964,1.75798 3.04543,2.72139 22.49853,12.93437 52.04201,36.02048 71.93242,56.21004 4.37143,4.43717 8.03149,8.06758 8.13346,8.06758 0.10198,0 -0.79977,-2.51388 -2.00389,-5.5864 z m -442.5231,-40.79596 c 17.62858,-12.86501 44.83555,-28.31327 65.04526,-36.93307 l 5.03727,-2.14849 -0.63887,-9.53366 c -0.75991,-11.34005 -1.97978,-23.4803 -3.44458,-34.28086 l -1.06764,-7.87219 -11.2741,0.60621 c -13.61199,0.73191 -37.48294,3.35605 -38.30086,4.21042 -0.32396,0.33839 -2.52834,8.41994 -4.89864,17.959 -7.21214,29.02462 -15.82675,53.45222 -26.03642,73.82888 l -5.31667,10.61112 4.82661,-4.12157 c 2.65464,-2.26687 9.88553,-7.81347 16.06864,-12.32579 z m 221.23863,-2.84015 c 2.05186,-2.57605 4.16123,-5.14128 4.6875,-5.7005 0.52627,-0.55921 2.85529,-3.27449 5.1756,-6.03392 2.32031,-2.75944 5.48437,-6.34056 7.03125,-7.95805 1.54687,-1.61748 4.00449,-4.23197 5.46137,-5.80997 l 2.64888,-2.86908 -5.93013,-4.53311 c -3.26156,-2.4932 -6.40577,-4.96814 -6.98712,-5.49986 -0.58136,-0.53171 -2.00414,-1.59956 -3.16175,-2.373 -1.15761,-0.77344 -2.58603,-1.82813 -3.17426,-2.34375 -0.58824,-0.51563 -3.11726,-2.37033 -5.62006,-4.12157 -4.32803,-3.02839 -4.67122,-3.11432 -7.01874,-1.75753 -1.35751,0.78459 -5.84319,3.23047 -9.96819,5.43526 -6.70965,3.58629 -10.31964,5.68358 -17.05844,9.91043 -2.04059,1.27994 -1.99808,1.37864 4.9017,11.38103 10.02291,14.52988 10.32944,14.98609 15.4605,23.0095 2.56575,4.01204 4.66694,7.80892 4.66933,8.4375 0.005,1.26316 3.18922,-2.02552 8.88256,-9.17338 z m 75.16525,-13.12124 c 3.74691,-7.73438 8.46821,-17.05848 10.49177,-20.72022 l 3.67922,-6.65772 -14.72401,-6.17268 c -8.09821,-3.39497 -15.85433,-6.45637 -17.23583,-6.8031 -2.27003,-0.56974 -3.73181,0.57043 -15.18507,11.84414 -6.97028,6.86102 -12.56045,12.74375 -12.42261,13.07273 0.13785,0.32899 5.94594,5.69307 12.90688,11.92018 6.96094,6.22711 15.1875,13.63959 18.28125,16.47217 5.37294,4.91937 5.66467,5.05957 6.51042,3.12858 0.48699,-1.11187 3.95108,-8.34971 7.69798,-16.08408 z m -133.2709,-8.25908 c 6.1875,-4.29352 12.62109,-8.60684 14.29687,-9.58516 1.67579,-0.97832 3.04688,-2.07301 3.04688,-2.43265 0,-0.58082 -11.29684,-15.03367 -19.1253,-24.46837 -1.59828,-1.92621 -3.55597,-3.5098 -4.35042,-3.51909 -1.49823,-0.0175 -32.85468,8.1885 -33.40949,8.74331 -0.17275,0.17275 2.05399,6.60439 4.94832,14.29256 2.89431,7.68816 6.53292,17.98629 8.08579,22.88473 1.55286,4.89844 3.0183,9.23738 3.25653,9.64208 0.23823,0.4047 3.03587,-1.17372 6.21698,-3.5076 3.18112,-2.33389 10.84634,-7.75631 17.03384,-12.04981 z m 355.04925,0.5247 C 681.02341,679.6182 662.4674,642.07686 653.35944,614.62214 l -2.14692,-6.47161 -22.55938,0.62572 c -12.40766,0.34413 -23.71955,0.87977 -25.13752,1.19027 l -2.57812,0.56456 0,18.96801 c 0,10.43241 0.27656,22.09026 0.61458,25.90633 l 0.61457,6.93833 18.07765,5.97491 c 29.65357,9.80091 58.68905,23.43885 75.3807,35.40628 2.32031,1.6636 4.32313,3.05293 4.45071,3.08739 0.12757,0.0345 -1.78277,-2.78499 -4.24521,-6.26546 z m -159.17548,-0.46875 c 0.24241,-1.16015 1.54677,-7.59375 2.89858,-14.29687 1.35181,-6.70313 3.66483,-16.82091 5.14003,-22.48396 1.47521,-5.66305 2.59849,-10.38017 2.49618,-10.48248 -0.18449,-0.18449 -24.5947,-3.48852 -32.29269,-4.37096 -3.82331,-0.43827 -4.0975,-0.3006 -5.9153,2.97016 -1.04839,1.88636 -4.1884,7.01568 -6.97779,11.39849 -5.466,8.5884 -10.1253,16.93204 -9.64518,17.27208 0.16357,0.11585 1.9849,0.97414 4.0474,1.9073 10.41368,4.7116 32.31052,16.06077 36.53673,18.93706 2.55347,1.73787 3.20222,1.58917 3.71204,-0.85082 z M 434.30063,682.4098 c 4.76746,-4.69023 10.46109,-10.18329 12.65249,-12.2068 2.19141,-2.02351 3.98438,-3.85807 3.98438,-4.07678 0,-0.21872 -5.93708,-2.33805 -13.19352,-4.70963 -8.51127,-2.78168 -13.91779,-4.08669 -15.23438,-3.67722 -2.74857,0.85482 -18.8738,8.54005 -22.33382,10.64422 l -2.76961,1.68431 5.05615,3.35608 c 2.78088,1.84584 9.02465,6.52764 13.87504,10.40399 4.85039,3.87635 8.92605,7.06177 9.05702,7.07871 0.13095,0.017 4.13877,-3.80664 8.90625,-8.49688 z m -63.37222,-1.61618 c 5.07532,-3.00101 11.65362,-6.67509 14.61846,-8.1646 2.96485,-1.48952 5.39063,-3.03108 5.39063,-3.4257 0,-0.67545 -12.11641,-9.05908 -19.98184,-13.82589 l -3.57559,-2.16697 -13.29941,2.5863 c -7.31467,1.42246 -13.63097,2.88088 -14.03621,3.24093 -0.40524,0.36007 2.54788,4.64311 6.5625,9.51789 4.01462,4.87478 8.77586,10.83721 10.58055,13.24984 1.80469,2.41263 3.55841,4.39965 3.89716,4.41559 0.33875,0.0159 4.76843,-2.42638 9.84375,-5.42739 z m -111.6812,-0.49789 c 4.10935,-1.72797 14.0106,-5.38709 22.00279,-8.13137 7.99219,-2.74429 14.71115,-5.13148 14.93103,-5.30489 0.47851,-0.37736 -4.13702,-11.20345 -10.41858,-24.4376 l -4.56106,-9.60937 -17.90802,0 -17.90801,0 0.59585,3.72623 c 0.94581,5.91476 3.2092,27.76183 3.91181,37.75814 0.35335,5.02735 0.9215,9.14063 1.26255,9.14063 0.34106,0 3.9823,-1.4138 8.09164,-3.14177 z m 233.24142,-6.46761 c 2.94292,-5.64322 11.25076,-19.43497 12.60081,-20.91842 0.49881,-0.5481 1.38292,-1.88593 1.96467,-2.97296 1.17706,-2.19936 0.89471,-2.2516 -19.30276,-3.57167 l -8.65488,-0.56567 -10.77944,9.03439 c -11.08466,9.29023 -12.5948,10.79121 -10.85707,10.79121 1.05375,0 21.20611,8.19263 27.69629,11.25952 2.0625,0.97461 3.97852,1.79305 4.25783,1.81875 0.2793,0.0257 1.66286,-2.16811 3.07455,-4.87515 z m -85.30126,-12.30295 12.03112,-5.93589 -10.72395,-2.9509 c -5.89818,-1.62298 -12.36687,-2.94331 -14.37487,-2.93406 -3.68279,0.017 -20.93359,2.4221 -21.51053,2.99903 -0.41133,0.41133 20.39963,14.52636 21.60961,14.65672 0.51562,0.0556 6.35151,-2.57015 12.96862,-5.8349 z m -300.42808,-3.86283 c 19.92011,-8.15871 41.51525,-14.36511 67.23554,-19.32335 l 16.0261,-3.08944 1.51639,-8.0154 c 1.37027,-7.24302 4.33404,-27.36559 5.69458,-38.66344 0.61408,-5.0993 1.6136,-4.50944 -12.29282,-7.25464 -15.16704,-2.99406 -36.09655,-5.84723 -36.90055,-5.03039 -0.40362,0.41007 -2.59869,4.33151 -4.87795,8.71432 -15.70888,30.20681 -30.01045,52.22002 -45.985264,70.78125 -9.551903,11.09842 -9.138993,10.37423 -4.606003,8.07826 2.186559,-1.1075 8.572047,-3.89622 14.189977,-6.19717 z m 210.22821,3.60793 16.51876,-4.36071 -3.86251,-4.19884 c -2.12438,-2.30935 -6.66844,-7.18918 -10.09792,-10.84406 l -6.2354,-6.64523 -7.35835,-0.66901 c -9.97151,-0.9066 -21.18351,-0.9602 -20.77329,-0.0993 0.18427,0.38672 2.04353,4.28907 4.1317,8.67188 2.08817,4.38281 5.21287,11.23828 6.94377,15.23437 1.73089,3.9961 3.38725,7.26698 3.68079,7.26862 0.29353,0.002 7.96714,-1.95933 17.05245,-4.35772 z m 143.99093,-3.8484 c 4.04111,-3.48046 8.49759,-7.23258 9.90328,-8.33804 1.40568,-1.10547 2.55579,-2.26562 2.55579,-2.57813 0,-0.31251 -5.34772,-0.5682 -11.88381,-0.5682 l -11.8838,0 -10.6365,4.3547 c -5.85007,2.39508 -10.38702,4.60993 -10.08211,4.92187 0.51229,0.52411 22.58816,8.29615 24.03606,8.46215 0.35398,0.0406 3.94996,-2.77388 7.99108,-6.25435 z m 137.31968,-21.09375 c -0.21212,-14.05078 -0.49891,-25.67278 -0.6373,-25.82666 -0.28631,-0.31833 -20.27089,2.13277 -29.7068,3.64353 l -6.26474,1.00303 -3.91624,12.34787 c -2.15393,6.79133 -4.50277,14.15558 -5.21963,16.365 -1.78076,5.48838 -1.64876,6.65936 0.80597,7.14998 19.95062,3.98744 44.82096,9.90774 45.2794,10.77861 0.0247,0.0471 -0.12854,-11.41057 -0.34066,-25.46136 z m -246.54037,16.98399 c 8.85359,-1.71042 10.77749,-2.36033 9.94755,-3.36034 -0.56591,-0.68189 -5.29439,-3.5271 -10.50773,-6.32269 -8.38474,-4.49623 -10.45269,-5.19816 -17.91631,-6.0814 -4.64062,-0.54918 -10.10653,-1.25822 -12.14647,-1.57565 l -3.70896,-0.57717 9.74908,10.48384 c 7.6578,8.23495 10.16279,10.38411 11.67772,10.01889 1.06074,-0.25571 6.86806,-1.41918 12.90512,-2.58548 z m 84.43503,-5.02624 c 2.46072,-0.92486 4.28145,-1.87414 4.04608,-2.10952 -0.23538,-0.23537 -6.79246,0.0365 -14.57129,0.60409 -7.77884,0.56764 -15.40035,1.03206 -16.9367,1.03206 -5.06201,0 -2.91988,1.37099 5.88011,3.76334 l 8.67028,2.3571 4.21875,-1.98275 c 2.32031,-1.09051 6.23206,-2.73945 8.69277,-3.66432 z m -55.61244,-2.57034 c -9.13547,-2.16118 -28.22595,-5.56991 -28.67565,-5.12021 -0.19336,0.19336 1.86126,1.55596 4.56584,3.02797 2.70458,1.47202 6.22539,3.56401 7.82404,4.64888 2.85555,1.93782 3.08552,1.94721 13.08947,0.53432 l 10.18288,-1.43814 -6.98658,-1.65282 z m 173.245,-14.77803 c 2.04739,-6.44531 4.03813,-12.45703 4.4239,-13.35938 0.92947,-2.17418 0.56314,-2.15287 -14.87748,0.86549 l -13.03451,2.54799 -5.43642,7.55108 c -2.99003,4.15308 -6.95209,9.66044 -8.80457,12.23857 l -3.36814,4.6875 3.08907,0.27231 c 6.7624,0.59612 31.21543,4.10404 31.65204,4.54067 0.25599,0.25598 0.95326,-1.35504 1.54951,-3.58004 0.59625,-2.22499 2.75922,-9.31888 4.8066,-15.76419 z m -142.42416,14.02268 c 6.01842,-0.53754 17.27071,-1.33912 25.00508,-1.7813 l 14.0625,-0.80396 24.375,-8.17425 c 25.37224,-8.50869 28.15716,-9.63566 32.8125,-13.27828 4.16083,-3.25566 4.15204,-3.24959 11.25,-7.78337 3.60937,-2.30546 6.77344,-4.45852 7.03125,-4.78457 0.25781,-0.32606 1.94531,-1.34337 3.75,-2.2607 1.80469,-0.91733 3.49219,-1.97202 3.75,-2.34375 0.25781,-0.37173 1.8282,-1.37237 3.48975,-2.22364 4.66295,-2.38897 9.90937,-6.10357 11.979,-8.48144 1.03125,-1.18483 3.35156,-3.83734 5.15625,-5.89445 1.80469,-2.0571 5.456,-6.23016 8.11403,-9.27345 2.65803,-3.0433 8.65924,-9.54108 13.33602,-14.43952 7.30711,-7.65343 9.25308,-10.42283 13.83383,-19.6875 2.93183,-5.92969 8.65301,-16.66028 12.71375,-23.84574 6.61646,-11.70781 7.61619,-14.14169 9.62709,-23.4375 2.62141,-12.11799 8.35271,-34.51893 9.80539,-38.32467 0.64309,-1.68475 1.00739,-13.61348 1.00739,-32.98584 0,-19.37236 -0.3643,-31.30109 -1.00739,-32.98584 -1.44665,-3.78991 -7.17738,-26.17797 -9.79458,-38.26416 -1.92841,-8.90538 -3.0703,-11.78358 -8.36866,-21.09375 -3.37454,-5.92969 -9.0979,-16.6875 -12.71858,-23.90625 -5.89838,-11.75994 -7.46804,-14.05129 -15.09226,-22.03125 -4.68007,-4.89844 -10.68397,-11.39622 -13.342,-14.43952 -2.65803,-3.04329 -6.30934,-7.21635 -8.11403,-9.27345 -1.80469,-2.05711 -4.125,-4.70962 -5.15625,-5.89445 -2.06963,-2.37787 -7.31605,-6.09247 -11.979,-8.48144 -1.66155,-0.85127 -3.23194,-1.85191 -3.48975,-2.22364 -0.25781,-0.37173 -1.94531,-1.42642 -3.75,-2.34375 -1.80469,-0.91733 -3.49219,-1.93464 -3.75,-2.2607 -0.25781,-0.32605 -3.42188,-2.47911 -7.03125,-4.78458 -7.09796,-4.53377 -7.08917,-4.5277 -11.25,-7.78336 -4.67344,-3.65678 -7.47655,-4.79066 -32.8125,-13.27286 l -24.375,-8.16049 -13.125,-0.77909 c -7.21875,-0.42851 -19.66406,-1.29174 -27.65625,-1.9183 l -14.53125,-1.13921 -13.125,2.94019 c -7.21875,1.6171 -19.05413,3.95508 -26.30084,5.19552 -12.81392,2.19339 -13.56071,2.45361 -27.1875,9.47366 -7.70641,3.97008 -18.49486,9.22544 -23.97433,11.6786 -8.8723,3.97212 -11.28468,5.62863 -22.04177,15.13545 -6.6435,5.87134 -15.95814,13.75633 -20.69921,17.52219 -7.55438,6.0005 -9.63941,8.36219 -16.86448,19.10225 -4.5344,6.74037 -9.08812,13.40851 -10.11937,14.81808 -1.03125,1.40957 -2.70554,3.78231 -3.72065,5.27275 -1.0151,1.49045 -3.57446,4.86845 -5.68745,7.50667 -2.69101,3.3599 -4.90817,7.8531 -7.40173,15 -1.95795,5.61178 -6.44142,17.37511 -9.96326,26.14073 -6.04058,15.03464 -6.46213,16.57481 -7.44117,27.1875 -0.57082,6.1875 -2.08946,18.62167 -3.37477,27.63149 l -2.33694,16.38149 2.33526,16.43101 c 1.28438,9.03706 2.79883,21.49351 3.36543,27.68101 0.92817,10.13609 1.50245,12.41032 5.79998,22.96875 2.62339,6.44531 7.19769,18.35413 10.16511,26.46404 4.00151,10.9361 6.34145,15.90094 9.05784,19.21875 2.0144,2.4604 4.48713,5.69291 5.49495,7.18336 1.00782,1.49044 2.67615,3.86318 3.7074,5.27275 1.03125,1.40957 5.58497,8.07771 10.11937,14.81808 7.22507,10.74006 9.3101,13.10175 16.86448,19.10225 4.74107,3.76586 14.05571,11.65084 20.69921,17.52219 10.75709,9.50682 13.16947,11.16333 22.04177,15.13545 5.47947,2.45316 16.26001,7.70445 23.95676,11.66954 13.97109,7.19742 14.01961,7.21377 29.53125,9.94958 8.54543,1.50716 19.75591,3.74527 24.91216,4.97357 10.99402,2.61894 13.84729,2.76577 28.43242,1.46312 z m 101.85278,-4.44753 c 1.53187,-2.4304 3.12978,-4.84077 3.55093,-5.3564 3.97045,-4.86107 8.92804,-12.65625 8.04915,-12.65625 -0.60773,0 -5.99148,1.30663 -11.96388,2.90363 -11.14593,2.98036 -12.03084,3.45673 -24.52955,13.20479 l -5.62831,4.38966 4.02448,0.54179 c 3.62188,0.4876 8.75134,0.80758 19.96198,1.24526 3.5081,0.13696 3.92967,-0.13864 6.5352,-4.27248 z m -28.60468,-2.64253 c 3.69379,-2.89019 6.5056,-5.46525 6.24848,-5.72236 -0.46177,-0.46178 -24.6705,7.32281 -30.1165,9.6843 -2.54358,1.10294 -1.85803,1.22306 7.16978,1.25625 l 9.98228,0.0367 6.71596,-5.25488 z M 216.5625,632.29733 c 7.47656,-0.72675 16.23047,-1.33002 19.45312,-1.34059 5.13226,-0.0169 5.85938,-0.24108 5.85938,-1.80693 0,-1.83559 -5.32544,-31.21295 -6.15664,-33.96262 -0.31607,-1.04555 -3.80073,-2.44328 -10.98129,-4.40469 -16.4254,-4.48669 -23.20087,-6.06871 -23.72904,-5.54054 -0.26778,0.26779 -1.295,6.7565 -2.2827,14.41934 -1.72134,13.35464 -4.12261,28.29895 -5.31142,33.05571 -0.55525,2.22169 -0.50212,2.2403 4.49647,1.57498 2.7821,-0.37032 11.17556,-1.26791 18.65212,-1.99466 z m 114.53405,0.47964 C 327.23001,630.41963 303.03567,618.75 302.01483,618.75 c -0.40957,0 2.37205,3.11672 6.18137,6.92603 l 6.92603,6.92605 7.20451,0.91007 c 3.96249,0.50055 8.2592,0.96819 9.54826,1.03921 2.20353,0.1214 2.15695,0.0153 -0.77845,-1.77439 z M 309.375,631.22722 c 0,-0.35627 -3.90234,-4.36892 -8.67188,-8.91701 -9.0388,-8.61911 -8.76297,-8.46567 -29.57625,-16.45334 -0.66927,-0.25685 -0.0169,1.5898 1.44975,4.10368 1.46663,2.51389 4.50186,8.24757 6.74495,12.74154 l 4.07836,8.17083 9.00316,0.30483 c 4.95173,0.16766 10.79613,0.39312 12.98753,0.50104 2.19141,0.10792 3.98438,-0.0953 3.98438,-0.45157 z m 183.75,0.17903 c 0,-0.25781 -0.21094,-0.46875 -0.46875,-0.46875 -0.25781,0 -0.46875,0.21094 -0.46875,0.46875 0,0.25781 0.21094,0.46875 0.46875,0.46875 0.25781,0 0.46875,-0.21094 0.46875,-0.46875 z m -213.75,-1.77037 c 0,-1.01951 -10.76633,-21.11818 -12.6109,-23.54213 -1.75686,-2.30868 -4.35809,-3.54194 -14.52087,-6.88444 -6.80932,-2.23957 -12.56329,-3.88925 -12.78658,-3.66596 -0.22329,0.22329 0.96777,8.06528 2.64681,17.42663 l 3.05279,17.02066 17.10937,0.005 c 9.41016,0.003 17.10938,-0.15918 17.10938,-0.35944 z m 240.59506,-9.0186 8.56382,-2.04848 6.26737,-7.974 c 3.44706,-4.3857 5.71053,-7.66484 5.02994,-7.28697 -4.97571,2.76252 -31.52964,20.42334 -29.83119,19.8405 0.77344,-0.26542 5.25997,-1.40439 9.97006,-2.53105 z m 230.27027,-4.56911 c -18.9332,-16.79881 -39.85847,-41.41784 -56.86895,-66.90755 -3.01088,-4.51171 -5.92271,-8.20312 -6.47073,-8.20312 -4.30997,0 -47.52565,13.60636 -47.52565,14.96334 0,1.32072 6.54094,26.13601 9.39988,35.66166 1.62492,5.41406 3.16534,10.73198 3.42315,11.81761 0.4397,1.85154 1.29021,2.01452 13.72538,2.63002 30.24286,1.49693 65.33671,7.48754 85.01409,14.51215 2.83594,1.01239 5.47534,1.87155 5.86533,1.90922 0.38999,0.0377 -2.56314,-2.83483 -6.5625,-6.38333 z m -202.18636,-1.55132 c 6.56027,-1.26009 11.99873,-2.40065 12.08548,-2.53458 0.0867,-0.13394 1.55684,-4.0404 3.26688,-8.68102 1.71003,-4.64063 3.90448,-10.48575 4.87656,-12.98918 l 1.76744,-4.55167 -7.29079,3.98423 c -13.44776,7.34886 -14.8793,8.60772 -27.02885,23.76857 -3.05963,3.81796 -3.33459,4.47863 -1.64017,3.94084 1.11962,-0.35536 7.40318,-1.67709 13.96345,-2.93719 z m 40.32364,-6.03497 9.47135,-1.13899 0.64519,-13.65461 c 0.35484,-7.51002 0.89618,-15.4858 1.20294,-17.72393 0.38109,-2.7803 0.21368,-4.06935 -0.52846,-4.06935 -1.421,0 -23.67575,11.0564 -25.14005,12.48984 -1.01474,0.99336 -10.59108,25.22675 -10.59108,26.80124 0,0.358 3.48047,0.15228 7.73437,-0.45715 4.25391,-0.60942 11.99649,-1.62059 17.20574,-2.24705 z M 286.875,608.90625 c 0,-0.25781 -0.21094,-0.46875 -0.46875,-0.46875 -0.25781,0 -0.46875,0.21094 -0.46875,0.46875 0,0.25781 0.21094,0.46875 0.46875,0.46875 0.25781,0 0.46875,-0.21094 0.46875,-0.46875 z m -2.48497,-2.16035 c -0.88052,-0.56056 -10.84127,-9.12866 -13.84159,-11.90637 -3.69285,-3.41885 -11.00036,-9.07511 -11.31627,-8.75919 -0.20916,0.20914 0.63611,2.05554 1.87837,4.10309 1.24226,2.04755 3.1876,5.48648 4.32298,7.64207 1.89583,3.59937 2.75945,4.18302 10.58103,7.15093 4.68418,1.77742 8.71542,3.04942 8.9583,2.82665 0.24288,-0.22276 -0.0194,-0.6985 -0.58282,-1.05718 z m 343.1124,-0.81549 c 22.05184,-0.59814 22.33984,-0.63192 21.86621,-2.56514 -0.26397,-1.07746 -1.58404,-5.54496 -2.93349,-9.92777 -1.34943,-4.38281 -4.12515,-14.47497 -6.16824,-22.42702 -2.04309,-7.95206 -3.82709,-14.57066 -3.96444,-14.708 -0.13734,-0.13735 -1.50612,0.32927 -3.04171,1.03693 -1.53561,0.70766 -5.74514,2.4239 -9.35451,3.81384 -3.60938,1.38996 -8.25,3.27258 -10.3125,4.18361 -2.0625,0.91103 -5.26684,2.28416 -7.12074,3.05141 -3.23139,1.33731 -3.3956,1.63273 -3.97178,7.14529 -0.33056,3.16265 -0.88581,11.71595 -1.23386,19.00732 l -0.63285,13.25704 2.26086,-0.63069 c 1.24348,-0.34689 12.31664,-0.90346 24.60704,-1.23682 z m -365.49629,-8.50854 c -0.81372,-1.41796 -2.9198,-4.89843 -4.68017,-7.73437 -1.76039,-2.83594 -3.88028,-6.42188 -4.7109,-7.96875 -0.83062,-1.54688 -2.97932,-3.86719 -4.77489,-5.15625 -1.79557,-1.28906 -3.76683,-2.78062 -4.38055,-3.31456 -0.61374,-0.53395 -3.22526,-2.43239 -5.80338,-4.21875 -2.57813,-1.78637 -4.99745,-3.66982 -5.37627,-4.18544 -1.20534,-1.64061 -0.81269,0.5056 2.48544,13.58569 1.75408,6.9565 3.75491,12.98191 4.44628,13.38978 1.29718,0.76528 22.25215,7.98195 23.54675,8.10927 0.39996,0.0394 0.0614,-1.08865 -0.75231,-2.50662 z m -27.63733,-7.96875 c -0.004,-0.64453 -1.5922,-7.20903 -3.53066,-14.5878 l -3.52447,-13.41591 -11.70372,-7.80092 c -9.52715,-6.35017 -11.80899,-7.51651 -12.26983,-6.27158 -0.31136,0.84114 -0.85235,8.04935 -1.20221,16.01825 -0.34985,7.96891 -0.85686,15.3685 -1.12667,16.44353 -0.44555,1.77521 0.31014,2.14891 8.23346,4.07152 4.79822,1.1643 12.09904,3.1078 16.22404,4.31889 9.17639,2.69415 8.90763,2.65718 8.90006,1.22402 z m 338.54714,-9.79274 c 0.35824,-0.9304 2.16715,-5.20512 4.0198,-9.49938 l 3.36844,-7.80776 -6.84734,7.33901 c -6.14289,6.58397 -11.41161,12.44496 -17.01356,18.92614 -1.47563,1.70725 0.11168,1.13046 6.95465,-2.52711 4.87668,-2.6066 9.15979,-5.50049 9.51801,-6.4309 z m -374.79446,-0.51976 c 0.28174,-1.16015 0.76639,-7.80468 1.07699,-14.76562 0.3106,-6.96094 0.76867,-14.34377 1.01793,-16.4063 l 0.4532,-3.75005 -7.75668,-4.79865 c -4.26617,-2.63927 -11.44977,-6.77554 -15.96356,-9.19173 l -8.20689,-4.39306 -0.9687,2.62926 c -2.92656,7.94334 -13.57589,33.76892 -15.85073,38.43946 -1.45723,2.9919 -2.54493,5.55674 -2.4171,5.69963 0.12783,0.14288 5.88112,1.08698 12.78511,2.09799 9.839,1.44081 23.7472,4.01142 34.71668,6.41657 0.33083,0.0726 0.83201,-0.81734 1.11375,-1.9775 z m 388.91437,-4.9474 c 5.84121,-2.84997 11.24861,-5.52978 12.01643,-5.9551 1.01035,-0.55969 1.82314,-4.50241 2.94202,-14.27135 0.85029,-7.42391 1.47926,-13.57677 1.39771,-13.67303 -0.0816,-0.0963 -4.2008,3.70062 -9.15388,8.4375 -8.78219,8.39887 -9.12348,8.88576 -13.75884,19.62813 -2.61428,6.0586 -4.59813,11.01563 -4.40854,11.01563 0.18959,0 5.12389,-2.3318 10.9651,-5.18178 z M 55.78125,573.28767 c 11.179187,-1.7757 32.069108,-3.27913 45.62855,-3.28385 10.5847,-0.004 37.13742,1.44129 42.13365,2.29289 2.2626,0.38566 2.7157,-0.1575 5.93246,-7.11158 3.368,-7.28104 14.65477,-34.89121 15.88072,-38.84809 0.53596,-1.72983 -0.82014,-2.62979 -12.299,-8.16199 -7.09576,-3.41979 -17.38372,-8.08649 -22.86214,-10.37048 l -9.96076,-4.15268 -13.94549,15.0797 c -20.80357,22.49556 -38.321974,38.11481 -58.842891,52.46378 -6.123172,4.28154 -6.398306,4.61056 -3.383849,4.04649 1.804687,-0.33769 7.078125,-1.21707 11.71875,-1.95419 z m 184.18821,-10.5533 c -3.06536,-4.51171 -6.8365,-9.89062 -8.38033,-11.95312 -1.54381,-2.0625 -3.30378,-4.69922 -3.91102,-5.85938 -1.29548,-2.47506 -3.1751,-2.8687 -2.23833,-0.46875 0.35221,0.90235 1.5003,4.80469 2.55131,8.67188 l 1.91093,7.03125 7.54809,5.39062 c 4.15146,2.96485 7.67064,5.39063 7.8204,5.39063 0.14977,0 -2.23571,-3.69141 -5.30105,-8.20313 z m 372.45543,-0.0908 c 2.18975,-0.97656 6.93449,-2.91445 10.54386,-4.3064 12.42337,-4.79107 12.90426,-5.09914 12.29768,-7.87812 -0.29895,-1.36964 -1.64616,-8.60744 -2.9938,-16.084 -2.80952,-15.58692 -2.89804,-15.94938 -3.88384,-15.90315 -0.4029,0.0188 -5.37316,4.15312 -11.04504,9.18716 l -10.3125,9.15282 -1.07204,7.45347 c -0.58962,4.09939 -1.37239,10.72945 -1.73948,14.73346 l -0.66743,7.27999 2.44562,-0.92982 c 1.34509,-0.5114 4.23723,-1.72883 6.42697,-2.70541 z m -387.08922,-8.34666 c -0.35064,-1.41796 -2.03579,-6.74341 -3.74475,-11.83433 -3.18392,-9.48474 -3.77704,-10.47882 -12.86735,-21.56612 l -5.28607,-6.44734 0,14.05075 0,14.05073 10.54687,7.06083 c 5.80079,3.88345 10.87132,7.10646 11.26786,7.16222 0.39655,0.0558 0.43409,-1.05877 0.0834,-2.47674 z m 418.92604,-3.91289 c 6.84524,-2.49048 25.10809,-8.1157 33.38295,-10.28241 3.77487,-0.98843 7.08212,-2.01584 7.34943,-2.28315 0.2673,-0.26731 -1.38429,-3.57721 -3.6702,-7.35534 -6.23878,-10.31136 -19.44889,-34.4011 -19.44889,-35.46667 0,-0.51365 -0.36413,-0.93391 -0.80918,-0.93391 -0.87623,0 -21.12521,14.93991 -26.21046,19.33835 l -3.11339,2.6929 1.99377,11.71875 c 2.1872,12.85559 4.64963,24.375 5.21049,24.375 0.19713,0 2.58911,-0.81158 5.31548,-1.80352 z m -46.30135,-9.21211 6.57283,-6.32812 1.45834,-8.85319 c 0.80209,-4.86925 1.31761,-8.99391 1.14561,-9.16592 -0.4535,-0.45349 -11.26972,19.05463 -14.04828,25.33743 -1.29837,2.93587 -2.21233,5.33793 -2.03101,5.33793 0.18133,0 3.28746,-2.84766 6.90251,-6.32813 z M 225,541.40625 c 0,-0.25781 -0.21094,-0.46875 -0.46875,-0.46875 -0.25781,0 -0.46875,0.21094 -0.46875,0.46875 0,0.25781 0.21094,0.46875 0.46875,0.46875 0.25781,0 0.46875,-0.21094 0.46875,-0.46875 z m -25.5916,-31.41998 c -0.69555,-0.99304 -4.81963,-5.6736 -9.16465,-10.40127 -4.345,-4.72766 -8.04063,-8.95895 -8.2125,-9.40287 -0.78254,-2.02114 -1.91103,-0.351 -3.41373,5.05224 -0.89626,3.22266 -3.31377,10.84514 -5.37223,16.93883 -2.05845,6.09369 -3.59558,11.15619 -3.41584,11.25 0.17974,0.0938 1.33509,0.73836 2.56744,1.43235 1.23236,0.69398 6.45282,3.56211 11.60103,6.37359 5.14821,2.81149 10.88992,6.15176 12.75936,7.42283 l 3.39897,2.31103 0.25839,-14.58561 c 0.19596,-11.06155 -0.0471,-15.02184 -1.00624,-16.39112 z M 701.25,534.46874 c 26.5762,-5.59989 46.77334,-7.79034 72.43877,-7.85625 l 19.47001,-0.05 -5.40751,-2.73836 c -24.41733,-12.36492 -55.54491,-34.26585 -75.61142,-53.19916 -2.45919,-2.32031 -4.86269,-4.36002 -5.34112,-4.53269 -1.14873,-0.41458 -13.17551,6.49641 -29.70638,17.07029 -11.54125,7.38231 -13.3103,8.83365 -12.89452,10.57886 0.26504,1.11249 3.99053,8.28436 8.27887,15.9375 15.04332,26.84689 15.59151,27.67281 17.99205,27.10777 1.03125,-0.24274 5.88281,-1.28583 10.78125,-2.31799 z m -86.63949,-8.21685 c 2.53453,-2.1474 5.87386,-5.02701 7.42074,-6.39913 1.54688,-1.37212 3.69476,-3.10027 4.77308,-3.84034 2.12336,-1.45729 2.18236,-0.12882 -1.095,-24.65279 -0.6738,-5.042 -0.92334,-4.8232 -8.33055,7.30433 -4.89339,8.01174 -5.54748,9.73037 -7.13604,18.75 -0.96186,5.46138 -1.96683,11.11443 -2.23324,12.56233 -0.40057,2.17701 -0.27007,2.42034 0.75419,1.40625 0.68122,-0.67446 3.31229,-2.98325 5.84682,-5.13065 z m -401.07972,-7.58002 c -1.1167,-2.96484 -4.06788,-10.45312 -6.55819,-16.64062 l -4.52784,-11.25 0.4592,9.64294 0.45919,9.64293 5.78829,6.99769 c 3.18355,3.84873 5.9281,6.99769 6.099,6.99769 0.17089,0 -0.60295,-2.42578 -1.71965,-5.39063 z m -42.83955,-8.20348 c 1.91244,-5.67167 4.36357,-13.47211 5.44697,-17.33431 l 1.96982,-7.02216 -12.85491,-12.43096 C 158.1829,466.84393 152.10572,461.25 151.74826,461.25 c -0.35746,0 -1.94664,2.00391 -3.53149,4.45312 -6.9312,10.71143 -8.41902,12.74777 -21.83358,29.88304 l -4.49551,5.74241 12.41553,5.34558 c 6.82855,2.94007 16.42335,7.38592 21.32179,9.87966 4.89844,2.49375 9.50989,4.46493 10.24767,4.38041 0.82497,-0.0945 2.68011,-4.12382 4.81857,-10.46583 z m 465.40251,-1.89694 c 1.54687,-1.28107 7.3322,-5.59699 12.85627,-9.59096 5.52406,-3.99395 10.05922,-7.79751 10.07812,-8.45235 0.0189,-0.65483 -1.79166,-4.87358 -4.02346,-9.375 -2.23179,-4.50141 -5.46081,-11.42824 -7.17559,-15.39294 -3.54839,-8.20418 -2.56201,-8.40841 -9.91199,2.0523 -10.69883,15.22693 -10.06946,13.79714 -9.43459,21.43308 1.17713,14.15824 2.72719,23.38289 3.78138,22.50362 0.55955,-0.4667 2.28298,-1.89669 3.82986,-3.17775 z M 199.51571,494.03078 c -0.62528,-11.91734 -0.75064,-12.46742 -5.07394,-22.26562 -2.43804,-5.52553 -4.86201,-10.60264 -5.3866,-11.28247 -0.69331,-0.89849 -1.79451,2.04583 -4.0323,10.78125 -1.69318,6.60952 -3.09411,12.76055 -3.11319,13.66895 -0.019,0.90841 2.64844,4.49435 5.92782,7.96875 3.27937,3.47441 7.33088,7.89914 9.00337,9.83273 1.67248,1.9336 3.10276,3.51563 3.17842,3.51563 0.0757,0 -0.15096,-5.49865 -0.50358,-12.21922 z M 126.11172,491.25 c 2.56824,-3.35156 4.90079,-6.30469 5.18345,-6.5625 0.28266,-0.25781 1.52795,-1.94531 2.76733,-3.75 1.23937,-1.80469 2.52636,-3.49219 2.85995,-3.75 0.33359,-0.25781 1.61954,-1.99429 2.85767,-3.85883 1.23811,-1.86454 3.83316,-5.77508 5.76675,-8.69008 1.9336,-2.91499 3.49589,-5.60822 3.47176,-5.98492 -0.0242,-0.37671 -3.87195,-3.84898 -8.55067,-7.71617 -4.67873,-3.86719 -9.24338,-7.66406 -10.14366,-8.4375 -0.90027,-0.77344 -3.03392,-2.46094 -4.74144,-3.75 -1.70752,-1.28906 -4.3636,-3.38819 -5.90242,-4.66474 -1.5388,-1.27654 -4.31126,-3.42305 -6.16101,-4.77003 l -3.36318,-2.44905 -10.78125,7.22968 c -26.239227,17.59545 -53.169188,31.73735 -75,39.38523 -8.313754,2.91253 -8.831499,3.70641 -2.417192,3.70641 17.572397,0 60.478039,9.71947 88.198442,19.97971 9.66839,3.5786 8.28622,4.09118 15.95547,-5.91721 z m 496.55974,-5.51706 c 1.81169,-2.37774 2.06227,-7.50532 0.89867,-18.38919 l -0.60138,-5.625 -4.45313,17.89755 c -2.44921,9.84366 -4.45312,18.26796 -4.45312,18.72067 0,0.45271 1.55372,-1.69494 3.45271,-4.77255 1.899,-3.07762 4.21931,-6.60179 5.15625,-7.83148 z m 55.14104,-6.4033 c 6.44531,-4.14622 14.96743,-9.39742 18.93805,-11.66935 l 7.2193,-4.13079 -12.37555,-12.62589 c -6.80656,-6.94424 -14.53518,-15.07314 -17.17472,-18.06422 l -4.79917,-5.43832 -5.10431,5.90883 c -2.80738,3.24987 -7.94373,9.63112 -11.41412,14.18056 -4.93083,6.46398 -6.17157,8.71771 -5.67734,10.3125 0.78218,2.52391 2.97214,7.4284 9.43506,21.13003 4.93569,10.46386 5.06143,10.62779 7.12918,9.29348 1.15768,-0.74705 7.37831,-4.75062 13.82362,-8.89683 z M 182.86402,467.96831 c 3.60396,-14.62304 3.77798,-13.59362 -4.99096,-29.52428 l -5.58686,-10.14971 -3.11417,4.99346 c -1.71279,2.7464 -5.05564,8.15753 -7.42856,12.02472 -2.37291,3.86719 -5.20512,8.44361 -6.29378,10.16983 l -1.9794,3.13858 12.56173,11.97884 c 7.47046,7.12382 12.80277,11.55129 13.15645,10.92392 0.3271,-0.58021 1.9811,-6.68012 3.67556,-13.55536 z m 452.04,-0.48281 c 0.65435,-0.95329 2.77176,-3.87713 4.70535,-6.49744 4.03692,-5.47062 4.1361,-6.07418 1.77317,-10.79104 -0.95834,-1.91305 -3.14912,-7.44676 -4.86837,-12.29715 l -3.12592,-8.81889 -3.92291,11.7289 -3.9229,11.72891 0.76842,10.68373 c 0.42264,5.87605 0.79278,11.70721 0.82254,12.95812 0.0546,2.29545 0.79572,1.46616 7.77062,-8.69514 z m -438.9089,-13.73185 c -1.06294,-8.31566 -1.93262,-15.81053 -1.93262,-16.65526 0,-3.85079 -1.76098,0.98158 -3.16415,8.68286 l -1.5373,8.4375 3.97992,8.23742 c 2.18895,4.53058 4.11646,7.8278 4.28335,7.32714 0.16688,-0.50065 -0.56626,-7.714 -1.6292,-16.02966 z m 542.65325,-7.19047 c 21.12764,-9.06739 45.55474,-17.02217 62.88213,-20.47782 3.36916,-0.67192 4.97449,-1.26131 3.56739,-1.30976 -1.40711,-0.0485 -9.00086,-1.75929 -16.875,-3.80185 -23.03626,-5.97562 -48.38921,-15.73827 -70.48109,-27.14012 l -10.85142,-5.60052 -2.92856,2.46421 c -1.6107,1.35533 -9.63819,9.59171 -17.83887,18.30307 l -14.91033,15.83885 2.74336,3.43976 c 1.50884,1.89186 9.46242,10.32465 17.67461,18.73951 l 14.93127,15.29976 11.07057,-5.74341 c 6.08881,-3.15887 15.54598,-7.66413 21.01594,-10.01168 z M 162.5378,438.72866 c 1.99735,-3.18027 4.62294,-7.55611 5.83464,-9.72408 l 2.2031,-3.94176 -3.6429,-6.04704 c -2.0036,-3.32586 -4.99765,-8.34771 -6.65345,-11.15967 -1.65579,-2.81194 -4.39928,-7.13151 -6.09665,-9.59904 l -3.08611,-4.48642 -11.09509,9.4298 c -6.1023,5.18639 -14.7865,12.20616 -19.29821,15.59947 -4.51172,3.39332 -8.20313,6.27757 -8.20313,6.40944 0,0.13187 2.00391,1.71924 4.45313,3.52751 8.5641,6.32291 14.73803,11.26315 24.42646,19.54555 l 9.76407,8.34704 3.88129,-6.05924 c 2.13472,-3.33258 5.51549,-8.66129 7.51285,-11.84156 z m 488.0872,7.53574 c 1.93071,-2.79421 5.13303,-6.75679 11.48437,-14.21086 2.96485,-3.47961 5.39063,-6.58339 5.39063,-6.89729 0,-0.3139 -2.42578,-3.40775 -5.39063,-6.8752 -2.96484,-3.46746 -6.44531,-7.68673 -7.73437,-9.37617 -1.28906,-1.68943 -2.97656,-3.85771 -3.75,-4.81842 -0.77344,-0.96069 -2.22172,-2.85975 -3.21839,-4.22012 l -1.81214,-2.47339 -1.53743,3.16079 c -0.84558,1.73842 -3.3118,7.99831 -5.48047,13.91085 l -3.94303,10.75008 3.8137,10.28328 c 2.09754,5.65582 4.51487,11.87367 5.37184,13.81746 l 1.55811,3.53417 1.92078,-2.275 c 1.05643,-1.25125 2.55359,-3.19083 3.32703,-4.31018 z m -460.92413,-9.52733 2.22047,-11.85669 -2.2453,-11.53731 c -1.23491,-6.34553 -2.34944,-11.64148 -2.47673,-11.76876 -0.12729,-0.12728 -3.17744,5.12742 -6.7781,11.67713 l -6.54667,11.90858 6.28282,11.24811 c 3.45555,6.18646 6.34364,11.88093 6.41799,12.65437 0.22558,2.3468 0.80748,0.0521 3.12552,-12.32543 z m 438.9729,-20.93781 -3.21325,-9.39301 -0.003,18.75 -0.003,18.75 3.21613,-9.35699 3.21613,-9.357 -3.21324,-9.393 z M 120.91022,415.335 c 4.98815,-3.93172 7.10736,-5.63342 9.36806,-7.5225 0.92559,-0.77344 5.51095,-4.57031 10.18968,-8.4375 4.67872,-3.86719 8.52652,-7.33946 8.55067,-7.71617 0.0241,-0.3767 -1.53816,-3.06993 -3.47176,-5.98492 -1.93359,-2.915 -4.52864,-6.82554 -5.76675,-8.69008 -1.23813,-1.86454 -2.52408,-3.60102 -2.85767,-3.85883 -0.33359,-0.25781 -1.62058,-1.94531 -2.85995,-3.75 -1.23938,-1.80469 -2.48467,-3.49219 -2.76733,-3.75 -0.28266,-0.25781 -2.62075,-3.21094 -5.19578,-6.5625 -2.57501,-3.35156 -5.25005,-6.76728 -5.94451,-7.59049 -1.14418,-1.35627 -2.06853,-1.201 -9.84941,1.65444 C 82.044489,363.4977 39.513956,373.125 21.957808,373.125 c -6.414307,0 -5.896562,0.79388 2.417192,3.70641 21.834096,7.64902 49.683113,22.29509 75.46875,39.68972 l 10.3125,6.95667 3.28125,-2.41953 c 1.80469,-1.33074 5.16741,-3.90622 7.47272,-5.72327 z m 570.64529,-15.93512 12.33676,-12.66185 -7.18051,-4.1083 c -5.98356,-3.42348 -13.68007,-8.25541 -32.72288,-20.5437 -2.06775,-1.33431 -2.19349,-1.17038 -7.12918,9.29348 -6.46292,13.70163 -8.65288,18.60612 -9.43506,21.13003 -0.49423,1.59479 0.74651,3.84852 5.67734,10.3125 3.47039,4.54944 8.60674,10.93069 11.41412,14.18056 l 5.10431,5.90883 4.79917,-5.42485 c 2.63954,-2.98367 10.35072,-11.12269 17.13593,-18.0867 z m -513.00655,11.23704 c 3.39936,-6.18096 6.41983,-12.434 6.71216,-13.89566 0.4716,-2.35797 -4.46649,-25.06802 -6.07799,-27.95243 -0.34926,-0.62514 -5.68853,3.80765 -13.1053,10.88031 l -12.51592,11.93525 1.5644,2.71343 c 0.86041,1.49238 3.84486,6.29937 6.63211,10.68218 2.78724,4.38281 6.23886,9.97223 7.67026,12.42092 1.43142,2.44869 2.6784,4.4526 2.77109,4.45312 0.0927,5.3e-4 2.94983,-5.05618 6.34919,-11.23712 z m 458.34126,0.7811 c 1.79561,-4.96045 3.933,-10.31126 4.74976,-11.8907 2.08765,-4.03706 1.92822,-4.83808 -2.0306,-10.20288 -1.9336,-2.62031 -4.05101,-5.54415 -4.70536,-6.49744 -6.98025,-10.1691 -7.71594,-10.99177 -7.77582,-8.69514 -0.0326,1.25091 -0.41394,6.91502 -0.8474,12.58689 l -0.78811,10.3125 3.85461,11.91467 c 2.12004,6.55306 3.94992,11.81936 4.0664,11.70289 0.11647,-0.11649 1.68091,-4.27033 3.47652,-9.23079 z m -439.66341,-25.63677 0.60052,-6.5625 -4.25092,8.23228 -4.25094,8.23228 1.47901,8.17397 c 0.81346,4.49569 1.73701,8.80678 2.05234,9.58022 0.57947,1.4213 3.26362,-15.56585 4.36999,-27.65625 z m 455.93024,-12.56384 c 3.24799,-6.91012 5.883,-13.0273 5.85555,-13.59375 -0.0275,-0.56645 -3.86872,-3.7721 -8.53617,-7.12366 -4.66743,-3.35156 -10.90471,-8.04083 -13.86059,-10.42058 l -5.37434,-4.32684 -1.13575,8.53052 c -0.62468,4.69178 -1.35005,11.70136 -1.61195,15.57683 l -0.47618,7.04632 4.97556,6.78455 c 2.73657,3.7315 6.45213,8.87861 8.25682,11.43803 l 3.28125,4.65349 1.36017,-3.00054 c 0.74809,-1.65029 4.01762,-8.65425 7.26563,-15.56437 z m -462.02832,12.32946 c 6.82205,-13.52906 7.72831,-16.7116 8.39904,-29.4949 l 0.63502,-12.10287 -5.8801,6.38482 c -3.23406,3.51165 -7.42244,8.20562 -9.3075,10.43103 l -3.42739,4.04622 3.21047,13.06068 c 1.76576,7.18339 3.30987,13.06182 3.43135,13.06317 0.1215,9.4e-4 1.44409,-2.4233 2.93911,-5.38815 z m -25.89368,-8.93127 12.86396,-12.44689 -1.96657,-7.00623 c -2.86595,-10.21038 -8.39987,-26.55703 -9.32655,-27.5497 -0.47096,-0.50448 -5.52912,1.45234 -12.31811,4.76543 -6.33546,3.09176 -16.26047,7.64515 -22.05557,10.11863 l -10.53655,4.49725 4.49153,5.73733 c 13.41048,17.13012 14.89879,19.16717 21.82958,29.87795 1.58486,2.44922 3.16793,4.45313 3.51793,4.45313 0.35002,0 6.42517,-5.6011 13.50035,-12.4469 z m 459.04723,-3.90896 c 0.0729,-4.38407 -0.37776,-6.28612 -2.11029,-8.90625 -1.21166,-1.8324 -3.53197,-5.40787 -5.15625,-7.94549 -1.62429,-2.53763 -2.95324,-4.26339 -2.95324,-3.83506 0,0.42834 2.0017,8.8327 4.44822,18.67636 l 4.44822,17.89755 0.61531,-5.15625 c 0.33843,-2.83594 0.65704,-7.66482 0.70803,-10.73086 z m 86.57439,8.15274 c 2.19289,-1.9336 4.40895,-3.98639 4.92458,-4.56176 0.51562,-0.57537 6.03832,-5.25509 12.27263,-10.39937 17.47009,-14.41552 38.837,-28.65549 58.03987,-38.68064 l 7.5,-3.91549 -10.12138,0.53016 c -23.46202,1.22896 -63.48685,-3.17904 -92.59794,-10.19795 -2.87831,-0.69399 -2.88885,-0.67854 -18.39773,26.99921 -4.28834,7.65314 -8.01614,14.82501 -8.28399,15.9375 -0.41917,1.74094 1.241,3.13279 11.91762,9.99146 12.99316,8.34683 28.86298,17.73621 30.05884,17.78432 0.38523,0.0155 2.49461,-1.55385 4.6875,-3.48744 z M 627.53602,345.9375 c 1.0746,-7.88925 1.10681,-10.03084 0.16225,-10.78599 -2.5148,-2.01055 -13.15622,-11.1132 -17.71143,-15.15034 -2.19967,-1.9495 -2.58304,-2.06152 -2.17857,-0.63661 0.26995,0.95106 1.19102,6.15888 2.04679,11.57294 1.5775,9.98002 2.95314,13.60126 8.36924,22.03125 1.6564,2.57812 3.81105,5.95312 4.78812,7.5 l 1.7765,2.8125 0.70314,-3.75 c 0.38674,-2.0625 1.30652,-8.17969 2.04396,-13.59375 z m -445.50477,14.19287 c 0.17188,-0.44392 3.8675,-4.67521 8.2125,-9.40287 4.34502,-4.72767 8.4691,-9.40823 9.16465,-10.40127 0.95909,-1.36928 1.2022,-5.32957 1.00624,-16.39112 l -0.25839,-14.58561 -3.39897,2.31103 c -1.86944,1.27107 -7.61115,4.61134 -12.75936,7.42283 -5.14821,2.81148 -10.36867,5.67961 -11.60103,6.37359 -1.23235,0.69399 -2.3877,1.33854 -2.56744,1.43235 -0.17974,0.0938 1.35739,5.15631 3.41584,11.25 2.05846,6.09369 4.47597,13.71617 5.37223,16.93883 1.5027,5.40324 2.63119,7.07338 3.41373,5.05224 z m 30.80616,-26.61475 c 1.46114,-3.99609 2.5354,-7.26562 2.38726,-7.26562 -0.14815,0 -2.8795,3.1802 -6.06967,7.0671 l -5.80031,7.0671 -0.46354,9.57352 -0.46354,9.57353 3.87659,-9.375 c 2.13212,-5.15625 5.07207,-12.64453 6.53321,-16.64063 z M 661.875,355.28034 c 0,-1.10346 17.87047,-33.4151 21.23143,-38.38859 1.21334,-1.79548 2.20607,-3.55851 2.20607,-3.91786 0,-0.35933 -2.42578,-1.3223 -5.39063,-2.13992 -13.48289,-3.71818 -20.19892,-5.73549 -30.18681,-9.06727 -5.90352,-1.96932 -10.83912,-3.47513 -10.968,-3.34626 -0.46401,0.46401 -3.95411,17.24208 -5.46253,26.26019 -1.27485,7.62171 -1.32894,9.47091 -0.31331,10.71245 1.70397,2.08298 26.90376,20.85692 27.99572,20.85692 0.48843,0 0.88806,-0.43634 0.88806,-0.96966 z M 133.52293,341.10892 c 9.42726,-4.02094 31.16993,-14.37039 32.25476,-15.35318 0.43639,-0.39533 -11.50611,-30.21487 -16.02118,-40.00372 -3.49372,-7.57453 -3.93534,-8.12453 -6.21193,-7.73645 -4.99684,0.85176 -31.54866,2.29681 -42.13478,2.29311 -18.377468,-0.006 -39.888543,-1.9712 -57.3473,-5.23804 -3.026282,-0.56628 -2.771314,-0.25718 3.28125,3.97788 22.60195,15.81487 45.473034,36.67836 66.4405,60.60842 3.02666,3.45432 6.15885,6.28056 6.96044,6.28056 0.80159,0 6.5518,-2.17286 12.77824,-4.82858 z M 211.31829,326.25 c 6.37268,-7.98024 7.4446,-9.92973 10.30965,-18.75 3.64857,-11.23235 4.42688,-14.29073 3.53266,-13.88166 -0.34614,0.15835 -5.37544,3.39566 -11.17623,7.19401 l -10.54687,6.90611 0,14.10952 c 0,7.76023 0.17295,13.93374 0.38433,13.7189 0.21139,-0.21485 3.58479,-4.39844 7.49646,-9.29688 z m 394.67389,-1.92806 -1.45769,-8.85319 -6.57599,-6.39438 c -3.6168,-3.51691 -6.7188,-6.25157 -6.89333,-6.07703 -0.37075,0.37073 7.00606,15.25309 12.13692,24.48563 1.95289,3.51408 3.70756,6.23239 3.89925,6.04069 0.1917,-0.19169 -0.30743,-4.33247 -1.10916,-9.20172 z m 23.84409,4.19951 c 0.16776,-1.50711 1.54931,-9.03679 3.07009,-16.7326 1.5208,-7.69583 2.43822,-14.29115 2.03874,-14.65628 -0.3995,-0.36513 -4.73416,-2.22635 -9.6326,-4.13607 -4.89844,-1.90971 -10.17187,-4.04194 -11.71875,-4.73828 -1.54687,-0.69634 -4.43814,-1.92195 -6.42505,-2.72355 l -3.61256,-1.45749 0.66552,7.25829 c 0.36603,3.99205 1.14793,10.61234 1.73755,14.71173 l 1.07204,7.45347 10.3125,9.15046 c 5.67188,5.03277 10.73438,9.02898 11.25,8.8805 0.51563,-0.14849 1.07476,-1.50306 1.24253,-3.01018 z m -437.06635,-17.46343 7.61367,-4.6008 -0.41558,-8.61924 c -0.61026,-12.65672 -1.82042,-27.82229 -2.25018,-28.19882 -0.20574,-0.18028 -5.22564,0.65149 -11.15533,1.84836 -5.92969,1.19687 -16.6409,3.02786 -23.80269,4.06887 -7.1618,1.04101 -13.12603,2.00967 -13.25386,2.15255 -0.12783,0.14289 0.95987,2.70773 2.4171,5.69963 2.27484,4.67054 12.92417,30.49612 15.85073,38.43945 l 0.9687,2.62927 8.20689,-4.40923 c 4.51379,-2.42508 11.63303,-6.4796 15.82055,-9.01004 z m 409.22439,-14.71229 c -1.11888,-9.76894 -1.93167,-13.71166 -2.94202,-14.27135 -4.04833,-2.24256 -22.77996,-11.15417 -22.97409,-10.92997 -0.12471,0.14402 2.03687,5.32434 4.80349,11.51184 4.87902,10.91179 5.29134,11.49392 13.71491,19.36329 4.77655,4.46232 8.74293,8.04825 8.81417,7.96875 0.0713,-0.0795 -0.56617,-6.21865 -1.41646,-13.64256 z M 225,308.90625 c 0,-0.25781 -0.21094,-0.46875 -0.46875,-0.46875 -0.25781,0 -0.46875,0.21094 -0.46875,0.46875 0,0.25781 0.21094,0.46875 0.46875,0.46875 0.25781,0 0.46875,-0.21094 0.46875,-0.46875 z m 469.11269,-8.67188 c 18.40422,-27.2164 36.74185,-48.76966 56.12764,-65.97004 3.99936,-3.5485 7.12399,-6.45183 6.94364,-6.45183 -0.18037,0 -2.81977,0.86081 -5.86533,1.91292 -21.00903,7.2577 -55.1034,13.07759 -85.39523,14.57695 -12.43933,0.61571 -13.28497,0.77786 -13.7162,2.63002 -0.25276,1.08563 -2.36885,8.51292 -4.70242,16.50511 -3.62361,12.41042 -8.12979,29.68975 -8.12979,31.17439 0,1.18914 42.49867,14.46638 47.01269,14.68748 0.94736,0.0464 3.93231,-3.45633 7.725,-9.065 z m -466.43458,5.15625 c 0.60724,-1.16015 2.36721,-3.79687 3.91102,-5.85937 6.66312,-8.90169 13.84745,-20.11979 12.3656,-19.30845 -0.88604,0.48512 -3.78802,2.49673 -6.44885,4.47024 -2.66083,1.97352 -5.49285,4.01008 -6.29339,4.52571 -0.80053,0.51562 -2.29112,4.1106 -3.31245,7.98884 -1.02131,3.87823 -2.13676,7.78058 -2.47878,8.67188 -0.91443,2.38294 0.96703,1.97541 2.25685,-0.48885 z m -9.6789,-10.36037 9.40546,-6.24049 3.62592,-14.09787 c 1.99425,-7.75384 3.45711,-14.25888 3.25079,-14.45565 -0.20632,-0.19677 -7.32205,1.4977 -15.81274,3.76549 -8.49068,2.2678 -16.02469,4.12327 -16.74226,4.12327 -0.8814,0 -1.13666,0.68432 -0.78682,2.10937 0.2848,1.16016 0.77299,8.01563 1.08486,15.23438 0.31188,7.21875 0.77903,14.50943 1.03811,16.20151 l 0.47105,3.0765 2.53008,-1.73801 c 1.39155,-0.95592 6.76255,-4.54624 11.93555,-7.9785 z m 422.2677,-15.72822 c 2.04309,-7.95206 4.81881,-18.04422 6.16824,-22.42703 1.34945,-4.38281 2.66952,-8.85031 2.93349,-9.92777 0.47363,-1.93322 0.18563,-1.96701 -21.86621,-2.56514 -12.29041,-0.33337 -23.36357,-0.88993 -24.60705,-1.23682 l -2.26086,-0.63069 0.63285,13.25704 c 0.34805,7.29137 0.90372,15.84864 1.23479,19.01616 l 0.60195,5.75914 4.30731,1.81838 c 2.36904,1.00009 5.15108,2.21503 6.18233,2.69985 3.61464,1.69934 22.50234,9.08966 22.72922,8.89342 0.12607,-0.10905 1.90085,-6.70449 3.94394,-14.65655 z m -63.15969,1.24484 c -1.72379,-3.99609 -3.6317,-8.32031 -4.23982,-9.60937 -0.71388,-1.51326 -4.11944,-3.93895 -9.61085,-6.84558 l -8.50518,-4.50182 2.56175,3.09557 c 2.85028,3.44423 22.41637,25.04753 22.72945,25.09602 0.10935,0.017 -1.21155,-3.23872 -2.93535,-7.23481 z m -330.39549,-5.86614 c 2.40239,-1.80096 5.03925,-4.54011 5.85969,-6.08698 0.82043,-1.54688 3.58039,-6.17288 6.13326,-10.28001 2.55286,-4.10712 4.52716,-7.5819 4.38734,-7.72172 -0.3991,-0.3991 -23.46246,7.37117 -24.39074,8.21748 -0.70507,0.64282 -7.11199,24.37965 -7.13194,26.42293 -0.007,0.64259 3.06004,-1.49411 15.14239,-10.5517 z m 352.98536,-0.31258 c -0.30676,-2.23813 -0.8481,-10.21391 -1.20294,-17.72393 l -0.64519,-13.65461 -9.47135,-1.13899 c -5.20925,-0.62646 -12.95183,-1.63763 -17.20574,-2.24705 -4.2539,-0.60943 -7.73437,-0.81515 -7.73437,-0.45715 0,1.57471 9.57639,25.8079 10.59108,26.80085 1.55267,1.51943 23.32024,12.38577 24.92697,12.44352 0.99707,0.0358 1.16956,-0.89988 0.74154,-4.02264 z m -437.23304,-1.58949 c 12.00725,-1.7628 29.93497,-5.04008 33.68234,-6.15731 1.81482,-0.54106 1.84549,7.1e-4 -1.2684,-22.4026 -1.00336,-7.21875 -2.50666,-16.73193 -3.34067,-21.1404 l -1.51639,-8.0154 -16.0261,-3.08944 c -30.85568,-5.94821 -62.1453,-15.75506 -81.425518,-25.52052 l -3.975562,-2.01363 1.866817,2.23345 c 1.026749,1.22839 3.574358,4.13188 5.661355,6.45219 14.794288,16.44823 37.331028,51.50063 48.974258,76.17187 1.39922,2.96485 2.96951,5.38834 3.48955,5.38555 0.52004,-0.003 6.76528,-0.85949 13.87832,-1.90376 z m 56.38733,-11.70988 c 8.73544,-2.33216 16.09444,-4.45209 16.3533,-4.71095 0.58919,-0.5892 6.60903,-32.05423 6.64436,-34.72938 0.0246,-1.85671 -0.60808,-1.9994 -11.44867,-2.5823 -6.31106,-0.33933 -17.11626,-1.27084 -24.01155,-2.07002 -6.89531,-0.79916 -12.7079,-1.28205 -12.91687,-1.07308 -0.20898,0.20898 0.22352,3.2905 0.9611,6.84783 0.73758,3.55733 2.2444,13.21787 3.34849,21.46787 2.84831,21.28296 2.81194,21.09393 4.05781,21.09204 0.62117,-9.3e-4 8.27658,-1.90983 17.01203,-4.24201 z m 45.86226,-0.67394 c 2.64969,-2.18909 5.27534,-4.40393 5.8348,-4.92187 3.00032,-2.77771 12.96107,-11.34581 13.84159,-11.90637 0.56343,-0.35868 0.8257,-0.83442 0.58282,-1.05718 -0.24288,-0.22277 -4.27412,1.04923 -8.9583,2.82665 -7.85821,2.98181 -8.67177,3.53471 -10.52219,7.15093 -1.10302,2.15559 -3.11412,5.71222 -4.46912,7.90363 -1.355,2.1914 -2.16293,3.98437 -1.79542,3.98437 0.36752,0 2.83614,-1.79107 5.48582,-3.98016 z m 303.53041,-0.47297 c -0.95072,-2.44921 -3.12769,-8.25 -4.83772,-12.89062 -1.71004,-4.64063 -3.16758,-8.53453 -3.239,-8.65313 -0.0714,-0.1186 -6.07538,-1.38823 -13.34215,-2.8214 -12.82432,-2.52925 -13.18305,-2.55045 -12.21589,-0.72187 1.81688,3.43512 12.01557,15.4298 15.15637,17.82539 2.52669,1.9272 19.21159,11.7051 19.98629,11.71262 0.12138,9.4e-4 -0.55718,-2.00177 -1.5079,-4.45099 z m -316.05793,-8.77961 c 6.44607,-2.12176 12.63522,-4.75848 13.75367,-5.85937 1.63493,-1.60929 13.43521,-23.21455 13.43521,-24.59868 0,-0.20444 -7.69922,-0.37153 -17.10938,-0.37132 l -17.10937,4.1e-4 -2.63132,14.76522 c -1.44723,8.12088 -2.8675,15.92539 -3.15617,17.34335 -0.28866,1.41797 -0.15988,2.57813 0.28619,2.57813 0.44608,0 6.0851,-1.73598 12.53117,-3.85774 z m 284.81851,-8.71122 c -2.21974,-2.78794 -4.99255,-6.32359 -6.16182,-7.85701 -1.78147,-2.3363 -3.52839,-3.12339 -10.78125,-4.85766 -4.76042,-1.1383 -9.28812,-2.28678 -10.06156,-2.5522 -0.77344,-0.26541 3.91126,3.04142 10.41044,7.34851 13.46184,8.92134 19.81644,12.98732 20.29748,12.98732 0.18292,0 -1.48355,-2.28103 -3.70329,-5.06896 z m -244.97338,-6.61127 c 3.10018,-2.07386 17.71987,-16.38115 17.23465,-16.86636 -0.24776,-0.24777 -6.17395,-0.19177 -13.16931,0.12442 l -12.71884,0.57491 -6.22013,12.07805 c -3.42106,6.64293 -6.22012,12.24394 -6.22012,12.44669 0,0.57418 18.98844,-6.94938 21.09375,-8.35771 z m -5.15625,5.58648 c 0,-0.25781 -0.21094,-0.46875 -0.46875,-0.46875 -0.25781,0 -0.46875,0.21094 -0.46875,0.46875 0,0.25781 0.21094,0.46875 0.46875,0.46875 0.25781,0 0.46875,-0.21094 0.46875,-0.46875 z m 366.53291,-5.85938 c 8.95493,-27.00458 28.07901,-65.72059 42.34055,-85.71691 l 4.46739,-6.2638 -4.3819,2.98255 c -19.32998,13.15696 -45.75008,25.53039 -75.76625,35.48394 l -17.90105,5.9361 -0.61457,6.93832 c -0.33802,3.81608 -0.61458,15.49726 -0.61458,25.95818 l 0,19.01986 3.98437,0.53261 c 6.05809,0.8098 12.77405,1.09398 30.34224,1.28386 l 16.04535,0.17342 2.09845,-6.32813 z m -55.27624,-15 c 0.004,-10.69921 0.27342,-22.27741 0.59946,-25.72934 l 0.59281,-6.27621 -5.9901,1.7696 c -4.7446,1.40165 -27.42214,6.50388 -39.97447,8.99387 -2.45471,0.48693 -2.58679,1.65824 -0.80597,7.14682 0.71686,2.20942 3.0657,9.57367 5.21963,16.365 l 3.91624,12.34787 6.26474,1.01392 c 7.70572,1.24716 25.19512,3.55979 28.06162,3.71061 L 598.125,240 l 0.007,-19.45313 z m -39.88244,12.1875 c -1.1097,-2.59573 -8.07656,-24.68059 -9.10596,-28.86576 l -0.93162,-3.78764 -10.90271,1.66725 c -5.99648,0.91699 -13.9782,1.98861 -17.73715,2.38139 l -6.83446,0.71414 3.36354,4.6875 c 1.84994,2.57812 5.8097,8.08519 8.79947,12.23792 l 5.43595,7.55042 12.09748,2.45793 c 15.02878,3.05353 16.75648,3.15805 15.81546,0.95685 z m -239.83242,-8.76645 c 8.5011,-4.17701 15.27777,-7.77334 15.05927,-7.99184 -0.2185,-0.2185 -4.45677,0.10161 -9.41838,0.71136 l -9.02111,1.10863 -6.88321,6.88321 c -3.78577,3.78578 -6.50294,6.88322 -6.03815,6.88322 0.46477,0 7.80049,-3.41756 16.30158,-7.59458 z m 203.348,-2.0148 c -2.3068,-3.22265 -4.53877,-6.28125 -4.95993,-6.79687 -0.42115,-0.51563 -2.01906,-2.94223 -3.55093,-5.39245 l -2.7852,-4.45495 -9.84375,0.5077 c -5.41406,0.27923 -11.65477,0.73049 -13.86823,1.00278 l -4.02448,0.49509 5.62831,4.38966 c 12.35908,9.63915 13.47733,10.2515 23.98315,13.1329 14.53231,3.98572 14.37323,4.03442 9.42106,-2.88386 z M 493.125,218.90625 c 0,-0.25781 -0.21094,-0.46875 -0.46875,-0.46875 -0.25781,0 -0.46875,0.21094 -0.46875,0.46875 0,0.25781 0.21094,0.46875 0.46875,0.46875 0.25781,0 0.46875,-0.21094 0.46875,-0.46875 z m -5.15625,-3.78636 c -9.07491,-7.85817 -9.52058,-8.0283 -20.25611,-7.7323 l -9.74389,0.26866 15.46875,5.31661 c 8.50781,2.92414 16.10156,5.33408 16.875,5.35543 0.77344,0.0214 -0.28125,-1.42243 -2.34375,-3.2084 z m -202.85702,-5.82302 c 5.27049,-11.1435 11.13827,-24.53386 11.13827,-25.41771 0,-0.39834 -2.42578,-1.47801 -5.39063,-2.39927 -7.25832,-2.25538 -21.43226,-7.41952 -31.20716,-11.37006 -4.40223,-1.77916 -8.25439,-3.23483 -8.56039,-3.23483 -0.30599,0 -0.84545,4.11328 -1.1988,9.14062 -0.70261,9.99632 -2.966,31.84339 -3.91181,37.75815 l -0.59585,3.72623 17.92329,0 17.92328,0 3.8798,-8.20313 z m -41.44481,-0.46875 c 1.44905,-10.69338 2.6688,-22.85888 3.42921,-34.20227 0.5939,-8.85932 0.50847,-9.64073 -1.11715,-10.21825 -6.12713,-2.17675 -32.42143,-15.54252 -43.69275,-22.20965 -13.34323,-7.89269 -31.27807,-20.43307 -40.98255,-28.65575 l -5.10257,-4.32345 3.02168,5.32014 c 9.82877,17.30515 20.40886,46.34068 28.63351,78.5805 l 4.90142,19.21314 5.10552,0.74335 c 9.64398,1.40414 30.42467,3.27261 37.5868,3.37957 l 7.16879,0.10705 1.04809,-7.73438 z m 70.39558,5.16681 c 1.28906,-0.84161 3.03363,-2.40118 3.87681,-3.46569 0.84317,-1.06452 2.95255,-3.4569 4.6875,-5.31642 1.73494,-1.8595 4.93417,-5.30106 7.10941,-7.64791 l 3.95495,-4.26701 -4.89245,-1.126 c -2.69086,-0.6193 -10.28481,-2.61353 -16.87545,-4.4316 -6.59064,-1.81807 -12.13615,-3.14325 -12.32337,-2.94482 -0.18722,0.19842 -3.16152,6.68889 -6.60956,14.42327 -3.44805,7.73437 -6.65644,14.46328 -7.12976,14.95312 -2.25346,2.33214 -0.3202,2.64329 12.49879,2.0116 9.90827,-0.48826 13.96484,-1.05362 15.70313,-2.18854 z m 19.21875,-1.23537 c 7.36659,-0.86146 9.5679,-1.59049 17.34375,-5.74395 14.46359,-7.72572 14.48821,-7.31905 -0.62824,-10.37765 l -12.96551,-2.62339 -8.23012,8.69584 c -4.52656,4.78272 -8.66772,9.45847 -9.20256,10.39057 -0.87428,1.52363 -0.6586,1.64175 2.13636,1.16999 1.70985,-0.2886 6.90569,-0.96874 11.54632,-1.51141 z m 29.83876,-4.63466 c 5.76055,-1.03131 13.6177,-2.61887 17.46032,-3.52793 l 6.98658,-1.65282 -10.13612,-1.43154 -10.13613,-1.43156 -4.51925,2.85011 c -2.48558,1.56754 -6.13079,3.78063 -8.10046,4.91796 -4.44048,2.56405 -4.35255,2.56691 8.44506,0.27578 z m 77.42687,-4.11117 c -0.21485,-0.1987 -3.76563,-1.73554 -7.89063,-3.41521 -4.125,-1.67968 -7.84643,-3.3612 -8.26987,-3.73672 -0.42342,-0.37553 -3.91995,0.31757 -7.77008,1.54021 -3.85013,1.22265 -7.82791,2.22299 -8.83952,2.22299 -1.0116,0 -1.83928,0.3794 -1.83928,0.8431 0,0.46371 5.37891,1.12638 11.95312,1.47261 6.57422,0.34623 12.375,0.77728 12.89063,0.95789 1.29895,0.45498 10.24716,0.56048 9.76563,0.11513 z m 32.82523,-0.34186 c -0.0545,-0.58578 -9.94334,-9.0834 -18.01168,-15.47762 -2.01425,-1.59631 -2.45932,-1.5244 -13.79903,2.22952 -6.44471,2.13348 -12.05421,4.18263 -12.46557,4.55368 -0.41135,0.37105 3.8074,2.59013 9.375,4.93129 l 10.12292,4.25664 12.42187,0.10482 c 6.83204,0.0577 12.39245,-0.21161 12.35649,-0.59832 z m 28.95401,-0.807 c 5.85507,-0.5213 5.9041,-0.54927 4.47755,-2.55535 -2.44786,-3.44229 -16.11058,-26.41828 -16.73547,-28.14329 -0.15989,-0.44139 -2.17424,0.0688 -4.47633,1.13369 -2.30209,1.06493 -9.81446,4.21477 -16.69416,6.99966 l -12.50854,5.06344 8.2218,6.92787 c 4.52198,3.81032 9.51801,8.09579 11.10228,9.52324 2.82457,2.54501 3.05342,2.58552 11.78675,2.08661 4.89844,-0.27985 11.57019,-0.74598 14.82612,-1.03587 z m 29.98039,-3.31204 c 13.07183,-1.7543 15.19272,-2.26433 14.70307,-3.53579 -1.07581,-2.79358 -6.25366,-24.90884 -8.4335,-36.02063 -1.19735,-6.10354 -2.39929,-11.31963 -2.67098,-11.59131 -0.27168,-0.27169 -1.88726,0.3543 -3.59016,1.39107 -6.67244,4.06237 -29.23849,15.64514 -37.08057,19.03282 -1.67578,0.72392 -3.02268,1.52964 -2.99312,1.79049 0.1025,0.90443 9.74194,17.33576 15.22097,25.94555 3.4029,5.34736 3.90277,5.75563 6.62482,5.41079 1.61932,-0.20515 9.81808,-1.29549 18.21947,-2.42299 z m -127.04729,-0.868 c 4.24024,-1.06709 9.1376,-2.38424 10.88303,-2.92699 l 3.1735,-0.98683 -12.07975,-5.95979 c -6.64386,-3.27789 -12.37594,-5.96855 -12.73796,-5.97926 -0.36201,-0.0107 -3.40162,1.89832 -6.75468,4.24227 -3.35305,2.34396 -8.51642,5.71896 -11.47414,7.5 -2.95771,1.78105 -4.76968,3.26996 -4.02657,3.30869 0.7431,0.0387 4.7261,0.62108 8.8511,1.2941 10.8928,1.77724 15.52224,1.68295 24.16547,-0.49219 z m -33.06315,-4.62738 c 7.64858,-4.50977 18.74143,-12.17631 18.74143,-12.95266 0,-0.3922 -2.42578,-1.93179 -5.39063,-3.42131 -2.96484,-1.48951 -9.54314,-5.16359 -14.61846,-8.1646 -5.07532,-3.00101 -9.505,-5.43439 -9.84375,-5.40751 -0.86718,0.0688 -20.99529,25.86189 -20.92995,26.82058 0.0475,0.69745 21.57587,5.6026 25.66341,5.8473 0.87965,0.0527 3.74973,-1.17215 6.37795,-2.7218 z m 191.62028,0.35087 c 3.55993,-0.72508 12.76392,-2.82905 20.4533,-4.6755 11.73734,-2.8185 14.1087,-3.68067 14.77844,-5.37313 0.43877,-1.10877 1.26935,-6.8675 1.84574,-12.79719 2.8231,-29.04282 10.77196,-64.58498 19.32546,-86.410852 l 2.2372,-5.708662 -13.33762,13.027576 c -14.01374,13.687978 -21.61892,20.166788 -36.30637,30.929178 -8.83237,6.47201 -24.84557,17.19788 -30.70313,20.56538 -1.67578,0.96341 -3.04621,2.18803 -3.04542,2.72139 0.006,3.98399 9.57547,47.26066 10.94875,49.51413 0.46082,0.7562 2.75091,0.45885 13.80365,-1.79232 z m -125.9456,-5.55384 c 7.18671,-2.34878 13.06675,-4.44948 13.06675,-4.6682 0,-0.21871 -1.79297,-2.0505 -3.98438,-4.07062 -2.1914,-2.02014 -7.91519,-7.5261 -12.71952,-12.23548 l -8.73513,-8.56252 -3.92112,3.06389 c -2.1566,1.68514 -6.07505,4.79914 -8.70766,6.91999 -2.63261,2.12085 -7.18536,5.44834 -10.11724,7.39441 -2.93188,1.94606 -5.12292,3.74609 -4.86896,4.00004 1.01349,1.01348 24.54227,12.36764 25.69038,12.39727 0.67657,0.0174 7.11016,-1.88999 14.29688,-4.23878 z m -100.33237,-0.18261 c 5.28673,-6.22841 20.57997,-25.82201 20.55087,-26.32964 -0.0197,-0.34291 -5.18763,-3.99848 -11.48437,-8.12348 -6.29675,-4.125 -15.22197,-10.35009 -19.83385,-13.83353 -4.61187,-3.48345 -8.66468,-6.0147 -9.00624,-5.625 -0.34157,0.38969 -1.91616,4.71634 -3.49908,9.61478 -3.72935,11.54071 -7.53514,22.47575 -8.64651,24.84375 -1.03304,2.20112 -4.6817,11.64052 -4.6817,12.11199 0,0.26807 13.73466,4.14878 28.125,7.94667 5.01851,1.32449 6.9551,1.18613 8.47588,-0.60554 z m 135.56552,-12.94916 15.13515,-6.28419 -3.68717,-6.67239 c -3.2888,-5.95147 -15.91429,-31.52965 -18.19771,-36.86701 -0.85064,-1.98833 -1.10639,-1.86163 -6.51042,3.22522 -3.09375,2.91217 -11.10938,10.13167 -17.8125,16.04333 -6.70313,5.91166 -12.60845,11.12501 -13.12294,11.58522 -0.58998,0.52773 3.73789,5.49706 11.71875,13.45568 10.68337,10.65362 13.01921,12.55504 14.99794,12.20864 1.28906,-0.22566 9.15457,-3.23819 17.4789,-6.6945 z m -173.58121,0.76166 c 0.90884,-2.44921 2.21016,-5.71875 2.89181,-7.26562 C 304.70048,164.03126 315,133.60059 315,132.03401 c 0,-0.40984 -3.26721,-3.32134 -7.26046,-6.46998 -20.59103,-16.23582 -48.74374,-45.450851 -62.24019,-64.58881 -2.18353,-3.096237 -4.1103,-5.489265 -4.28173,-5.31784 -0.17143,0.171426 0.52421,3.855362 1.54585,8.186527 5.16633,21.902157 7.61543,45.065493 8.00876,75.745733 l 0.30522,23.8084 6.20761,2.64816 c 3.41419,1.4565 7.98817,3.28272 10.1644,4.05826 2.17623,0.77555 9.86304,3.50703 17.08179,6.06995 7.21875,2.56293 13.17315,4.68309 13.23201,4.71148 0.0589,0.0284 0.8506,-1.9523 1.75943,-4.40151 z m 99.68653,-0.46875 c 2.39772,-1.67578 4.84078,-3.46875 5.42902,-3.98437 0.58823,-0.51563 2.01665,-1.57031 3.17426,-2.34375 1.15761,-0.77344 2.58039,-1.84129 3.16175,-2.373 0.58135,-0.53172 3.72556,-3.00666 6.98712,-5.49986 l 5.93013,-4.53311 -2.64888,-2.86908 c -1.45688,-1.578 -3.9145,-4.19249 -5.46137,-5.80997 -1.54688,-1.61749 -4.71094,-5.19861 -7.03125,-7.95805 -2.32031,-2.75943 -4.64933,-5.47471 -5.1756,-6.03392 -0.52627,-0.55922 -2.63564,-3.12445 -4.6875,-5.7005 -5.80751,-7.29119 -8.87783,-10.42938 -8.88256,-9.07893 -0.003,0.68054 -1.21912,3.00296 -2.70384,5.16094 -1.48473,2.15797 -3.63693,5.60899 -4.78266,7.66891 -1.14574,2.05993 -3.31732,5.43282 -4.82576,7.49532 -1.50843,2.0625 -5.4577,7.65292 -8.77615,12.42316 -6.01169,8.64174 -6.02603,8.67787 -3.95911,9.97477 7.00557,4.39569 10.46863,6.39449 18.01193,10.39609 4.64062,2.46178 8.83828,4.84412 9.32812,5.29409 1.40768,1.29311 2.27203,1.01441 6.91235,-2.22874 z m 104.57791,-14.22855 c 6.76864,-3.31398 16.52537,-8.32965 21.68162,-11.14593 l 9.375,-5.12052 -0.0552,-3.61968 c -0.0304,-1.99083 -0.77143,-9.315 -1.64675,-16.27594 -2.15389,-17.12878 -3.44922,-35.634678 -3.45196,-49.316984 -0.002,-11.074793 1.36626,-32.715413 2.42445,-38.339266 0.33394,-1.774798 -1.41652,0.596619 -4.74434,6.427292 -13.03252,22.83437 -28.37118,43.256278 -51.04526,67.961688 -4.42385,4.82019 -8.16716,9.09387 -8.31844,9.49707 -0.51975,1.3852 13.16514,29.80604 20.43625,42.44207 1.11264,1.9336 2.25138,3.51563 2.53053,3.51563 0.27915,0 6.04552,-2.71144 12.81416,-6.02543 z M 367.32317,149.9336 c 3.29299,-4.86192 6.89475,-10.03705 8.00391,-11.50028 1.10917,-1.46324 3.01574,-4.41636 4.23682,-6.5625 1.22107,-2.14614 2.96466,-4.95676 3.8746,-6.24582 0.90996,-1.28906 2.53184,-3.91053 3.60417,-5.82548 l 1.94971,-3.48172 -5.59186,-7.54175 C 365.17356,84.19335 345.8458,50.577447 338.11935,30.020539 l -2.28266,-6.073211 -0.61848,11.229461 c -1.69937,30.854866 -7.09675,62.449802 -16.01188,93.729461 -0.43141,1.51364 1.05405,3.07461 7.70776,8.09954 11.75343,8.8763 32.33965,22.46171 33.46711,22.0859 0.5251,-0.17504 3.64899,-4.29618 6.94197,-9.15809 z m 64.81591,0.41073 c 1.83132,-1.6153 6.91561,-6.08826 11.29842,-9.9399 12.75173,-11.20629 20.84106,-19.43713 20.31324,-20.66859 -13.43156,-31.338263 -22.96442,-62.976048 -27.1687,-90.167773 l -2.06631,-13.36416 -1.72492,7.094396 C 430.41248,33.080066 422.06123,57.149217 417.45419,67.5 c -4.08913,9.187165 -16.58841,34.18478 -20.3542,40.7069 -2.35812,4.0841 -4.28749,7.80529 -4.28749,8.2693 0,1.2497 13.33523,17.23863 26.57543,31.86392 7.19838,7.95141 6.18856,7.7927 12.75115,2.00421 z M 335.625,22.03125 c 0,-0.257813 -0.21094,-0.46875 -0.46875,-0.46875 -0.25781,0 -0.46875,0.210937 -0.46875,0.46875 0,0.257812 0.21094,0.46875 0.46875,0.46875 0.25781,0 0.46875,-0.210938 0.46875,-0.46875 z"
     id="path3448"
     inkscape:connector-curvature="0" />
</svg>
