<svg xmlns="http://www.w3.org/2000/svg" xmlns:xlink="http://www.w3.org/1999/xlink" version="1.1" x="0px" y="0px" viewBox="0 0 128 128" enable-background="new 0 0 128 128" xml:space="preserve"><g><path d="M57.3,77.2c-2.2,0.4-3.9,1.3-5,2.9c-1.8,2.6-1.2,5.9-1.2,6c0.1,0.4,0.4,0.6,0.7,0.6c0,0,0.1,0,0.1,0   c0.4-0.1,0.7-0.5,0.6-0.9c0,0-0.5-2.8,0.9-4.8c0.8-1.2,2.2-2,4-2.3c0.4-0.1,0.7-0.5,0.6-0.9C58.1,77.4,57.7,77.1,57.3,77.2z"></path><path d="M68.2,77.2c-0.4-0.1-0.8,0.2-0.9,0.6c-0.1,0.4,0.2,0.8,0.6,0.9c1.8,0.3,3.1,1.1,4,2.2c1.4,2.1,0.9,4.8,0.9,4.9   c-0.1,0.4,0.2,0.8,0.6,0.9c0,0,0.1,0,0.1,0c0.4,0,0.7-0.2,0.7-0.6c0-0.1,0.6-3.4-1.2-6C72.1,78.6,70.4,77.6,68.2,77.2z"></path><path d="M113.6,4.9c0.1,0.1,0.3,0.2,0.5,0.2c0.2,0,0.4-0.1,0.5-0.2c0.3-0.3,0.3-0.8,0-1.1l-1.4-1.4c-0.3-0.3-0.8-0.3-1.1,0   c-0.3,0.3-0.3,0.8,0,1.1L113.6,4.9z"></path><path d="M118.2,9.6c0.1,0.1,0.3,0.2,0.5,0.2c0.2,0,0.4-0.1,0.5-0.2c0.3-0.3,0.3-0.8,0-1.1l-1.4-1.4c-0.3-0.3-0.8-0.3-1.1,0   c-0.3,0.3-0.3,0.8,0,1.1L118.2,9.6z"></path><path d="M112.7,9.8c0.2,0,0.4-0.1,0.5-0.2l1.4-1.4c0.3-0.3,0.3-0.8,0-1.1c-0.3-0.3-0.8-0.3-1.1,0l-1.4,1.4c-0.3,0.3-0.3,0.8,0,1.1   C112.3,9.7,112.5,9.8,112.7,9.8z"></path><path d="M117.3,5.1c0.2,0,0.4-0.1,0.5-0.2l1.4-1.4c0.3-0.3,0.3-0.8,0-1.1c-0.3-0.3-0.8-0.3-1.1,0l-1.4,1.4c-0.3,0.3-0.3,0.8,0,1.1   C117,5.1,117.1,5.1,117.3,5.1z"></path><path d="M54.9,118.4c-0.3-0.3-0.8-0.3-1.1,0c-0.3,0.3-0.3,0.8,0,1.1l1.4,1.4c0.1,0.1,0.3,0.2,0.5,0.2c0.2,0,0.4-0.1,0.5-0.2   c0.3-0.3,0.3-0.8,0-1.1L54.9,118.4z"></path><path d="M59.5,123.1c-0.3-0.3-0.8-0.3-1.1,0c-0.3,0.3-0.3,0.8,0,1.1l1.4,1.4c0.1,0.1,0.3,0.2,0.5,0.2c0.2,0,0.4-0.1,0.5-0.2   c0.3-0.3,0.3-0.8,0-1.1L59.5,123.1z"></path><path d="M55.3,123.1l-1.4,1.4c-0.3,0.3-0.3,0.8,0,1.1c0.1,0.1,0.3,0.2,0.5,0.2c0.2,0,0.4-0.1,0.5-0.2l1.4-1.4   c0.3-0.3,0.3-0.8,0-1.1C56,122.8,55.6,122.8,55.3,123.1z"></path><path d="M59.9,118.4l-1.4,1.4c-0.3,0.3-0.3,0.8,0,1.1c0.1,0.1,0.3,0.2,0.5,0.2c0.2,0,0.4-0.1,0.5-0.2l1.4-1.4   c0.3-0.3,0.3-0.8,0-1.1C60.7,118.1,60.2,118.1,59.9,118.4z"></path><path d="M1.3,51.1c-0.4,0-0.8,0.3-0.8,0.8v10.6c0,0.4,0.3,0.8,0.8,0.8S2,62.8,2,62.4V51.8C2,51.4,1.7,51.1,1.3,51.1z"></path><path d="M1.3,66.6c-0.4,0-0.8,0.3-0.8,0.8v3.8c0,0.4,0.3,0.8,0.8,0.8S2,71.6,2,71.1v-3.8C2,66.9,1.7,66.6,1.3,66.6z"></path><path d="M126.6,77c0.4,0,0.8-0.3,0.8-0.8V65.7c0-0.4-0.3-0.8-0.8-0.8c-0.4,0-0.8,0.3-0.8,0.8v10.6C125.9,76.7,126.2,77,126.6,77z"></path><path d="M126.6,85.8c0.4,0,0.8-0.3,0.8-0.8v-3.8c0-0.4-0.3-0.8-0.8-0.8c-0.4,0-0.8,0.3-0.8,0.8V85   C125.9,85.4,126.2,85.8,126.6,85.8z"></path><path d="M65.7,13.9c1.8,0,3.2-1.4,3.2-3.2c0-1.8-1.4-3.2-3.2-3.2c-1.8,0-3.2,1.4-3.2,3.2C62.5,12.4,64,13.9,65.7,13.9z M65.7,8.9   c0.9,0,1.7,0.8,1.7,1.7c0,0.9-0.8,1.7-1.7,1.7c-0.9,0-1.7-0.8-1.7-1.7C64,9.7,64.8,8.9,65.7,8.9z"></path><path d="M5.6,111.8c-1.8,0-3.2,1.4-3.2,3.2c0,1.8,1.4,3.2,3.2,3.2s3.2-1.4,3.2-3.2C8.8,113.3,7.4,111.8,5.6,111.8z M5.6,116.7   c-0.9,0-1.7-0.8-1.7-1.7c0-0.9,0.8-1.7,1.7-1.7c0.9,0,1.7,0.8,1.7,1.7C7.3,116,6.6,116.7,5.6,116.7z"></path><path d="M11.6,8.4c0,0.4,0.3,0.8,0.8,0.8h13.8c0.4,0,0.8-0.3,0.8-0.8s-0.3-0.8-0.8-0.8H12.4C12,7.6,11.6,7.9,11.6,8.4z"></path><path d="M3.4,9.1h4.5c0.4,0,0.8-0.3,0.8-0.8S8.3,7.6,7.8,7.6H3.4C3,7.6,2.6,7.9,2.6,8.4S3,9.1,3.4,9.1z"></path><path d="M3.4,4.4H13c0.4,0,0.8-0.3,0.8-0.8S13.4,2.9,13,2.9H3.4C3,2.9,2.6,3.2,2.6,3.6S3,4.4,3.4,4.4z"></path><path d="M17.2,4.4h3.1C20.7,4.4,21,4,21,3.6s-0.3-0.8-0.8-0.8h-3.1c-0.4,0-0.8,0.3-0.8,0.8S16.7,4.4,17.2,4.4z"></path><path d="M118.5,119.4c0-0.4-0.3-0.8-0.8-0.8h-13.8c-0.4,0-0.8,0.3-0.8,0.8c0,0.4,0.3,0.8,0.8,0.8h13.8   C118.2,120.1,118.5,119.8,118.5,119.4z"></path><path d="M126.7,118.6h-4.5c-0.4,0-0.8,0.3-0.8,0.8c0,0.4,0.3,0.8,0.8,0.8h4.5c0.4,0,0.8-0.3,0.8-0.8   C127.5,119,127.2,118.6,126.7,118.6z"></path><path d="M126.7,123.4h-9.6c-0.4,0-0.8,0.3-0.8,0.8c0,0.4,0.3,0.8,0.8,0.8h9.6c0.4,0,0.8-0.3,0.8-0.8   C127.5,123.7,127.2,123.4,126.7,123.4z"></path><path d="M113,123.4h-3.1c-0.4,0-0.8,0.3-0.8,0.8c0,0.4,0.3,0.8,0.8,0.8h3.1c0.4,0,0.8-0.3,0.8-0.8   C113.7,123.7,113.4,123.4,113,123.4z"></path><path d="M104.6,109.4c0-1.9-1.4-3.5-3.1-3.8l-0.1-8.7c0-0.2-0.1-0.4-0.2-0.5l-8.3-8.3c-0.1-0.1-0.3-0.2-0.5-0.2H78.8   c2.1-2.2,3.9-4.9,5.2-8h10.6l11.5,11.5c0.1,0.1,0.3,0.2,0.5,0.2h8.5c0.4,1.8,1.9,3.1,3.8,3.1c2.1,0,3.9-1.7,3.9-3.9   c0-2.1-1.7-3.9-3.9-3.9c-1.9,0-3.5,1.4-3.8,3.1h-8.2L95.4,78.5c-0.1-0.1-0.3-0.2-0.5-0.2H84.6c0.9-2.4,1.4-5.2,1.5-8.1H99l8.3,8.3   c-0.3,0.6-0.5,1.2-0.5,1.9c0,2.1,1.7,3.9,3.9,3.9c2.1,0,3.9-1.7,3.9-3.9c0-2.1-1.7-3.9-3.9-3.9c-0.9,0-1.7,0.3-2.4,0.9l-8.4-8.4   c-0.1-0.1-0.3-0.2-0.5-0.2H86.2c0-2.7-0.3-5.3-0.8-7.9h13.9c0.2,0,0.4-0.1,0.5-0.2l8.4-8.4c0.7,0.5,1.5,0.9,2.4,0.9   c2.1,0,3.9-1.7,3.9-3.9c0-2.1-1.7-3.9-3.9-3.9c-2.1,0-3.9,1.7-3.9,3.9c0,0.7,0.2,1.3,0.5,1.9L99,59.3H85.1   c-0.6-2.8-1.6-5.5-2.8-8.1h12.6c0.2,0,0.4-0.1,0.5-0.2l11.5-11.5h8.2c0.4,1.8,1.9,3.1,3.8,3.1c2.1,0,3.9-1.7,3.9-3.9   c0-2.1-1.7-3.9-3.9-3.9c-1.9,0-3.5,1.4-3.8,3.1h-8.5c-0.2,0-0.4,0.1-0.5,0.2L94.6,49.6h-13c-1.5-2.8-3.3-5.5-5.4-8h16.1   c0.2,0,0.4-0.1,0.5-0.2l8.3-8.3c0.1-0.1,0.2-0.3,0.2-0.5l0.1-8.7c1.8-0.4,3.1-1.9,3.1-3.8c0-2.1-1.7-3.9-3.9-3.9   c-2.1,0-3.9,1.7-3.9,3.9c0,1.9,1.3,3.5,3.1,3.8l-0.1,8.4L92,40.1H74.8c-1.1-1.2-2.3-2.4-3.5-3.5c-0.4-0.4-0.8-0.7-1.2-1   c-0.8-0.5-1.8-0.8-2.8-0.8c-1.9,0-3.6,1-4.6,2.5c-1-1.5-2.6-2.5-4.6-2.5c-1,0-1.9,0.3-2.8,0.8l0,0c0,0,0,0,0,0c0,0,0,0,0,0   c0,0,0,0,0,0c-0.4,0.3-0.8,0.6-1.1,0.9c0,0,0,0,0,0c-1.3,1.1-2.4,2.3-3.5,3.5H33.5l-7.8-7.8l-0.1-8.4c1.8-0.4,3.1-1.9,3.1-3.8   c0-2.1-1.7-3.9-3.9-3.9c-2.1,0-3.9,1.7-3.9,3.9c0,1.9,1.4,3.5,3.1,3.8l0.1,8.7c0,0.2,0.1,0.4,0.2,0.5l8.3,8.3   c0.1,0.1,0.3,0.2,0.5,0.2h16.1c-2.1,2.6-3.9,5.2-5.4,8h-13L19.4,38.1c-0.1-0.1-0.3-0.2-0.5-0.2h-8.5c-0.4-1.8-1.9-3.1-3.8-3.1   c-2.1,0-3.9,1.7-3.9,3.9c0,2.1,1.7,3.9,3.9,3.9c1.9,0,3.5-1.4,3.8-3.1h8.2L30,50.9c0.1,0.1,0.3,0.2,0.5,0.2h12.6   c-1.2,2.6-2.2,5.3-2.8,8.1H26.4L18.2,51c0.3-0.6,0.5-1.2,0.5-1.9c0-2.1-1.7-3.9-3.9-3.9c-2.1,0-3.9,1.7-3.9,3.9   c0,2.1,1.7,3.9,3.9,3.9c0.9,0,1.7-0.3,2.4-0.9l8.4,8.4c0.1,0.1,0.3,0.2,0.5,0.2h13.9c-0.5,2.6-0.7,5.2-0.8,7.9H26.1   c-0.2,0-0.4,0.1-0.5,0.2l-8.4,8.4c-0.7-0.5-1.5-0.9-2.4-0.9c-2.1,0-3.9,1.7-3.9,3.9c0,2.1,1.7,3.9,3.9,3.9c2.1,0,3.9-1.7,3.9-3.9   c0-0.7-0.2-1.3-0.5-1.9l8.3-8.3h12.9c0.1,3,0.7,5.7,1.5,8.1H30.6c-0.2,0-0.4,0.1-0.5,0.2L18.6,90h-8.2c-0.4-1.8-1.9-3.1-3.8-3.1   c-2.1,0-3.9,1.7-3.9,3.9c0,2.1,1.7,3.9,3.9,3.9c1.9,0,3.5-1.4,3.8-3.1h8.5c0.2,0,0.4-0.1,0.5-0.2l11.5-11.5h10.6   c1.3,3.2,3.1,5.8,5.2,8H33.2c-0.2,0-0.4,0.1-0.5,0.2l-8.3,8.3c-0.1,0.1-0.2,0.3-0.2,0.5l-0.1,8.7c-1.8,0.3-3.1,1.9-3.1,3.8   c0,2.1,1.7,3.9,3.9,3.9c2.1,0,3.9-1.7,3.9-3.9c0-1.9-1.3-3.5-3.1-3.8l0.1-8.4l7.8-7.8h14.7c2.4,2.2,5,3.8,7.4,4.8   c0.5,0.2,1,0.4,1.6,0.6c0.3,0.1,0.7,0.1,1,0.1c1.9,0,3.6-1,4.6-2.5c1,1.5,2.6,2.5,4.6,2.5c0.3,0,0.6,0,1.1-0.1   c0.5-0.2,1-0.3,1.5-0.5c2.5-1,5-2.6,7.4-4.8H92l7.8,7.8l0.1,8.4c-1.8,0.4-3.1,1.9-3.1,3.8c0,2.1,1.7,3.9,3.9,3.9   C102.8,113.3,104.6,111.6,104.6,109.4z M118.9,88.4c1.3,0,2.4,1.1,2.4,2.4c0,1.3-1.1,2.4-2.4,2.4c-1.3,0-2.4-1.1-2.4-2.4   C116.5,89.4,117.6,88.4,118.9,88.4z M113.1,80.3c0,1.3-1.1,2.4-2.4,2.4c-1.3,0-2.4-1.1-2.4-2.4c0-0.5,0.1-0.9,0.4-1.3   c0.1,0,0.1-0.1,0.2-0.1c0.1-0.1,0.1-0.2,0.2-0.3c0.4-0.4,1-0.7,1.7-0.7C112,77.9,113.1,79,113.1,80.3z M110.7,46.7   c1.3,0,2.4,1.1,2.4,2.4s-1.1,2.4-2.4,2.4c-0.6,0-1.2-0.3-1.7-0.7c0-0.1-0.1-0.2-0.2-0.3c0,0-0.1-0.1-0.2-0.1   c-0.2-0.4-0.4-0.8-0.4-1.3C108.3,47.8,109.4,46.7,110.7,46.7z M118.9,36.3c1.3,0,2.4,1.1,2.4,2.4c0,1.3-1.1,2.4-2.4,2.4   c-1.3,0-2.4-1.1-2.4-2.4C116.5,37.4,117.6,36.3,118.9,36.3z M98.3,20c0-1.3,1.1-2.4,2.4-2.4c1.3,0,2.4,1.1,2.4,2.4   c0,1.3-1.1,2.4-2.4,2.4C99.3,22.4,98.3,21.3,98.3,20z M22.4,20c0-1.3,1.1-2.4,2.4-2.4c1.3,0,2.4,1.1,2.4,2.4c0,1.3-1.1,2.4-2.4,2.4   C23.5,22.4,22.4,21.3,22.4,20z M6.6,41.1c-1.3,0-2.4-1.1-2.4-2.4c0-1.3,1.1-2.4,2.4-2.4c1.3,0,2.4,1.1,2.4,2.4   C9,40,7.9,41.1,6.6,41.1z M12.4,49.1c0-1.3,1.1-2.4,2.4-2.4c1.3,0,2.4,1.1,2.4,2.4c0,0.5-0.1,0.9-0.4,1.3c-0.1,0-0.1,0.1-0.2,0.1   c-0.1,0.1-0.1,0.2-0.2,0.3c-0.4,0.4-1,0.7-1.7,0.7C13.5,51.5,12.4,50.4,12.4,49.1z M14.8,82.7c-1.3,0-2.4-1.1-2.4-2.4   c0-1.3,1.1-2.4,2.4-2.4c0.6,0,1.2,0.3,1.7,0.7c0,0.1,0.1,0.2,0.2,0.3c0,0,0.1,0.1,0.2,0.1c0.2,0.4,0.4,0.8,0.4,1.3   C17.2,81.6,16.1,82.7,14.8,82.7z M6.6,93.1c-1.3,0-2.4-1.1-2.4-2.4c0-1.3,1.1-2.4,2.4-2.4c1.3,0,2.4,1.1,2.4,2.4   C9,92.1,7.9,93.1,6.6,93.1z M27.2,109.4c0,1.3-1.1,2.4-2.4,2.4c-1.3,0-2.4-1.1-2.4-2.4c0-1.3,1.1-2.4,2.4-2.4   C26.1,107,27.2,108.1,27.2,109.4z M58.2,93.3c-0.2,0-0.5,0-0.6,0c-0.5-0.1-0.9-0.3-1.4-0.5c-7.1-2.9-15.4-11-15.4-23.9   c0-1.3,0.1-2.5,0.2-3.7c0.6-0.6,2.8-2.6,5.8-2.8c2.5-0.2,4.9,0.9,7.4,3.1c0.1,0.1,0.3,0.2,0.5,0.2c0.2,0,0.4-0.1,0.6-0.2   c0.3-0.3,0.3-0.8-0.1-1.1c-2.8-2.5-5.6-3.7-8.5-3.5c-2.4,0.2-4.2,1.2-5.4,2.1c0.5-3.3,1.4-6.5,2.6-9.6c0.7,1.5,2.2,3.5,5.2,4.1   c0,0,0.1,0,0.1,0c0.4,0,0.7-0.2,0.7-0.6c0.1-0.4-0.2-0.8-0.6-0.9c-3.5-0.7-4.4-3.7-4.6-4.5c1.4-2.9,3.2-5.7,5.3-8.3   c0.1,1.4,0.7,3.4,2.2,6c0.1,0.2,0.4,0.4,0.6,0.4c0.1,0,0.3,0,0.4-0.1c0.4-0.2,0.5-0.7,0.3-1c-3.2-5.4-1.6-7.4-1.5-7.4c0,0,0,0,0,0   c1-1.1,2-2.1,3.2-3.2c0.3-0.3,0.7-0.6,1-0.8c0.6-0.4,1.3-0.6,2-0.6c1.9,0,3.4,1.3,3.8,3.1c0,0.3-0.1,0.6-0.1,0.9v13.9   c-0.8-0.4-1.8-0.8-2.8-0.7c-1.2,0.1-2.2,0.7-3.1,1.9c-0.2,0.3-0.2,0.8,0.2,1.1c0.1,0.1,0.3,0.1,0.4,0.1c0.2,0,0.5-0.1,0.6-0.3   c0.6-0.8,1.2-1.2,2-1.3c1.1-0.1,2.2,0.6,2.7,1v14.2c-1.1,0.7-3.9,2.4-6.9,2c-2-0.2-3.7-1.3-5.2-3.2c-0.2-0.2-0.5-0.4-0.8-0.3   c-0.3,0.1-0.5,0.4-0.5,0.7c0,0-0.2,4.7-3,5.2c-0.4,0.1-0.7,0.5-0.6,0.9c0.1,0.4,0.4,0.6,0.7,0.6c0,0,0.1,0,0.1,0   c2.6-0.5,3.6-3.2,4-5c1.5,1.4,3.2,2.3,5.1,2.5c2.9,0.3,5.5-0.9,7-1.8v17.5c0,0.3,0,0.6,0.1,0.9C61.6,92,60,93.3,58.2,93.3z    M69.3,92.7c-0.4,0.2-0.9,0.3-1.3,0.5c-0.3,0-0.5,0.1-0.7,0.1c-1.9,0-3.4-1.3-3.8-3.1c0-0.3,0.1-0.6,0.1-0.9V71.9   c1.5,0.9,4.2,2.1,7,1.8c1.9-0.2,3.6-1.1,5.1-2.5c0.4,1.8,1.4,4.4,4,5c0,0,0.1,0,0.1,0c0.4,0,0.7-0.2,0.7-0.6   c0.1-0.4-0.2-0.8-0.6-0.9c-2.8-0.6-3-5.2-3-5.2c0-0.3-0.2-0.6-0.5-0.7c-0.3-0.1-0.6,0-0.8,0.3c-1.5,1.9-3.2,2.9-5.2,3.2   c-3,0.4-5.8-1.3-6.9-2V55.9c0.6-0.4,1.6-1.1,2.7-1c0.7,0.1,1.4,0.5,2,1.3c0.1,0.2,0.4,0.3,0.6,0.3c0.2,0,0.3,0,0.4-0.1   c0.3-0.2,0.4-0.7,0.2-1.1c-0.8-1.2-1.9-1.8-3.1-1.9c-1.1-0.1-2.1,0.3-2.8,0.7V40.2c0-0.3,0-0.6-0.1-0.9c0.4-1.7,1.9-3.1,3.8-3.1   c0.7,0,1.4,0.2,2,0.5c0.3,0.2,0.7,0.5,1,0.9c1.1,1,2.2,2.1,3.2,3.2c0,0,0,0,0,0c0,0,1.7,2-1.5,7.4c-0.2,0.4-0.1,0.8,0.3,1   c0.1,0.1,0.3,0.1,0.4,0.1c0.3,0,0.5-0.1,0.6-0.4c1.5-2.6,2.1-4.5,2.2-6c2.1,2.6,3.9,5.4,5.3,8.3c-0.2,0.8-1.2,3.9-4.6,4.5   c-0.4,0.1-0.7,0.5-0.6,0.9c0.1,0.4,0.4,0.6,0.7,0.6c0,0,0.1,0,0.1,0c3-0.6,4.5-2.6,5.2-4.1c1.3,3.1,2.2,6.2,2.6,9.6   c-1.2-0.9-3.1-2-5.4-2.1c-2.9-0.2-5.7,1-8.5,3.5C70,64.5,70,65,70.2,65.3c0.1,0.2,0.4,0.2,0.6,0.2c0.2,0,0.4-0.1,0.5-0.2   c2.4-2.2,4.9-3.2,7.4-3.1c3.1,0.2,5.2,2.2,5.8,2.8c0.1,1.2,0.2,2.5,0.2,3.7C84.7,81.8,76.4,89.8,69.3,92.7z M100.7,111.8   c-1.3,0-2.4-1.1-2.4-2.4c0-1.3,1.1-2.4,2.4-2.4c1.3,0,2.4,1.1,2.4,2.4C103,110.7,102,111.8,100.7,111.8z"></path><path d="M42.5,23.9c0.5,0,0.9-0.1,1.3-0.3l5,5c0.1,0.1,0.3,0.2,0.5,0.2h26.6c0.2,0,0.4-0.1,0.5-0.2l5-5c0.4,0.2,0.9,0.3,1.3,0.3   c2.1,0,3.9-1.7,3.9-3.9c0-2.1-1.7-3.9-3.9-3.9c-2.1,0-3.9,1.7-3.9,3.9c0,1.1,0.5,2.1,1.2,2.8l-4.5,4.5h-26l-4.5-4.5   c0.8-0.7,1.2-1.7,1.2-2.8c0-2.1-1.7-3.9-3.9-3.9c-2.1,0-3.9,1.7-3.9,3.9C38.7,22.1,40.4,23.9,42.5,23.9z M82.9,17.6   c1.3,0,2.4,1.1,2.4,2.4c0,1.3-1.1,2.4-2.4,2.4c-1.3,0-2.4-1.1-2.4-2.4C80.5,18.7,81.6,17.6,82.9,17.6z M42.5,17.6   c1.3,0,2.4,1.1,2.4,2.4c0,1.3-1.1,2.4-2.4,2.4c-1.3,0-2.4-1.1-2.4-2.4C40.2,18.7,41.2,17.6,42.5,17.6z"></path><path d="M82.9,105.5c-0.5,0-0.9,0.1-1.3,0.3l-5-5c-0.1-0.1-0.3-0.2-0.5-0.2H49.4c-0.2,0-0.4,0.1-0.5,0.2l-5,5   c-0.4-0.2-0.9-0.3-1.3-0.3c-2.1,0-3.9,1.7-3.9,3.9c0,2.1,1.7,3.9,3.9,3.9c2.1,0,3.9-1.7,3.9-3.9c0-1.1-0.5-2.1-1.2-2.8l4.5-4.5h26   l4.5,4.5c-0.8,0.7-1.2,1.7-1.2,2.8c0,2.1,1.7,3.9,3.9,3.9c2.1,0,3.9-1.7,3.9-3.9C86.8,107.3,85.1,105.5,82.9,105.5z M42.5,111.8   c-1.3,0-2.4-1.1-2.4-2.4c0-1.3,1.1-2.4,2.4-2.4c1.3,0,2.4,1.1,2.4,2.4C44.9,110.7,43.9,111.8,42.5,111.8z M82.9,111.8   c-1.3,0-2.4-1.1-2.4-2.4c0-1.3,1.1-2.4,2.4-2.4c1.3,0,2.4,1.1,2.4,2.4C85.3,110.7,84.2,111.8,82.9,111.8z"></path></g></svg>