<?xml version="1.0" encoding="utf-8"?>
<!-- Generator: Adobe Illustrator 18.0.0, SVG Export Plug-In . SVG Version: 6.00 Build 0)  -->
<!DOCTYPE svg PUBLIC "-//W3C//DTD SVG 1.1//EN" "http://www.w3.org/Graphics/SVG/1.1/DTD/svg11.dtd">
<svg version="1.1" id="Слой_2" xmlns="http://www.w3.org/2000/svg" xmlns:xlink="http://www.w3.org/1999/xlink" x="0px" y="0px"
	 viewBox="0 80 1590 920" enable-background="new 0 80 1590 920" xml:space="preserve">
<path fill="none" stroke="#000000" stroke-width="2" stroke-miterlimit="10" d="M886.6,623.2c8.3,5,19.2,8.5,26.9,14.3
	c-1.3-3.7-5.8-5.6-8.7-7.8c-4.1-3-8-6.8-12.1-9.9c-4-3-7.9-5.7-11.8-8.6c-1.1,2.3-2.1,4.4-3,6.6
	C880.7,619.6,883.6,621.3,886.6,623.2z"/>
<path fill="none" stroke="#000000" stroke-width="2" stroke-miterlimit="10" d="M871.2,638.4c-0.4,5.6,0,11.4-0.5,16.8
	c-1.1,12.3-1.5,23.5,0.5,35.5c1.9,10.7,4.9,20.4,8.2,30.7c1.6,5.2,0.8,10.1,1.9,15.6c1.3,6.9,6.4,2,10.7-0.7
	c6.4-3.8,19.9-11.9,22.1-19.5c0.8-2.6,0.4-5.3,1.3-8.1c0.8-2.5,1.6-4.9,2-7.6c0.8-5.2,2.3-14.2,7.2-17.4c-3.7,4.6-4,13.4-4.5,18.9
	c-0.5,6.5,2,14.7-2.7,19.9c6.4-3,9.9-6.1,14.6-11.3c3.4-4,7.7-9.8,11.9-13.4c-1.7,2.1-2.5,5.6-4.2,8.2c-1.9,2.8-3.3,5.6-5.3,8.2
	c-4.5,5.6-12.9,9.8-18.9,13.4c-5.7,3.3-9.4,8.9-14.6,12.7c-3,2.3-6.9,3.8-10.1,6.1c-2.3,1.6-4.4,5-7.4,4.6
	c-0.9,10.2-4,17.6-7.6,27.4c-1.7,5-1.2,8.2-1.3,13.4c-0.1,4.5-2.5,9.1-2.7,13.4c7.4,0.1,15-6.5,21.2-10.2
	c7.6-4.4,12.3-10.1,18.9-15.2c5.8-4.5,13.1-6.5,18.3-11.9c4.6-4.9,6.1-12.5,10.6-17.4c-0.3,4.2-5,7.4-4.6,11.1
	c6.9-2.1,13.6-3.8,20.1-7.8c6.4-3.8,11.3-8.7,16.7-14c-1.3,4.6-7.8,12.1-12.2,14.3c-3.7,2-20.5,6.6-19.3,11.5
	c6.5-1.1,15.5-4.4,22-0.4c-1.7,0.9-4.9,0.4-7.2,0.5c-3.6,0.3-6.9,0.8-10.3,1.3c-4.4,0.7-8.6,0.3-12.7,2.7
	c-8.1,4.6-15.5,11.1-22.1,17.6c-2.9,2.8-5.3,5.8-8.7,8.1c-4.1,2.8-8.7,3.2-12.9,5.2c-4.8,2.4-8.5,4.4-11.4,8.7
	c-1.9,2.7-3,4.5-6.1,6.2c-1.7,0.9-4.6,1.3-5.4,3.2c-0.7,1.6,0.7,6.6,0.7,8.7c0,2.6,0.3,5.4,0,8.1c-0.5,6.6-2.8,12.7-3.2,19.3
	c-0.8,11.5-1.5,23.5-1.5,35c0,11.8,2.8,23.3,2.7,34.8c0,5.8-0.4,11.1-1.3,16.8c-0.5,2.9-0.7,5.8-1.3,8.7c-0.5,2.4-2.1,5-1.9,7.3
	c4.1,2.3,11,0,15.2-0.5c5.3-0.8,10.1-2,15.5-2c14.7,0,29,2.4,43.9,1.3c15.8-1.2,31.4-2.4,46.8-4.6c6.5-0.9,12.7-2.8,19.3-3.2
	c6.5-0.5,12.6-0.8,18.9-1.6c5.8-0.8,11.5-0.3,17.2,0.1c5.3,0.4,15.9-1.5,19.6,2l8.1-1.3c0.5-6.5-2.9-14.3-3.3-21.5
	c-0.5-8.5-2.8-16.3-3.4-24.8c-1.5-16.7-4.4-33.4-5.7-50.2c-1.2-15.1-0.8-30.6-0.8-45.8c0-5.7-1.2-11.1-0.7-16.8
	c0.5-5.8,1.5-11.7,2-17.5c0.5-5.8-0.9-11.1-1.3-16.8c-0.4-5.6-0.7-11.3-0.7-16.8c0-2.8,0.5-5.2,0.1-7.6c-0.5-2.8-2.1-5.3-3.3-8
	c-2.5-5.6-4.2-9.7-10.2-12.2c-10.3-4.4-20.4-9.5-30.9-13.9c-4.6-1.9-9-4.4-13.2-6.9c-4.8-2.9-9.9-2.5-15.1-2
	c-5.3,0.5-8.9,3.3-13.9,4.2c-5,0.9-12.9,1.7-17.2,4.1c2.3-1.5,3.7-3.3,5.7-4.8c2.8-2,6.4-2.9,9.4-4.8c4.1-2.4,8.7-2.4,12.5-4.9
	c-3.2-2.3-7.4-3.2-11.1-4.6c-4.5-1.9-6.6-4.1-11.4-3.2c-4.1,0.8-7,2.7-10.7,4.5c-4.8,2.5-10.2,2.5-14.6,4.8c3.6-2.7,7.6-5.6,11.3-8
	c3.7-2.4,7.3-6.1,11.7-6c-3.7-2.4-9.5-3.3-13.9-4.8c-6.5-2.1-12.5-2-19.5-2c-12.2,0-24-0.9-36,0.7c9.7-3.3,18.9-5.2,29.3-6.1
	c5.3-0.4,10.2-0.4,15.5,0c2.8,0.3,5.4,0.7,8.1,1.3c2.4,0.7,4.6,2.3,7.2,2c-4.1-4-8.9-7-13.6-10.3c-4.9-3.3-10.7-5.6-16.3-8.1
	c-5.3-2.4-9.5-5-14.6-8.1c-4.4-2.6-9.5-4.5-14.3-7c-2.4-1.3-4.5-2.8-6.5-4.4c-0.3,0.8-0.5,1.5-0.7,2.3
	C874.1,629,871.5,633.9,871.2,638.4z"/>
<path fill="none" stroke="#000000" stroke-width="2" stroke-miterlimit="10" d="M882.7,606.9c4.1,2.5,8.1,5,12.1,8
	c7.6,5.7,12.5,14.3,20.1,19.6c3.8,2.7,8.2,2.8,11.5,6.6c4.1,4.8,6.9,7.6,12.6,10.6c-1.6-3.4-5.3-5.3-7.3-8.5
	c-2.4-3.7-4.6-7.3-7.8-10.6c4.1,2.8,9.1,10.2,13.6,11.3c-2.1-5.4-4.5-10.3-8.5-14.7c-3.6-3.8-13.4-10.1-13.4-15.4
	c8.7,6.8,19.7,15,23.8,25.6c1.9,4.8,2,7.6,6,11.4c2.6,2.5,9.9,11.8,13.5,11.1c0.4-3.3-3.8-7.7-5.4-10.6c-2-3.6-4.4-7.3-5.8-11.1
	c3.2,1.3,5.8,6.8,8.1,9.1c1.7,1.9,3.4,3.6,4.4,6c0.8,2.1,0.4,4.6,1.7,6.6c1.9,2.7,9,5.3,11.9,7c4.4,2.8,9.3,4.5,13.6,7
	c7.7,4.6,17.1,8.3,25.3,11.1c7.6,2.5,15.1,5.2,22.8,7.2c-4.1-4.9-8.7-8.7-13.4-13.2c-15.9-15.5-36.6-25.7-51.5-42.5
	c-8.1-9-17.8-16-29-20.4c-11-4.4-22.3-11.5-34.2-12.5c3.4-2.1,15.4,1.9,19.5,3.3c6,2.3,10.7,5.3,17.2,5.6
	c-10.1-5.4-17.5-14.6-26-22.3c-4.2-3.7-8.3-8.7-13.2-11.5c-2-1.1-4.4-1.5-6.8-1.9c-3.2,4.8-6.4,9.7-9.7,14.7
	C885.6,597.6,884.6,602.1,882.7,606.9z"/>
<path fill="none" stroke="#000000" stroke-width="2" stroke-miterlimit="10" d="M1576.6,670.6c-3.7,0.1-3.7-2.9-6.5-4.2
	c-3.2-1.3-6.9,0.9-10.2,1.3c-3,0.4-6.5,0.1-9.4,0.1c-2.7,0-5.4-2.3-7.4-2.1c-1.5,0-2.1,1.5-3.2,1.6c-1.3,0.3-1.7-0.1-2.8-0.3
	c-2.5,0-4.6-0.9-7.3-0.5c-2.3,6.8-14.6-2.9-18.3-4.4c-4.4-1.7-6.2,1.2-10.7,2.3c-3.4,0.8-8.1,2.9-10.9,2.1c-2.5-0.8-2.3-2.4-5.2-2.9
	c-2.1-0.3-4,0.4-6.1,0.7c-1.9,0.3-4.8,1.3-6.8,0.7c-1.7-0.7-2.8-2.7-4.6-3.3c-3.6-1.1-8.6,1.9-11.9,2.6c-3.3,0.8-7,0.8-10.9,1.2
	c-3.7,0.3-4.2,2.1-7.6,3.2c-1.7,0.5-5.3,0-7.3-0.5c-3.8-0.9-3.4-1.7-6.5,0.7c-2.3,1.7-3,2.9-6.4,3.6c-3.7,0.7-5.7,0.3-9.1-0.8
	c-3.2-1.1-3-1.3-6.8,0.8c-3,1.7-4.6,2.4-8.1,2.4c-0.7,0-1.6-1.1-2.7-1.1s-2.9,1.1-4.2,1.2c-6,0.7-11.4,2.1-17.5,2.6
	c-5.4,0.4-10.3-0.1-15.5,1.6c-4.4,1.5-10.7,4-15.5,1.9c-2.1-0.9-4.2-4.6-1.5-6.2c2.3-1.3,4.2,2.3,6.8,2.1
	c-0.7-12.1,11.9,3.3,13.9-3.4c-7.2-2.5,5.7-10.9,8.5-11.8c3.8-1.3,5.7,2.1,5.4-3c0-0.8-1.5-1.6-1.6-2.5c-0.1-0.7,0.8-0.7,0.8-1.3
	c-0.1-1.6,0-3.2-0.1-4.6c-2.1,0.3-3,3.6-5,1.9c-1.5-1.2-0.5-4.1,0.7-5.2c4.5-4.4,8.1,2.4,12.6,1.2c-0.4-0.5-0.8-2.1-1.2-2.6
	c2.3-0.8,3.3-3.4,5.8-3.4c0.5-1.5,0-2.9-1.2-3.7c2.1,1.5,4,4.5,6.6,2.3c3.2-2.5,0.3-4.4-2.5-4.6c-2-7.6,5.4-10.1,11.3-10.7
	c-0.4-2.4-4.5-4.2-7.2-4c1.9-2.8,4.8-2.5,7.8-2.7c-0.1-0.7,0.3-1.9,0.1-2.5c9.8,0.9,1.1-6.9-0.7-9.4c2-0.3,4,0.4,5.3-1.2
	c0.3,3.2,4.2,9.5,7.9,8.3c0-0.5,0.1-1.1,0.1-1.6c2.1,0.1,2.5-3.2,4.2-3.4c2.8-0.4,3.2,3.7,4.4,5.2c0-1.6,0.7-3.2,2.1-4.1
	c2,1.6,0.7,7.2,4.6,6.1c0-0.5,0.1-1.1,0-1.7c2.1,3.6,3.3,9.9,7.9,11.1c0.1-1.3,0.1-2.7,0.1-4c0.4,3.3,4.6,4.9,6.9,2.3
	c1.6-2,0-7-1.2-9.4c1.3,2,2.6-1.7,2.3-3.6c-0.7-3.2-4.1-4-5.2-6.6c1.1-0.9,2.4-1.5,3.8-1.6c1.6-8-10.3-10.6-5.2-17.2
	c5.3,2,6.1,14.7,8.6,18.4c1.9-1.2,1.7-4.1,0.9-6.6c1.3-0.5,2-2.1,2.3-3.6c1.9,3.4,3.6,8.1,4.4,11.3c0.7,2.5,0.4,6.6,4.4,3.8
	c0.8-0.5-0.4-4.9,2.7-3c1.6,0.9,0.5,2.6,0.3,4c-0.4,2.9-2.9,5.2-0.7,8.6c3.6-0.7,2-4.1,2.5-6.6c0.7-3.4,1.6-2.4,3.6-5.2
	c1.7-2.5,0.4-2.9,0.3-5.6c0-2.3,1.5-4.2,0.7-6.6c-0.4,0-0.8-0.1-1.1-0.3c-1.2-1.9-2.8-3.8-3.3-6.1c-0.4-1.5-0.3-2.5-0.1-3.7
	c0.8,2.8,4.1,5.2,7.3,5.3c0,2,0.7,13,4.2,8.2c-1.1,3.7,2.7,3.3,5.2,3c0.3-3.6-1.1-7-0.5-10.5c0,0.7,0,1.2,0.1,1.7
	c3.2,0.1,5-3.6,3.8-6.5c-0.5-1.3-2.4-1.9-3-2.9c-0.7-1.1-0.1-2.6-0.9-3.7c-1.1-1.3-2.3-0.7-3.2-2.1c-0.5-0.9,0-3-0.5-4.2
	c-0.9-2.3-3.8-3-4.1-5c2.3,0.1,9.9,2.3,12.1,0.4c1.9-1.6,0.1-9.3-0.7-11.1c0.9-0.3,1.2-0.9,2.5-0.9c0.7-4-3.8-5.6-6.4-7.3
	c4-3-2.7-6.2-4.2-2l-3.3-5.4c0.1-2.5,0.3-6.4-3.3-6.1c2-3-2.7-5.2-5.3-4.5c-0.7,2.4-4.6,5.4-6.4,2.1c-1.1-2,1.3-1.6,1.6-3.6
	c0.1-1.2-0.9-3-0.8-4.5c0.4,0.1,0.9,0.3,1.3,0.4c0-2.9-3-4-2.4-7.2c0.5-2.8,3.4-3.4,5.2-5c1.7-1.6,2.8-0.8,2.1-3.2
	c-0.1-0.4-2.8-2.6-3.3-2.9c-2-0.8-2.5-1.2-4.2,1.3c-0.8-0.8-2.3-3-3.3-3.2c-1.9-0.1-2.5,2.1-4.6,2c-0.3-2.4-1.2-6.8,1.9-7.4
	c-0.7-2.8-1.6-6-4.5-7.4c1.3-2.5,0.3-5.7-1.3-7.7c5.6-3-1.6-7-4.6-5.4c-2.9,1.6-1.3,7.3-6.8,3.8c0.8-3.4,4.5-5.6,2-9.9
	c-2,0.5-2.3,2.6-4.1,3.3c-1.3,0.5-3.8,0.3-5.4,0.7c-4.6,1.2-3.7,2.1-4.1,6.6c-1.9-0.1-4-0.1-5.3,1.2c1.9-10.1-12.1-0.9-7.3,2.4
	c-1.2-0.4-2.7-0.3-4,0c0.8,4.9,2,10.5-5.3,8.5c-1.3-0.4-1.6-1.7-3.6-1.9c-1.2-0.1-3,0.5-4.1,1.2c-2,1.2-3.2,2.8-2.8,5.4
	c-0.8,0.1-1.7,0.3-2.5,0c-0.1-0.4-0.1-0.8-0.3-1.2c-1.9,0.7-3.3,2.1-5.2,2.8c0.7,2.9,2.9,3.7,2.1,7.3c-0.7,2.8-2.8,4.8-5.6,4.6
	c-0.8,0-3.6-0.5-3.8-1.5c-0.5-2,1.9-0.9,2.1-2.4c0.4-2.9-2.4-3.7-2.4-6.9c-0.8,1.1-1.3,2.5-2,3.8c-2.5-0.5-5-2.4-4.4-5.3
	c0.5-2.8,3.8-3.2,5.6-4.8c-1.2,0.9-1.6,0.5-3,0.7c-1.3-4.8,12.1-13.4,8.6-17.8c0,0.4,0,0.7-0.1,1.1c-2.1,0.1-5.7-3-5.8-5.2
	c0.5,0,1.2-0.3,1.9-0.3c1.1-6-5.4-5.6-7.9-2.1c0.4-3.3-4.8-4.6-7-6c0.7,1.2,0.1,2.1,0.3,3.3c-2-0.5-4.8-2.1-6.5-0.7
	c1.5-0.7,1.7-3.4,0.5-4.6c-1.5-1.3-3.3,0.3-5.2-0.1c2.5-1.1,4.5-4.4,7.2-5.3c2.1-7.4-8.1-5.2-11.7-2.1c0.8-1.6,0.9-3.7,0.3-5.2
	c-0.7-1.3-2.8-0.9-3.2-2.1c-0.4-1.2,1.2-1.3,1.1-2c-0.5-4.9-6.4-6.6-4.5-11.3c1.7-4.5,2.3-2.1,4,0.7c1.1,1.7-0.3,2,2.1,3.2
	c0.9,0.5,3.6,0.3,4.8,0.1c7.8-1.1,3.2-9.3-0.8-6.9c0.8-3,1.7-4.1-0.8-6.6c-1.6-1.6-3-2.9-5.4-2.8l0,0c-0.9-1.6-2.8-3.8-4.8-4.4
	c0-2.6,0.7-6,2.8-7.4c-10.2,0.7-2.3-8.7-6.6-12.7c1.2-0.7,2.3-4.9,1.2-6.2c-1.1-1.3-4.8-0.7-6.4-0.5c2.5-2,0-7.2-2.8-7.6
	c-0.5-2.4,2.4-13.1-2-14c5.6-1.3-0.8-11.3,0.7-13.2c0.5,0,1.2-0.3,1.9-0.3c0.1-1.7,0-3.4,0.3-5.2c4.5-2.5,9.5-1.1,7.8,5.2
	c-3.3,1.2-6.9,4.9-5.8,8.7c0.7-0.1,1.9,0.4,2.5,0.3c-2.8,3.7,3.4,6.2,4,9.4c0.5,3.4-3.2,7.4,2.8,8.7c-1.3,2,0.7,5.7,0.9,7.4
	c0.4,2.8-1.6,1.7,0.9,3.8c1.6,1.3,4.6,1.3,6.2,2.9c3.4,3.4-0.3,3.6-0.8,8c-0.4,2.6,1.7,6.5,5.3,4.2c-0.3-0.1-0.3-0.4-0.3-0.7
	c1.2,0.1,1.7-0.3,2.8,0.4c7.9-2.3,2.6-8.7,2.6-13.9c0-0.1,0.5,1.5,0.7,1.9c0.5-0.4,1.3-0.3,1.7-0.5c0.5,2.4,4,3.7,5.2,1.7
	c-0.4,3.2,7.3,7.7,6.4-1.1c-0.4-3.8-2.4-5.4-3-8.9c0.5,0,1.1,0.1,1.5,0c-3,5.3,6.6,5.6,6.2,0.9c4.1,2.5,5.8-2.8,4.9-5.6
	c2.5,1.9,4.4-1.1,3.7-3.4c-0.7-2.6-4.1-2.6-3-6c0.4-0.1,0.8-0.1,1.1-0.3c-0.1-1.6-4-4.5-5.7-5.8c1.9,0.9,4.8,0.7,7,0.5
	c0.5-3.8-0.9-7.3-0.4-11.3c1.6,3,6.6,5.2,9.4,1.5c2.1-2.8-1.3-6-3.4-8.1c6.2,1.1,6.4-3,3.4-7.4c0,0.5-0.1,1.3-0.3,1.9
	c-3,0.8-5-2.5-7.2-3.8c2.1,1.5,3.8-1.7,1.5-3.4c8.5-8.1-7.9-5.2-9.5-7.6c1.7-2.7-0.5-6.4-3.4-7.4c0.9-1.5,3.3-1.7,4-3.2
	c0.7-1.3-0.3-4.6-0.8-6c-0.8,0.4-1.7,0.1-2.7,1.1c0.5-5.2-6.2-2.9-9.1-3.2c0.7,0.1,1.2,0,1.7-0.1c0.8-2.9-2.9-5.6-5.2-6.8
	c1.1-2.3-1.1-4.9-3.4-3.3c-0.7-1.2-1.1-2.9-1.5-4.5c1.6,0.5,4,0.5,5.3,0c1.3,4.1,3.2,3.6,5.7,1.2c1.6-1.5,0.9-2.4,3.2-3.4
	c1.1-0.5,3.3-0.5,4.6-0.8c0.3-2.3-0.8-9-4-4.8c0.3-1.6,0.3-3.8-0.8-5.2c-2.1-2.5-2-0.4-4.5-0.1c-2.5,0.3-2-0.1-4-0.5
	c-1.5-0.3-1.7-1.1-3.2-0.1c-0.1-1.5,0.5-5-0.8-5.8c-1.6-1.1-3.6,1.3-5.3,1.1c0-0.9,0.4-2.4,1.5-3c2.1-1.3,1.2,0.3,3,0.5
	c1.7,0.3,2,0.9,4.2,0.7c0.7,0,2.3-1.7,2.5-2c0.5,1.5,1.9,2.1,3.3,2.5c0.9-3.2-1.7-5.4-4.2-6.6c0-0.1,0.3-1.1,0.3-1.2
	c-3-1.3-3.2-2-6.5-1.6c-0.7-1.9-2.4-2.4-2-4.5c2.5-0.3,4.5,1.9,5.3-1.5c0.5-2-2.3-5.4-3.3-6.9c0.5-0.8,0.3-1.6,0.5-2.4
	c-5,0.5-2.8-3.2-5-4.4c-2.1-1.1-3.2,1.1-5.4,1.2c5.2-4-5.7-8.2-6.9-2.5c-2.4,0.3-4.8,0-7.2,0.3c0.1,1.9,0.3,4.8,1.2,6.5
	c-1.5,0-2.7,0.3-3.8,0.9c-0.1,3.7-1.2,7.8-6,6.5c-1.9-0.5-2.8-3.3-4.1-4c-1.6-0.7-2.9-0.5-4.4-0.1c-0.9-5-5.8-5.6-9-1.2
	c-0.4-2.1-1.6-3.8-2.3-5.8c-0.5,0.3-1.2-0.1-1.9,0.3c-1.3-2.1,0-4.8-1.5-7c-1.6,0.1-2.9,1.1-3.6,2.4c0.8-2,0.5-4-0.4-5.7
	c-0.5-0.1-1.2-0.3-1.7-0.3c-0.8-2-2.8-2.9-2.9-5.2c-0.4,0.5-1.5,0.9-1.9,1.7c1.1-3.7-3.4-5.2-4.4-8.5c1.7,1.7,6.1,2.3,5.7-1.2
	c0.5,2.7,3.8,1.9,6,1.7c-0.4-0.9-0.3-2.1-0.7-3c2,1.1,4.1,1.9,5.6,3.7c2.5-1.3-0.3-2.9-0.8-4.5c0.5,0,1.2-0.1,1.7-0.3
	c-1.7-0.7-3.3-2-3.8-3.8c-0.1,0.1-0.8,0.5-1.1,0.7c0.5-0.9,0.1-1.7,0.3-2.6c-1.5,0-3-0.1-4.5-0.3c0.1-0.7-0.3-1.7-0.3-2.4
	c-2.1,0.7-4.9,1.2-7,0.9c1.1-2,1.6-4.8,0.7-6.6c-0.9,4.1-5.7,1.2-7.4-0.7c0.5,0,1.2-0.1,1.7-0.3c0.5-2.3-1.1-3.8-2.5-5.2
	c1.9-0.4,3-1.6,2.5-3.4c-0.5,0.3-1.2,0.1-1.7,0.5c0.4-2.1,1.2-12.5-4-8.7c0.5-1.7,1.7-5.8-1.3-6.1c-0.1-1.3-0.5-2.5-1.5-3.7
	c-2.1,1.1-3.7-1.6-5.2-2.9c-0.1,0.4-0.1,0.8-0.3,1.2c-2.3-0.9-6.5-0.5-8.3-2c4.4,0.7,1.9-5.8,0-7.4c4,0.5,2.1-4.8,0.9-6.6
	c-1.5,1.9-5.6,3.4-6.5,0c0.8-0.1,1.6-0.9,2.5-0.9c-2-2.1-1.5-4.5,1.3-5.3c-1.1-2.6-3.6-3.7-6.4-3.2c0.9-1.7,0.1-3.6-0.4-5.3
	c-1.6,0-4.1,4.6-6.5,1.9c-1.3-1.6,0.8-4.4,0.4-7c-0.1,0.4-0.5,1.2-0.7,1.7c-2.3-0.7-3.8-2.8-3-5.2c0.4-0.1,0.8-0.1,1.1-0.3
	c0.5-2.6-2.8-3-2.6-5.8c-1.5,0.7-2,2-1.5,3.3c-1.6-1.9-4.6-2.3-5.3,0.5c-1.7-0.9-3.2-2.8-5.2-3.4c0.7-1.5,2.5-2,3.8-2.5
	c-0.1-1.7-1.3-3.2-2.1-4.6c-1.7,0.7-2.8,2.3-4.5,2.5c-0.1-0.4-0.1-0.8-0.3-1.2c-1.3,0.7-4.2,2.3-6.1,0.8c-1.5-1.2-1.5-3.6,0.3-4.9
	c2.3-1.6,4.5,1.3,6.5-0.8c0.8-0.8,0.1-5.3,0.3-6.5c1.3,0,2.5-0.7,3.8-0.9c0.4-1.7-0.3-5.8-0.7-6.8c-0.9-2.3-3-4.2-2.4-6.5
	c0.7-2.5,4.5-2.9,3.3-6.8c-0.7-2.1-3.6-4.1-5.2-1.6c-3.4-1.9-2.9-4.6-7.4-4.2c-2.3,0.1-4.8,1.5-7.4,1.3c0.1,1.7-0.1,3.7-0.9,5.2
	c-2,0-3.8,1.1-5.8,0.7c0.1-2.6-3.2-3.4-5.4-3.2c0,0.5-0.3,1.3-0.3,1.9c-1.9-0.5-3.8-0.8-5.8-1.5c6-5.6-7.2-11.8-8.9-5.4
	c-1.6-1.7-2.5-0.7-4.1-0.7c-0.5,0-1.9,1.1-2.5,1.1c-0.5,0.1-0.7-1.2-1.3-0.9c-2.3,0.7-4.1,4.1-6,4c0.1-2-0.4-4-0.9-5.8
	c-5.3-0.9-8.5,4.6-8.1,9.1c-7.4,0.7-3.2,5.6-8,8.9c-0.1,0-6,1.3-6.1,1.3c-2.5-0.3-2.3-3-5.3-1.5c1.9-5.7-2.7-3.6-6.1-3.3
	c0.4-4.4,2.3-3.8-1.5-6.1c-2-1.2-4.9-2.9-7.4-2.5c-6.8,0.8-2.1,9.8-6.6,9.3c0.5-2.5,0.7-5.2,0.5-7.8c-5-0.7-5.8,0.4-6.1,5
	c-4.4-4.9-3.6,3.3-5.8,4.9c-0.7-4.1-6.1-6-9.4-3.8c1.6,3.3,4,5.2,3.8,9.1c-2.4-0.4-7.8-8.5-9.3-2.1c-0.3-0.3-0.4-0.7-0.7-0.8
	c-3.2,1.5-7.3,3.4-8.1,7.2c-0.4,1.7,0.1,3.8,0.7,5.4c0.4,1.2,1.7,2.5,2,3.4c0.9,3,1.6,1.3-0.7,3.7c-0.9,1.1-2.6,0.4-3.4,2.1
	c-0.8,2,4.2,9-1.2,7.9c-0.1-0.4-0.1-0.8-0.3-1.1c-3.3,0.5-9.9,1.1-10.6,5.3c-0.8,4.2,4.9,5.4,7.8,6.9c-2,2.4-3.7,13.2,0.1,14
	c-0.5,6.2,5.3,6,6.6,11c1.7-0.4,3.2-0.8,4.8-0.9c1.5,3.6,1.6,8.7,2.3,12.6c2.7,0.3,5.3,0,8,0.3c-3,1.9-1.9,6.1-1.9,9.3
	c0,0.4-0.3,3.8-0.1,4c0.9,2.3,1.1,0.8,2.8,2.1c3,2.4,5,4.2,2,8.6c-1.7,2.5-4.4,3.4-7.2,2.1c0.8-0.1,1.6-0.8,2.3-0.9
	c-1.5-2.3-3.3-3.7-4-6.5c-2.9-0.7-6.5-1.5-5.2-5.4c0.4-0.1,0.8-0.1,1.2-0.3c-2-6.8-10.9,0.5-12.6-3.7c2.9,0.1,5.7-0.5,4.6-4.2
	c-1.1-4-2.3-0.9-4.1-1.5c-4.4-1.2-6.5-8-0.8-9.4c0-1.7-6.1-10.2,0.5-8.6c-2.5-1.6-5.7-2.6-3.8-6c-0.7,0.4-1.7,0.5-2.5,1.2
	c1.3-3.3-1.9-15.1-6.2-15c-0.5-1.7-2.8-2-3.2-3.3c-0.4-1.3,1.5-1.7,1.3-3.2c-0.3-4-1.7-4.4-5.3-3.4c0.1-1.2-0.4-2.6-0.3-3.8
	c-3.8-0.9-2.5-4.1-2.7-6.8c-0.7,0.1-1.9-0.4-2.5-0.3c0.7-2.8,1.5-4.6,1.1-7.9c-1.1,0.8-2.7,4.4-4.6,3.2c-1.7-1.1-0.1-3.7,0.5-4.8
	c1.7-2.8,5-3.3,2.8-7c-3.3-0.5-3,4.9-7.2,3.8c0.7-3.2,4.2-4.5,3.2-8.6c-0.9,2.3-3.2,5.6-6.5,4.5c0.8-4,2.5-5.4,0.8-9.7
	c-2.1,6.9-6-2-8.2-2.3c-4.1-0.7-8.1,5-7.3,8.6c-0.8-3.2-4.5-1.3-5.4,0.9c-0.8,1.9-0.1,1.7,0,3.3c0-0.8,1.3,4.2,0.8,3.3
	c1.1,2,6.9,9.1-1.3,7.9c-0.7-2.9,2.1-7.4-3.3-6.8c-0.1-2.1,0.8-6.5-0.5-8.1c-1.2-1.5-5.2-2.4-6.8-1.2c-0.1-1.1-0.9-2-0.9-3.2
	c-0.7-0.1-1.1-0.1-1.9,0c0.7,1.6,0.9,3.4,0.5,5.2c-4-0.3-3.8-5.8-7.8-5.2c-0.1,2.8-0.4,4.6-1.5,7c0.9-5-8.1-5.8-4.9-0.4
	c-3-0.9-13.2-2.1-12.5,3.3c0.3,2.4,4.6,2.5,4.8,4.6c0.1,2.9-3.2,2-4.6,1.5c0.1,1.6-1.5,4-3.4,3.3c-2.4-0.8-0.5-3.2-1.3-4.8
	c-1.6-3.3-5.4-3.6-8.6-1.9c-0.4,1.7,0,3.6,0.7,5.2c0.9,0.3,1.2,0.8,2,1.2c-1.6-0.5-2.4,0.5-2.8,2.3c-0.8,2.9,1.6,2.6,2,4.1
	c0.9,3.4-0.4,5.8-2.5,8.3c2-2.7-0.9-4.6-3.3-5.2c-1.1-3,4.4-4.8,1.1-8.6c-1.2-1.5-5.7-1.5-7.8-1.2c-0.5,2.9,2.4,3.2,1.3,6
	c-0.5,1.2-4.2,3.3-5.3,3.2c-1.9-5.6-12.2-3-10.7,2c1.6,0.5,4.4,1.2,5.3,2.8c1.3,2.3-0.9,3.6-0.8,6.1c0.4,3.7,5.3,7.2,4.6,11.3
	c-2.8,0.4-10.6,0-10.7-4c0-2.5,3.3-2.9,4.1-4.6c1.2-2.8-0.7-2.8-1.6-5.3c-3,1.6-3.7,3.2-6.4,1.2c-1.7-1.3-2.4-4-3-6
	c-0.4,0.1-1.2,0.1-1.7,0.5c0.4-4.4-5.4-5.6-5.4-2.1c0,3.3,6.4,2.9,2.5,6.4c-3.6,3.2-3-0.9-5.2-2.4c-2-1.3-6.8-1.2-6.1,2.1
	c1.2-0.3,2.5-0.5,3.8-0.5c0.1,1.7,0.1,3.4,0,5.2c-0.4,0.1-1.1,0.5-1.2,0.7c0.7,0.1,1.3,0.8,1.9,1.1c-1.7,3.7-5.6,3.2-6.6-0.1
	c-0.7-2.1,1.1-3.6-1.3-4.8c-1.2-0.7-3.8,0.8-5.3,0.8c0.4,1.3,0.3,2.4,1.7,3.3c-2.3,1.7-5.3,0.8-7.7,2.1c3,2.5-1.7,6-4.5,5
	c7.6-5.7-8.7-9.8-5.8-4.5c-2.8,0.8-9.3,0.9-10.5,3.8c2.5,1.7,4.5,5.3,2.4,8.1c-1.2-1.3-3.2-1.6-5-1.2c-0.8,2.5,0.9,4.5,2.5,6.1
	c-0.8,1.5-2.3,2.4-3.8,3.2c-0.9-1.6-2.4-3.2-2.3-5.2c-2.3,0.1-3.8,3-4.6,5c-0.5-1.5-9.7-0.7-11.3,1.7c-2,3,0.4,2,1.9,3.2
	c1.5,1.2,2.5,1.7,3.7,3.6c-4.9,2.9,2.1,13.1-5.7,13.8c1.2-1.9,0.5-5.4-1.3-6.8c-2.1-1.6-3.7-0.9-6.1,0.1c-3.8,1.7-6.4,2.3-3.4,5.2
	c0.9,0.9,2,1.6,3.2,2c-1.1,0.8-2.1,1.9-2.6,2.8c-1.5,2.1-0.5,5.3-2.5,6.9c-2,1.6-6.6,0.4-8.6,3.4c-1.2,1.7-1.2,5.7,1.7,3.8
	c0.3,2.1,0.3,4.4,0,6.5c-0.4,0-0.8,0.1-1.1,0.3c-1.1,2.3-3.8,4.5-3.4,7.3c0.7,5.4,4.4,1.1,5.4-1.7c2.9,0.7,5.7-2.1,8.6-2.1
	c0.4,1.9,0.7,3.6,1.5,5.2c0.5-0.5,1.6-0.9,2.1-1.9c3.2,2.4,5,4.8,4.4,8.7c-0.7,3.8-1.9,6.4,2.1,9.9c-1.2,2.9-7.6,0.4-9.8,3.4
	c-2.1,2.8,0.9,4.9-2.8,6.9c-1.6-1.7-7.2-1.2-8.7,0.8c-1.2,1.5,0.1,2.9-0.1,4.8c-0.1,1.2-1.7,2.4-1.2,4.6c-1.7-0.9-3.4,0-5.3,0.4
	c-0.8,2.6,1.6,2.4,2,4.5c0.3,1.7-0.5,3.7-0.8,5.3c-1.6-0.9-3.7-0.7-5.7-0.5c0.8,2.1,0.5,4.9,0.3,7.2c-3.6-0.5-6.1,2.5-5.2,6
	c2.1,0.7,7.2,1.6,7.2,4c-6.4-1.1-1.2,6.4,1.3,7.7c-0.4,2.7-2.5,2.9-3.4,5c-0.9,1.9-0.5,4.6-0.4,6.8c0.3,0,0.5,0,0.7-0.1
	c-4.4,2.3,0,12.3,3.8,11.5c-0.1-1.9,5.7-7.3,7.4-7.2c-0.4,3.3,1.9,1.5,2.8,2.4c0.1,0.1,1.6,2,2,2.3c2,1.3,4.4,3.8,5.6-0.7
	c1.2,1.2,2,2.9,3.8,3.4c-2,3.7,6,2.5,4.6,7.2c-0.9,3.4-5.2,2.3-7.2,2.8c-2.5,0.7-9.1,4.4-9.4,6.8c-0.5,4.2,4.4,3.6,7.3,4.1
	c-0.4,2.6,1.6,2.6,2.3,4.4c0.5,1.3,0.7,2,1.1,3.3c0.4,1.7-0.4,5.3,3.4,4.9l4.6,5.4c0,3.6-1.2,8.9,3.8,8.7c-6.4,4.4,3.3,4.6,5.4,5.4
	c-4.8,0.7-4,6-4.5,9.4c-0.3,1.7-1.7,3.3-1.9,4.6c-0.1,1.9,1.5,3.3,1.2,4.8c-0.7,5-5.3,2.1-8.1,0.8c-2.7-1.2-7.4-1.1-8.2-4.8
	c-7.8-0.8-10.7,1.9-11.4,9.1c-1.3,0-2,0.8-3.2,0.9c-0.1,1.7,0,3.4-0.3,5.2c-5-0.4-7.4,2.5-6.5,7.6c0.5,2.8,1.7,1.5,1.1,4.5
	c-0.3,1.3-1.5,2.8-2,4.1c-2.8-0.1-5.8,0.7-6.6,3.4c-0.5,2,2.3,5.7,2.1,7.4c-0.4,2.8-10.5,12.1-0.1,10.9c0.5,2.5-1.1,4.8-0.5,7.2
	c0.7-0.1,1.9,0.4,2.5,0.3c-0.1,5.8-10.9,11-6.6,18c3.7-0.9,4.9-5.2,7.4-7.8c-0.7,2.5-4.2,8.1-2.8,10.5c2.4,4,4.5-1.7,5.4-3.8
	c-1.3,8.1,6.4,7.4,7.6,0.7c0.9,1.3,1.6,2.8,1.9,4.2c0.1-3.7-2.5-11-0.5-14.4c2.8-4.9,6,0,8.5,1.7c0.9-1.1,1.5-2.9,2-3.8
	c0.4,2.8-0.4,12.2,3.4,11.9c0.1-2,0.8-4.4,1.3-6c0.5,3.2,2.5,6.2,4,9.1c-0.1-4,3.6-4.8,3.4-8.5c-0.1-4-4.6-5.7-7.8-7.9
	c0.9,0.5,1.3,0.3,2.4,0.5c0.3-3,0-6.2,0.3-9.1c3.4,0.3,7-1.6,10.7-0.8c2.6,0.5,5.4,2.5,8.1,3.3c3.3,1.1,5.6,2.6,8.5,4.2
	c2.6,1.3,6.6,1.3,8.7,3.3c-1.9,2.7,0.3,5.3,3.3,4.6c0.3,2.1,1.2,7.2,4,5.3c0.1,2.9-0.1,4.1,2.1,6.1c2.8,2.5,3.6,1.3,6.1-0.3
	c3.2-2.3,4.8-3.7,8.7-3.8c2.6-0.1,4.8,0.8,7.3,0.8c-0.4,1.1-0.3,2.8-0.5,3.8c0.8,0.1,1.3,0.7,1.9,0.8c-0.5,1.6-1.7,3.2-2.5,4.6
	c1.1,0.9,2.3,2.6,3.4,3.3c1.9,1.1,4.4,0.4,6.1,2c3,2.8,3.4,7.7,3,11.5c-3.8-2.9-7.6-8.9-13.1-5.8c-0.8,3,2.4,4,3.8,5.8
	c-5.2,0.3-13,3.6-9.5,9c1.5,2.4,4.8,3.6,5.4,6.8c0.7,3.2-1.6,5-2.6,7.8c-2.7,0.5-5-0.4-7.2-1.9c-0.1,2.8-2.3,5.8-5.4,5.2
	c-0.4-5.4,2.3-8.6,1.2-14c-0.7-3.6-2.4-9.5-5.8-11.3c-0.5,0.8-1.6,1.1-2,1.7c0.4-3.8-1.9-7.4-2.9-11.1c-3,0.5-3.3,7.6-7.2,6.5
	c-0.3-3.7,2.1-6.5,0.4-10.6c-1.5-3.6-4.1-4.8-5.4-1.6c1.5-6.5-4.1-18.2-11-17.9c2.9,0.9-5,12.5-7.4,13.4c-0.3-0.7-0.7-0.9-0.8-1.7
	c0.1,2.6-1.1,10.2-4.6,9.9c-2-0.1-1.5-3.8-4.8-2.8c-1.7,0.5-2.3,2.4-2.1,4c-1.6-1.2-2-2.6-3.8-3.3s-4.6,0.4-6.5,0.7
	c3,2.5-0.9,6.9-1.1,9.9c-4,1.3-4.1-3.6-8.5-2.5c0,1.9,1.1,3.2,1.3,5c-1.7-5.4-11.8-0.4-15.2,0.7c4.1,2.9,7.6,3.3,3.3,8
	c-1.1-0.5-2.4-0.5-3.4-1.1c-0.4,1.6,0.1,3.2,0.5,4.5c-4,0.4-8,0.4-11.9,0.9c1.1,2.1,4.6,5.3,5.2,7.3c0.4,1.2-0.5,6.2-0.8,7.9
	c-2.1-1.2-8.6-1.3-10.5,0c0.4,0.7,0.7,2,1.2,2.7c-2-0.1-3-1.9-5.3-1.9c-1.7,0-4.6,1.6-5.8,2.9c-5.2,5,0.8,6.4,5.2,6.6
	c-1.6,1.9-11,9.3-2.8,8.1c1.2,4.8-6.1,4.2-4.5,9.1c3,0.3,5.2-4.9,7.4-0.8c1.3,2.4-1.3,6.6-3.7,8.1c-2,1.2-22.8,5.3-9.4,8.9
	c-5.2,0.5-4.5,7.6-2,10.6c-3,2.3,0.3,3.8,2.3,4c2.9,0.3,5.4-2.9,8.5-2.5c-2,3-1.7,6.9-3.2,9.9c-2,0.5-3.4,1.2-5.4,2
	c-2.4,1.1-3.4,0.9-5.8,1.5c-6.4,1.6-6.5,6.4,0.5,6.1c-4.2,0.7-8.1,9.3-7,13.4c0.3-0.3,0.9-0.7,1.3-1.1c-3.6,4-2.4,12.2,0.1,16.3
	c0.5-1.3,1.5-2.5,2-3.8c0.5-1.5,0.7-3.3,1.3-4.6c1.7-3.7,4.8-3.2,8-4.5c3.2-1.3,4.6-3.4,8-2.8c2.8,0.5,6.2,2.9,6,6
	c-4.6,0.1-6.8,1.1-9.7,4.8c1.1-2.1-3.7-1.3-5.6-1.2c-0.7,3.2-2,4.1-0.1,7c2.1-2.8,9.9-5.8,13.4-5.7c0.1,2.7,0.9,5.3,0.9,7.8
	c1.9-1.2,3-3.4,5.2-4c2-0.4,5.8,0.5,7.9,0.8c0.5,2.4-2,3.3-3.7,4.6c5.2,2.8,3.3,6.9,0.5,10.7c-5.3,7.4-4.2-1.1-9.4-1.2
	c-0.1,0.4-0.1,0.8-0.3,1.2c-4.9-1.7-4.8-9.4-10.6-9.3c-6.8,0-2.1,8.7-6.6,8c0.1-3.6-5.6-4.6-8.1-3.2c-0.1,1.6-0.1,3.3-0.1,5
	c-2.4-3-6.2,0.3-8.5,1.6c2.8,1.6,2.7,4.6,3.7,7.3c-1.7,1.2-3.8,0.9-5.8,0.9c0.3,1.7,1.1,5,2.5,5.8c1.3-5.7,6.5,3.6,8.5,4.6
	c-3.3-1.5-11.3,0.8-6.5,4.8c-3.3-0.7-4.4-3-7.8-2.7c-2.9,0.4-4,3.6-6.2,4.4c-3.7,1.5-12.6,0.4-11.1,7.4c1.1-0.3,2.4-0.8,3.7-1.3
	c-2.9,3.4,0.9,7,1.6,10.6c0.4-3.2,2.6-6.8,4.5-2c0.3-4.6,5.6-4.5,6.1,0c1.6-2,10.9-9.5,9.5-1.9c3.4-2.4,6.9-2.7,9.9,0.8
	c1.7,1.9,4,7.2,2.6,10.1c-1.9,4.1-3.8-0.1-6.8-1.3c-3.8-1.6-6.2,0.3-9.9,1.5c0.1,5.3,7.6,4.5,3,9.9c-2.1,2.7-2.8,2.5-3.2,6.1
	c-0.3,2.4,0.1,4.9-0.1,7.3c-3.8-0.7-4.6,4.6-5.4,7.4c-3-0.5-6.5-2.6-9.8-1.7c-1.9,0.5-2.7,2.4-4.1,3c-1.3,0.7-3.4,0.4-4.8,1.5
	c-2.7,2.3-0.8,3.8-3.4,6.5c-2.6,2.6-5.6,2.5-4.5,7.4c1.1-0.3,2.3-0.5,3.2-1.7c0,1.3-0.1,2.5-0.9,3.7c1.7-1.5,4.2-2.7,6.2-3.4
	c2.9-1.1,10.6-0.5,10.9,4.2c0.3,4.2-8.9,5.7-12.1,7.3c-5.8,2.9-10.6,7-17,9.4c-7,2.7-14.7,3.7-22.1,4.9c-6.2,1.1-11.9,3-17.9,4.2
	c-6.4,1.2-12.9,1.9-19.5,2.5c-12.1,1.2-23.2,3.4-35.5,2.6c-7.4-0.5-15-0.8-22.4-1.3c-6.8-0.5-10.3,0.4-16-3.4
	c-9.4-6.5-20.4,0.3-29.9,3c-6.4,1.9-12.6,4.2-18.9,5.8c-6.1,1.5-12.2,2.3-18.3,4c-5.7,1.6-11,4.2-16.7,4.8
	c-4.6,0.4-12.6-2.4-15.4,1.7c-0.5-0.7-1.5-0.7-2-1.7c-1.5,1.2-4.6,3.4-4.1-0.7c-1.6,0.1-2.8,0.7-4.5,0.5c0.3-2.1-3-6.5-5.6-6.1
	c-2.9,0.5-2,4.6-6.6,3.3c2.4-2-0.4-8.1-3.3-7.2c-2.5,0.8-0.4,7.4-6.1,5.8c-0.4-1.9-1.5-7.4-2.9-8.5c-2.8-1.9-5.7,1.7-7.2,2.5
	c-0.3-1.3-0.3-4.4-1.2-5.3c-2.5-2.7-2.3,0.5-4,0.3c-3-0.5-2.9-4.6-6.1-6.2c-0.4,1.2-1.5,1.7-2,2.5c-1.5-2.1,0-4.8-1.7-6.4
	c-0.4,0.9-1.1,1.3-1.3,2.4c-1.7-1.2-5.3-5.4-5.2-7.8c-1.3,1.9-2.3,4-3.6,5.8c-3-1.3,0.7-6-1.3-8.5c-0.5,0.7-1.3,0.9-1.9,1.7
	c-2.6-0.7-1.9-3.7-2.8-5.8c-0.8,0.5-2.3,0.9-3,1.9c-0.7-1.6-2.9-5.2-4.8-5.2c-1.7,0-2.9,3.3-6.1,2.5c0.3-3.8-2-7.4-6.1-7.2
	c0.5,2.5-2.1,6.6-4.6,6.5c-0.4-4.2,0-5.6-3.8-8c0.9-2.3,0.1-4.6-1.1-6.6c-1.3,2.8-2.9,3.3-5.6,4.5c0.5-1.9-0.7-5-2.8-5.2
	c-0.8,2-2.1,4.4-4.1,5.2c-0.1-1.5,0-3-0.3-4.5c-3.6,1.7-5.6-1.1-5.4-4.8c-1.6,1.2-2,3.4-3.3,5c0.1-2.4,0.5-7.4-3.2-5.2
	c-2.5-4.5-1.7-3.8-6.1-0.8c0.1-1.6-0.1-3.4-1.3-4.4c-0.3,1.2-1.1,1.9-1.3,2.6c1.1-5.7-5.4-1.5-8-1.3c5.7-2.3-1.9-6.1-4.8-6.2
	c0-1.3-0.7-2.5-0.9-3.8c-2,0.1-2.8,2.3-4.4,3.2c-0.1-0.8-0.7-1.5-0.8-2.4c-2.4,0.8-3.7-3.6-4.6-5.4c0.1,0.7-0.3,1.7-0.3,2.4
	c-3.8-1.5-6.9-1.2-10.5,1.3c0.3-5.6-4.5-5.4-7.6-2c-2.1-0.5-3.2-2.4-4-4.4c0.1,0.4,0,0.7-0.1,1.1c-2.1,0.4-3.8-2.1-5.3-0.1
	c-0.8-2.7-5-6-5.8-1.3c0.1-4.6-8.1-9.4-10.2-4c0.4-2.3-0.3-6.1-3.2-4c-1.7-1.2-3.4-2-5.4-2.7c0-0.5-0.1-1.2-0.1-1.7
	c0.5,6.4-9.4,4.9-10.7,9c0.3-3.4-1.6-6-2-9c0,0.5-0.1,1.2-0.1,1.7c-2.9-0.7-5.7-5.4-8-0.5c-1.9-1.2-1.3-3.4-1.5-5.4
	c-2.6,0.1-5.3-1.3-7.8-0.7c-0.1,0.3-0.1,0.7-0.1,0.9c-1.5-1.9-3.6-3-6-2.4c-0.5,4.1-5.3,4.9-8.7,4.5c-0.7-2.9,1.9-3.7,1.9-5.4
	c0-2.3-2.5-3.3-2.6-5.8c-1.7,1.3-4,6.8-6.5,4.6c0.5-0.5,0.8-2.1,1.2-2.5c-4.2-0.4-6.5-0.4-6.1,4.5c-1.7,0.5-3.4,1.9-5.3,1.5
	c-3-0.7-1.3-1.7-2.7-3.3c-1.5-2-5.2-5-7.6-1.5c-0.3-0.3-2-1.7-2.5-1.7c-1.3,0-2.7,1.3-3.3,1.3c-2.8-0.1-4.4-3-6.2,1.2
	c-0.8-0.8-2.1-1.9-3-2.5c-0.8,1.2-1.3,2.5-1.6,3.8c-2.4,0.5-2.9-1.9-4.6-3c-1.5,1.7-3.7,5.3-4.1,0.5c-2.1-0.1-4.4-0.4-6.5,0.3
	c-0.3-4.8-3.8-5.6-6-2.7c0.3-0.4,0.3,2,0,2.4c-0.3,0.5-1.2,1.2-1.6,1.7c-0.8,1.1-2.3,2.1-3.2,2.8c-0.4-1.3-1.1-2.1-2-3
	c-0.3,5.4-8.1-0.7-10.7,2.4c-0.5-9.1-7.6,2.3-8.7,2.7c-0.7-2.3-4.8-8-4.9-2c-4-2.5-5.4-4.8-7.9,0.7c-5.4-2-9.4-2.9-12.6,2
	c-1.1-4-5.4-2.4-8.2-1.5c-1.2,0.4-2.5,1.7-3.6,2c-1.7,0.5-2.1-0.1-3.8,0c-3.6,0.1-4.9,1.3-8.2,0.4c-2.7-0.8-0.9-1.7-3.8,0
	c-1.9,1.1-2.8,3-4.6,3.8c-2.7-6.2-5.7-0.5-9.4-0.7c-0.5-2.3-1.5-6.6-4.8-5.8c-3,0.8-2.4,6.1-4.6,7.8c-1.5,1.1-2.4,0.4-4,0.8
	c-1.1,0.3-2.4,1.2-3.3,1.3c-1.3,0.1-3.3,0.3-4.6,0.1c-0.5,0-2.9-1.1-3.4-0.9c-1.6,0.3-2.4,1.7-3.8,2.3c-1.2,0.4-2.9,0-4.2,0.4
	c-3.2,1.2-4.4,2.6-8.1,2.8c-2.9,0.1-6.2-0.1-8.7,0c-2.8,0.1-4.2,2-6.6,2c0.9-5.2-5.8-3.6-7.4-0.5l2.7,261c3.4-2.5,9.3-1.3,13.4-1.3
	c5.2,0,9.8-0.9,14.7-1.3c18.8-1.5,37.4,0.5,56.2,2c26,2,52.1,3.2,78,6c21.5,2.3,43.1,1.3,64.5,0c34.7-2.3,69.2,0.1,103.9,0.1
	c14.6,0,29-0.7,43.6-0.7c16.7,0,33-2.6,49.6-2.6c15.2,0,30.2,0.5,45.3,1.5c6.8,0.4,13.1,1.1,20,1.2c5.3,0.1,10.3,1.9,15.6,2
	c4.6,0.1,9.1-1.6,13.9-1.3c5,0.3,9.7,1.3,15,1.3c11.5,0,23.5-0.8,34.7,1.2c13,2.3,28-1.5,40.9-2.5c15.5-1.3,30.9-2.3,46.4-3.2
	c26-1.6,51.8-4.2,77.8-4.2c18.9,0,38.3,0.3,57.1-1.2c6.4-0.5,12.6-1.1,18.8-1.5c3.8-0.3,14.4-3,16.8-1.3l6.8-0.7
	c-0.7-1.1,1.2-8.7,1.3-11.4c0.3-4.2,1.3-8.6,2-12.7c1.3-8.5,1.1-17.6,2.7-26.2c1.7-9.5,6.6-18.6,8.2-28.2c1.5-9.4-0.7-17.9-1.5-26.9
	c-0.5-6.4,0.9-12.2,1.3-18.3c0.3-3.3,0.4-6.8,0.7-9.9c0.1-1.9,0.8-7.2,0-8.7c-2-4.4-9.7-5.3-13.4-6.9c-4.9-2.1-9.1-6.2-14.3-8.3
	c-4.6-2.1-9.5-2.5-14.2-4.6c-2-0.9-4.1-2.5-6-3.3c-2.8-1.2-5.2-0.4-7.9-0.8c-2.7-0.4-4.9-1.7-8.1-1.5c-2.3,0.1-4.9,1.2-7.4,1.5
	c-3.6,0.3-9.7,0.1-13.6-1.6c3.8,1.2,9.4-0.4,13-0.4c2.9,0,4.8-0.9,7.4-1.3c2.4-0.4,4.9,0.4,7.2-0.5c-3.4-3.7-8.6-4-12.3-7
	c-4.2-3.3-7.6-6-12.2-8.7c-5-3-8.9-5.4-11.9-10.6c-2.3-3.6-8.1-9.1-8.2-13.2c4.1,3.4,7.2,6.9,10.3,11.1c3.3,4.5,8.2,7.6,12.9,10.6
	c3.8,2.5,9.4,6.2,13.8,7.6c3.2,0.9,5.2,0.3,8.1,2.7c1.9,1.6,3.4,3.3,5.3,4.8c4.5,3.3,7.9,3.2,13.4,4c5,0.8,9.9,4.6,14.7,6.6
	c4.9,2,9.3,3.7,13.5,7.3c3.3,2.8,8.5,6.1,13,5.6c-2.5-5.2-9.1-10.7-13.4-14.8c-5.7-5.6-13.2-8.9-18.8-14.6c-5.7-6-11.1-6.5-18.7-8.3
	c-6.8-1.7-16.2-2.6-21.9-7.3c5.8-0.1,10.3,4.1,16,4.8c6.1,0.7,11-1.5,17.1,1.3c-7.7-8.1-14.3-15.6-23.3-22.3
	c-4.8-3.6-8.2-8.3-12.2-12.6c-3-3.2-11.5-9.8-10.5-14.8c2.4,1.9,4.4,4.5,6.4,6.8c2.7,2.9,5,4.5,8.2,6.8c5,3.4,13.2,7.3,15.5,13.1
	c0.3-9.7-7.6-19.1-9.5-28.5c2.4,6.2,6.2,11.4,9.3,17.2c2.9,5.6,5.2,11.4,8.3,16.8c5.7,9.4,13.5,17.5,21.9,24.4
	c4.2,3.6,6.9,8.7,11,12.5c2.1,1.9,5.2,3,7.3,5c2.3,2.1,4.2,4.6,6.6,6.5c6.5,4.9,7.4-2.7,9.5-8c1.7-4.2,2.3-10.6,1.9-15.6
	c-0.3-4-2.4-9.4-4.5-12.9c-2.9-4.9-8.3-7.6-12.1-11.9c-2.9-3.3-6.2-7.3-10.2-9.4c-3-1.6-13.8-2.8-14-7.3c3.6,2.3,9.1,3.3,13.2,3.2
	c-1.7-4.9-6-10.2-9.3-13.9c-4.4-4.8-6.8-10.5-10.6-15.4c-3.8-4.9-8.5-8.6-13.8-11.3c-4.2-2.1-11.1-5.7-13.2-10.1
	c3.6,4.9,12.6,6.8,18,7.7c-2.4-3.4-3.7-7.6-6.1-11.1c-3.2-4.8-7.4-8.1-11.4-12.1c-6-6-14.2-10.1-19.9-16.2
	c7.2-1.7,14.8,5.4,19.2,10.1s9.5,10.2,11,16.4c4.6-2,3.4-14.2,3.7-18.5c0.5-6.1,2.4-13.9,1.5-19.9c2.1,4.4,0.4,11.3,0,15.9
	c-0.5,5.7-0.3,11.8,0.1,17.5c0.9,11.1,4.5,19.6,11.4,28.2c4.2,5.2,8,11,12.6,16.2c4.4,4.9,8.2,9.3,11,15.2
	c2.4,5.4,6.8,8.5,11.3,12.2c2.8,2.3,9.1,9.9,12.1,9.9c0.9-5.2,2.6-9.3,2.1-14.7c-0.4-4.5-0.9-9.3-1.3-14c-0.8-9.9-1.3-19.9-1.3-30.2
	c0-8.5-5.3-18.8-11.9-24.4c-3.4-2.8-7.4-5.3-11.4-7.4c-3.3-1.7-10.6-2.9-12.2-6.4c4.1-0.3,8.2,1.5,12.6,1.1
	c-0.1-5.3-12.3-11.8-16.2-15.1c-4.5-4-7.4-9.4-10.3-14.7c1.9,1.9,4,3.4,5.8,5.2c5.8,5.2,12.6,9.1,18.2,14.8
	c5.6,5.7,8.9,12.9,13.9,18.8c2.3,2.7,8.3,11.9,11.4,11.3c0.5-7.7,0.4-18.7-2.4-26c-0.8-1.9-1.6-3.8-2.7-5.7c0.5-1.5,1.2-2.9,1.6-4.5
	c3.7-12.5,5.8-24.9,8.3-37.2c-3.4-2.9-7-6.1-10.6-8.6c-3.8-2.7-9.9-3.4-14.4-3.7c-5.4-0.4-11.3-0.3-16.7-0.9
	c-6.2-0.9-10.2-4.9-15.9-7.3c7.3,1.9,12.9,3.4,20.5,3.4c7.3,0,13.5,1.9,20.5,2c-3.6-3.3-8.3-5-12.3-7.6c-3.8-2.5-7.7-5.2-11-8.3
	c-3.6-3.3-6.8-7-9.9-10.9c-2.5-3-7.4-7-7.4-11.1c4,3,6.1,7.6,10.1,10.6c4.8,3.7,9.4,7.4,14.2,11.3c8.5,7,17.1,14,26.1,20.8
	c2.7,2,5,4.4,7.6,6.5c0.7-3,1.2-6,1.6-9c-0.5-0.5-1.2-1.1-1.7-1.6c-13.6-13.5-30.2-27.6-35.5-46.8c2.6,6.1,7.4,11.3,12.2,15.9
	c2.5,2.5,5.2,3.8,7.8,6.1c2.3,1.9,3.8,8,6.6,8c0.9-4.2-1.5-10.6-2.4-14.7c-1.2-5.3-5.8-10.7-6.1-15.9c5.2,4.4,5.7,12.6,8.6,18.4
	c1.7,3.3,2.7,5.2,2.7,8.9c0,3,0.1,5.3,1.5,8.1c2,4.1,4,7,6.8,9.5c0.7-7,0.3-13.9-2-20.9c-1.9-5.8-4.5-11.5-6.2-17.5
	c-1.9-6.4-3.4-12.6-6.6-18.3c-2.6-4.9-6-9.4-8.3-14.4c-2-4.1-6.4-11.7-5.4-15.5c4.2,9,6.5,18.4,12.3,26.9
	c4.2,6.2,8.7,12.1,11.9,18.8c3.3,7.2,3.7,14,6.1,21.5c1.1,3.4,0.9,7.6,1.5,11.3c0.5,3.7,2.3,7.2,2.8,10.7c4.2-2.5,4.9-8.7,7.4-12.6
	c2.5-3.8,6.2-7.8,9.7-11.1c-1.7-0.5-3.2-1.5-4.2-3c2-0.5,8.2-0.3,9.1-2.8c1.1-3-3.2-4-5.2-4.9c-5.7-2.9-8.5-8.7-13.8-12.5
	c-5-3.4-10.9-5.4-15.5-9.4c-3-2.6-7.8-7.8-9.5-11.9c1.6,3.3,6.9,5.2,9.5,7.2c4.4,3.3,8.9,5.7,13.5,8.5c-1.7-3.7-5.8-6.2-7.8-9.9
	c-1.7-3.3-2.4-6.9-4-10.2c-3.3-6.6-8.7-13.5-8.9-21.1c0.8,6.8,4.8,10.2,8.2,15.8c1.7,2.7,1.6,6.2,3.3,8.9c1.9,3,5.7,4.8,8,7.6
	c3,3.6,14.8,24,20.7,19.9c-0.3-4.1,2-8.2,2.8-11.9c0.7-3.2,1.3-6.1,2.1-9.1c-0.8,3.6-0.7,7.7-1.5,11.1c-0.9,4.1-0.7,8.2,0.8,12.1
	c0.5,1.3,1.3,2.8,2.3,4.1c0.5-0.8,0.9-1.5,1.5-2.3c2-3.3,7-10.2,11.4-9.8c-1.6,1.5-3,2.9-4.5,4.6c-2.5,3-4.9,6.1-7.2,9.1
	c3.4,4.8,8,9.5,11.3,13.6c5.6,7,12.3,13.4,20.1,18.3c3.6,2.3,5.2,5.7,8,8.7c2.9,3.3,4,3.4,7.4,1.1c3.2-7,3-17.4,0.3-24.2
	c-1.7-4.2-4.8-8.1-5.6-12.6c-0.3-1.7-0.1-4.4-0.3-7.2c0.9,1.9,1.9,3.4,2.4,4.6c2.3,5.6,4.4,11,6.4,16.4c2.7-10.2,0.1-20.4,0.1-31.1
	c0,6.8,4.2,13,4.1,19.7c-0.1,6.4-2.6,12.6-2.8,19.1c-0.1,4.8-0.1,9.3-1.2,13.9c-0.7,3.2-1.2,3.8,0.7,6.5c3,4.4,7.7,7.4,11.1,11.5
	c3.2,4,6.5,8.1,10.2,11.3c4.1,3.4,7,8,10.9,11.5c6.1,5.6,14.8,5.7,21.2,10.9c4.1,3.4,8,8.1,11.7,11.9c3.6,3.7,7.2,7.7,10.7,11.3
	c2.9,2.9,6.6,5.2,9.3,8.2c1.5,1.7,2.5,5,4.5,5.3c-0.1-3,1.3-5,2-8c0.5-2.7-0.4-4.9-0.5-7.4c-0.4-5.3,1.2-10.2,0.7-15.5
	c-0.4-3.8-0.1-11.4-1.9-14.7c-2.1-4.1-7.8-3.6-11.4-5.6c-4.5-2.4-8.6-5.6-13.6-7c-4.8-1.5-9.9-2.1-14.7-3.6
	c-4.6-1.3-8.7-2.8-12.7-5.6c-3.6-2.4-11.3-5-12.2-9.7c3.7,3.4,7.8,7,12.7,8.6c5.3,1.9,11.4,2.5,16.8,3.8c2.8,0.7,5.8,0.1,8.7,0.7
	c2.9,0.4,5.3,2.3,8.1,3.2c2.4,0.8,4.9,1.1,7.2,2.3c2.5,1.3,4.4,4,6.8,5.2c6.2-9.9,0.7-27.4-3.3-37.4c-2.8-0.4-5.2,0.8-7.9,0.5
	c-2.5-0.3-4-2.3-6.5-2.7c4.4-2.8,7.4-2.4,12.5-2.8c-0.3-5.8-6.4-13.8-12.1-14.7c-8-1.3-16.6,0.7-24.6,0.7c2.4-0.1,3.6-2.1,5.8-2.6
	c1.6-0.4,5.2-0.7,6.8-0.7c5,0,9.5,0.4,14.7-0.1c0.4-2.3-1.3-2.1-2.1-3.8c-1.2-2.5-1.3-4.8-1.2-7.4l-2.6-7.4
	c-2.4-4.8-10.3-5.2-14.8-6.8c-6-2-10.1-5.4-15.4-8.9c-2.3-1.5-4.6-2.8-7.2-3.8c1.3,0.4,2.5,0.8,3.7,1.2c5.4,1.6,10.9,3.2,16,4.2
	c5.3,0.9,11.3,3.3,16.6,3.8c-4.4-5.4-7.8-9.7-13.9-13.4c-5.6-3.4-11.9-4.8-18.2-6.9c-6.8-2.3-13.1-4.6-20.1-6.8
	c-7.3-2.1-15.4-0.7-22.7-3.2c7.4-5.8,19.3,1.2,27.3,1.9c4.5,0.4,8.1,0.9,12.2,2.7c3.6,1.5,7.8,4.2,11.8,3.6c-5.6-1.1-9.8-5.7-14-9.3
	c-4.8-4-9.5-7.2-14.6-10.5c-5.3-3.4-10.5-5.8-16-8.7c-2.9-1.5-5-3.7-7.6-5.7c-2.1-1.6-5.3-2.9-6.6-5.3c2.9,1.1,6.5,2,9.4,3
	c-5.3-8.1-9.5-17.6-17.2-23.6c-8.6-6.8-18.7-9.3-27.4-15.4c4.6,3.3,12.1,3.2,17.2,6c8.7,4.6,16.6,11.1,22.9,18.9
	c3.6,4.4,5.3,9.4,9.1,13.6c3.3,3.7,6.2,6.2,10.2,9c4.6,3.3,10.1,4.2,14.8,7.4c4.4,2.9,7.8,7.2,12.2,10.1c4.4,2.9,9.1,6,13.9,8.3
	c3.8,1.9,11.3,9.1,14.7,9.1c-3-6.6-4.2-15.4-6-22.8c-1.5-6-4.1-8.5-9.4-11.5c-3.8-2.3-6.5-5.7-9.5-9c-7-7.6-12.6-15.8-21.3-20.3
	c-8.5-4.5-17.5-7.7-23.7-15.2c-6.9-8.6-15-10.7-23.7-16.8c7.8,2.7,16.2,6,23.2,10.5c4.4,2.8,5.7,7.2,10.1,10.1c3.7,2.5,8,5,11.9,7
	c3.8,2,8.7,2.4,12.5,5c3.4,2.4,6.1,6.2,8.6,9.5c4.6,6.1,7.6,13.6,15.1,16.2c-0.5-3.8-2.1-8-4.2-11.4c-1.3-2.3-3.4-4.2-4.4-6.8
	c-0.9-2.4-0.8-5-1.7-7.4c-1.3-4-3.6-8.6-5.6-12.1c-2.4-4.1-6-6.2-9.3-9.5c-6-6.1-12.7-12.9-21.1-15.1c-4.5-1.2-9.4-2-13.9-2.8
	c-2.5-0.4-12.7-0.8-13.4-2.8c2-1.6,3.2,0.3,5.3,0.5c2,0.3,3.4-0.4,5.4-0.5c2.8-0.3,7.2,0.9,9.5-0.5c4.5-2.9-1.5-12.1-3.6-16
	c7,6.5,8.2,15.8,16.8,20.5c8.5,4.6,14.7,12.1,22.7,17.4c-6.4-6-10.1-16-13.5-24.6c-1.7-4.2-2.3-8.5-6.5-11.4
	c-3.8-2.5-8.6-3.3-12.7-5.6c-8.9-4.9-14.6-14.2-22.8-20.1c-5.8-4.2-17.2-12.3-18.2-19.9c1.5,2.1,2,4.1,4,6c2.1,1.9,5.6,3.2,8,4.6
	c4.9,3.2,9.1,6.6,13.5,10.6c5.4,4.8,10.3,9.3,16.8,12.3c4.5,2.1,8.6,4.6,12.9,6.9c-3.2-2.9-4-6.8-5.4-10.5
	c-1.7-4.4-4.4-8.7-6.9-12.7c-2.3-3.6-4.8-7.2-6.4-10.9c-2.7-6-4-6-10.2-5.8c-9.8,0.1-18.9-4.4-28.2-6.8c-5-1.3-5.6-3.7-9.4-7.2
	c-3.6-3.3-8.5-4.8-10.9-9.3c7.7,4.2,14.6,12.5,22.4,15.8c3.7,1.6,24,4.9,25.3-0.4c-7.3-3.3-14.6-4.2-21.6-9.4
	c-6-4.4-10.7-9.9-16.7-14.4c-6.4-4.8-10.2-13.4-18.2-14.7c-4.8-0.8-9.7,0.9-14-0.8c-3.3-1.3-7.4-4.5-9.1-7.8
	c3.6,2.5,6.9,4.5,11.1,5.2c2.5,0.4,4.9,0.3,7.4,0.8c2.3,0.5,4.9,1.9,7.3,1.2c-0.7-6.4-10.2-9.4-14.7-12.9
	c-4.8-3.6-8.7-10.9-11.9-15.9c3.8,1.3,8.5,6.2,11,9.4c3.8,4.5,7.2,7.9,11.5,11.9c7.7,6.8,11.1,16.7,21.9,18.9
	c-2.5-2.9-5.6-5.6-7.7-8.7c-2.4-3.7-4.2-7.7-7-11.1c1.7,2,2.7,4.1,4.6,6c2.3,2,5.2,3.2,7.6,5.2c4.1,3.6,4.5,7.8,6.8,12.2
	c1.9,3.4,4.6,7.3,8.1,9.4c2.7,1.6,9,5.2,12.1,4.6c0.7-3.7-6.6-7.3-4.8-11.3c1.7,3,3.8,4.2,6.1,6.9c2,2.3,2.1,5.8,4.4,7.7
	c3.8,3.3,8,2.3,11.1,7c1.5,2.1,2.4,4.6,4,6.8c1.9,2.4,4.6,3.8,6.4,6.5c5.8,8.7,12.3,20.9,15.2,30.9c1.5,4.8,2.3,10.2,4.6,14.7
	c2.8,5.2,7.8,9.4,10.6,14.8c2.8,5,5.3,10.3,8.3,15.4c2.5,4.1,4,9.4,6.4,12.7c2.1-17.9-13.8-31.9-21.3-46.6c2,2.6,4.9,4.6,6.6,7.3
	c2.3,3.6,2.9,6.1,6.2,9.3c2,1.9,4,3.6,5.6,5.8c1.5,2.3,2.1,5.2,3.8,7.3c-1.2-10.1-0.9-21.2-5.6-30.5c-4.9-9.7-10.6-19.2-15.1-29.2
	c-2.8-6-6-11.9-8.9-18c-2.5-5.4-4-9-9.4-11.4c-8.1-3.7-15-10.3-20.5-17.4c4.5,2.3,7,8.7,11.9,11.1c4.8,2.4,11.4,1.2,15.4,4.6
	c-1.9-4.6-2.8-9.7-5.6-13.6c-2.4-3.4-5.3-6.4-8-9.5c1.7,1.9,3.8,3.7,5.2,5.3c7.3,8.9,9.4,18.7,14.7,28.4c5.2,9.5,7.9,18.6,13.5,28.1
	c5,8.7,12.6,19.6,13.5,29.5c0.5,5.7,1.3,11,1.3,16.8c0,6.8,2.5,11.7,4,18.2c1.2,5.2,1.7,10.5,3.6,15.9c1.7,5.3,3.2,9.3,4,15
	c1.6,11.1,5.7,22.8,9.3,33.5c3.6,10.7,5.7,20.9,6.6,32.2c0.8,9.4,4.2,19.6,10.2,27.3c-0.7-8,2.8-15.4,3.3-23.2
	c0.5-8.5-0.8-16.8-2-24.8c-1.3-8.7-1.3-18-2-26.9c-0.4-4.9,0.4-8.9,1.5-13.4c0.9-4,0.4-8.3,0.5-12.5c-2-2.1-0.4-9-0.7-12.2
	c-0.4-4.5,0-8.5,0-12.9c0-7.7-1.6-17.4-5.2-24.2c-2.4-4.5-2.5-7.7-3.7-12.7c-1.1-4.2-4.1-7.6-5.7-11.4c-3-7.7-4.4-16-8.3-23.3
	c-2.3-4.2-4.9-7.9-6.5-12.2c-2.3-6.2-4-8.5-9.4-12.6c-4.6-3.4-10.1-6-14.3-10.1c-4.2-4.2-8-7.7-12.6-11.4c-4.5-3.7-7.3-8.9-11.4-13
	c-4.9-4.8-8.1-3.2-13.9-3.4c-9-0.5-23.6-0.9-30.7-7.8c9,5.8,22.1-1.1,31.3,3.8c-6.9-3.6-13.1-8.3-21.3-9.9c-4.5-0.9-9-3-13.2-5.2
	c4.9,0.8,9.8,0.1,14.6,1.7c8,2.5,15.2,5.6,22.8,8.2c10.3,3.7,12.6,12.6,20.1,19.5c7,6.5,15.9,10.2,22.9,16.6
	c-2.7-4.1-6.9-7.2-9.7-11.1c-2.5-3.7-4.2-7.3-7.3-10.7c-2.9-3.3-6-6.9-9.3-10.1c-3.3-3.3-6.2-7.9-10.2-10.6
	c-6.2-4.2-12.9-7-18.7-11.7c-3.8-3-7.3-5.8-10.7-9.3c-3.3-3.3-9.1-6.4-11.1-10.6c3.7,3,6.1,6.1,10.5,8.1c4.8,2.3,9.1,5,13.9,7.4
	c4.4,2.1,9.9,4.5,13.4,7.9c3.2,3,6.1,6.5,9.4,9.4c-0.8-3.8-4.4-7.2-6-10.7c-1.3-3-1.7-6.1-2.8-9.3c-2.5-7.2-7.8-14-11.8-20.3
	c-4.2-6.6-9.3-12.9-13.8-19.5c-2.6-4-6-7.8-9.3-11.4c-4.2-4.6-12.5-11.3-12.7-17.9c11.9,11.5,19.1,29,34.7,35.9
	c-0.7-5.4-6.1-11.3-9.1-16c-3.7-5.8-5.4-12.5-9.4-18.2c-6.2-8.9-17.9-22-16.3-34.1c1.6,10.5,12.1,18.9,16.3,28.6
	c1.9,4.4,4,8.3,7,12.3c2.1,2.6,6.8,10.7,10.1,11.1c1.9-8.1-9.4-18.7-11.9-26.1c-1.2-3.4-8.6-26.4-2.8-26.8c0.4,2.8,1.5,4.9,1.5,7.9
	c0.1,5.8-0.5,11,1.9,16c2.3,4.9,5.8,9.3,8.3,13.9c2.8,5,3.2,9.8,4.5,15c0.8,2.8,2.4,4.6,3.6,7.3c0.9,2.1,0.9,4.5,1.3,6.9
	c1.6,9.7,11,15.8,12.5,25c0.9,5.8,0.5,10.5,2.6,16c1.9,4.8,4.5,9.8,7.4,14.2c6.5,9.9,15.2,18.2,21.9,28.1c2.8,4.1,4.6,10.1,8.3,13.4
	c2,1.9,3.6,1.5,5.4,4c1.5,2,1.5,4.4,2.4,6.5c2.1,4.9,6.1,9.8,8.7,14.4c3.2,5.4,5.7,11,8.3,16.7c4.2,8.9,8.9,17.5,13,26.6
	c-0.1-8.2,4.5-16.6,2.1-24.8c-1.9-6.6-8.3-11.9-13.1-17.1c-6.8-7.6-12.9-18.4-17.5-27.7c-5-10.3-9.8-20.1-15.8-30.2
	c-5.4-9.1-6.4-19.3-13.8-27.4c-3.7-4.1-8.1-7.6-11.8-11.5c-3.2-3.4-10.1-10.6-10.1-15.4c4.4,5,8.7,11.3,13.9,16
	c2.9,2.6,6.1,4.4,8.9,7.3c1.7,1.7,3.7,4.6,6.4,4.1c1.1-6.8-7.8-17.5-10.6-23.5c-4.2-9-7.8-18.7-11.3-28.1c-1.3-3.7-1.9-8.1-4.4-11.4
	c-2.7-3.6-6-6.2-8.3-10.2c-2.3-3.8-4.2-8.1-6.1-12.1c-1.9-4-5.7-8.7-5.6-13.2c3.4,3.8,4.9,10.1,7.6,14.6c2.3,3.8,7.2,12.2,11.8,13.4
	c0.7-10.6-11-20.5-9.9-31.3c6.4,7.7,9.1,19.2,12.3,28.6c2.4,7.3,5,24.6,12.5,28.1c3.2-5.8-0.8-15.5-1.9-21.5
	c-1.6-8.7-2.5-17.6-2.8-26.6c7.6,7.4,4.6,19.2,5.4,28.6c0.5,5.7,1.9,11.4,1.5,17.2c-0.5,6-0.8,9,2.1,14c5.6,9.7,10.9,20.1,12.6,31
	c0.9,5.4-0.3,11.4,0.7,16.8c0.8,4.5,4.8,9.9,8.1,13.4c8.2,8.6,10.7,20.1,16.6,30.2c2.4,4.1,5,8.3,8.3,12.1
	c3.7,4.1,9.1,8.5,10.6,13.9c-0.1-0.7-0.1-1.9,0-2.5c2.5-9.7,0.8-22.7-2.1-31.5c-3.3-10.1-3.3-20.5-5.7-30.9
	c-1.3-5.6-2.5-9.9-5.7-14.7c-3.3-4.9-7.8-7.8-11.8-12.2c-3.7-4.1-5.3-10.2-9.5-13.8c-4.2-3.4-9.3-6.6-8.7-13.4
	c1.1,3.4,4.4,6.4,6.9,9c3.2,3.4,5.8,7.2,8.3,11c2.9,4.2,6.9,5.6,10.3,9.3c3,3.2,5.4,6.4,8,9.8c-1.7-2.1-0.4-6.4-0.7-9.1
	c-0.3-3-1.9-6.1-2.5-8.9c-1.3-4.9-2.1-8.3-5.3-12.7c-3.3-4.4-5.3-8.2-7-13.3c-1.9-5.2-2-11.3-4-16c-1.9-4.5-6.1-7.4-7.3-12.2
	c-1.1-5-0.5-10.5-2.1-15.2c-1.3-4-3.8-8.3-6.1-12.1c-4.4-7-8.2-14.4-11.4-22c3.3,6.4,8.3,12.2,12.5,17.6c3.2,4.2,5.3,8.1,7.2,13
	c1.7,4.6,1.3,9.3,2.8,13.9c1.3,3.8,4,6.5,6.1,10.1c2,3.4,2,9,3,13c1.3,5,2.9,8.3,5.7,12.7c2.1,3.4,3.8,10.7,7,12.7
	c0.7-2.7-0.9-6-1.2-8.6s0.3-5.4,0-8.1c-0.5-5.2-1.7-10.2-2.8-15.4c-1.9-9.9-1.2-20.4-2-30.9c-0.7-8.9-8.2-17.1-13-24.8
	c-2.4-4-3-9-5-12.9c-2.7-5-4.1-8.5-3.3-14.6c3.3,2.8,4.4,9.4,6.8,13.4c3,5,4.5,10.5,8.7,14.6c4.1,4.1,5.8,8.6,7.2,14.2
	c1.3,5.4,0.9,11.7,3.4,16.6c0.1-3.8,3-8.3,4.5-12.1c1.7-4.4,1.5-8.3,1.5-13.2c0-10.2-1.9-19.2-2-29.3c0.7,1.5,1.2,3.4,1.5,5.2
	c0.7,5.8,1.2,11.7,2,17.5c0.8,5.6,2,11.1,0.8,16.8c-1.2,5.2-3,9.3-3.4,14.7c-0.3,3-1.1,5.7-1.3,8.7c-0.3,2.6,0.5,5.6-0.1,8.1
	c-0.5,1.9-1.6,1.9-1.7,3.8c0,0.4,0.4,2.9,0.7,3.4c0.9,2.8,2.3,5,2.5,8.1c0.7,6,0.3,12.2,0.7,18.2c0.4,5.8-0.4,11.9,0.7,17.5
	c0.5,2.9,1.7,6,2.1,8.9c0.3,2.5-0.8,5.7,1.3,7.3c4.2-5,8.2-14.3,10.1-20.9c2.3-7.7,4.8-15.4,5.4-23.5c0.7-8.3-1.7-15-4.8-22.1
	c-2.8-6.8-9.1-16.7-3.8-24.1c2.7,1.3,1.6,4.8,1.9,7.3c0.3,3.2,1.2,5.2,2.5,8.1c2.1,4.9,3.8,9.8,5.7,14.7c3.7,0.7,11.9-8.6,13.5-11.9
	c1.7,3.4-8.6,14.3-10.5,18c-3.6,7-3,15.2-5.7,22.8c1.5-1.7,3.3-4.2,4.6-6.5c-0.1,7.4-5.2,16.6-7.3,23.9c-2.4,8.1-11.1,17.9-8.2,26.4
	c1.7,4.9,2.3,7,2.1,12.2c-0.1,5.7,1.9,9.9,3.2,15.2c1.2,4.5,1.9,9.5,2.7,14c0.8,4,0,8.6,2,11.9c0-3.3,2.3-6.4,3.3-9.1
	c1.1-2.8,1.9-5.7,2.9-8.7c2.1-6.2,3.2-11.3,3.2-18.3c0-7-1.3-13.1-1.3-20c0-5.4,0.4-10.9,1.2-16.2c0.4,3.2,1.3,6.4,1.7,8.9
	c1.1,6.8,1.2,14.3,1.2,21.2c1.3-3.8,2.5-6.9,2.7-11.3c0.1-3.8,0.9-8.5,2.7-11.8c4.2,4.2,1.2,9.7-0.5,14.3c-2,5.6-4.1,11.8-4.6,17.8
	c-0.3,2.7,0.7,5,0.5,7.3c-0.1,4.1-2.8,7.8-4.8,11.3c-2.7,4.8-3.7,8.9-4.8,14c-0.9,4.2-1.1,9.1-1.9,13.5c-0.8,4.8,0.4,8.6,0.7,13.4
	c0.4,8.3,0.7,16.4,0.7,24.8c0,3.8-0.4,13.1,1.2,16.2c0.5-6.4,1.6-12.3,2.1-18.8c0.5-7,0.8-14.4,1.5-21.5c0.5-6.6,0-13.5,0-20.1
	c0-6-1.1-14.4,1.2-19.9c4.2,4.1,1.6,19.5,1.6,25.3c0,3.8,0,7.6,0,11.4c0,3.8,1.9,7.4,2.1,10.7c0.3,4.4-2.9,9.1-3.4,13.5
	c-0.4,3.4-1.5,7.3-1.3,10.6c0.1,6.1-0.3,15.9,1.9,20.9c1.6-2.9,3.3-6.2,5.7-8.5c2.4-2.4,4.5-5.4,7-7.7c3-2.6,6.1-3.8,8.9-7.3
	c2.4-2.8,5.8-4.9,7.8-7.6c4-5,5-11.8,12.2-14.8c6.8-2.9,13-5,20.5-5.2c-1.5,0.9-5.2,1.7-7.2,2.1c-6.2,0.9-11,2.6-16.2,6.6
	c-2.4,1.9-2.7,3.2-3.4,6c-0.3,1.1-0.7,3-1.3,4.1c-1.1,1.7-2.1,1.7-3.2,2.6c-4.1,3.7-7.2,7.4-10.7,11.4c-2.9,3.4-7.7,6.1-9.9,10.2
	c-2.7,4.8-4.5,9.1-7.6,13.9c-2.9,4.8-2.5,10.6-3.3,16c-0.8,5.6-1.2,11.3-2.1,16.8c-0.5,2.9-0.5,5.7-0.5,8.7c0,1.9-0.5,6.9,0.7,6.1
	l-0.7,11.4c0.5-4.2,9.1-7.2,11.9-10.2c3.8-4.1-0.1-11.3,3.3-14.6c0.4,3.3,0,6.6,0.3,9.9c5.3-4,8.2-9.8,13.2-14.2
	c6.4-5.6,8.6-8.9,10.2-17.2c5.2,4.1-3.8,15.6-7.3,18.9c2.8,0.9,5.7,2.1,8.2,3.8c-5-0.3-6.8-2.8-11.3-0.1c-4.1,2.4-6.1,4.8-9.3,8.2
	c-6.1,6.8-12.2,13.6-18,20.9c-1.5,1.7-3.7,3.3-4.2,5.2s-0.1,5.4,0,7.4c0.4,4.6,0.9,9.5,1.3,14c0.8,9.7,1.6,19.3,0.8,28.8
	c9-2.1,21.5-5.8,28.8-12.5c-1.2,4.9-9.5,9.3-13.6,11c-3,1.3-5.3,2.4-8.6,2.9c-1.6,0.3-3.6,0.4-4.9,1.2c-1.6,0.9-1.6,2.6-3.7,3
	c-0.7,8.6,1.3,15.8,2.1,24c0.7,8.2,1.1,16.6,2,24.8c7.8-2.3,12.6-18.4,15.2-24.8c2.3-5.2,4.1-8.3,4.6-14c0.4-3.7,2.4-10.5,5.4-13.1
	c-1.5,2.4-0.8,7-1.3,9.8c2-2.1,10.7-11,13.2-8.9c-5.2-0.5-10.1,10.9-12.1,14.8c-3.2,6.4-6,11.9-9.4,18c8.7,0.7,16.4,2,24.8,3.4
	c7.2,1.2,14-4.6,18.7-9.7c-2.4,2.9-4.4,6.2-7.8,8.5c-1.5,0.9-4,2.8-5.4,3.3c-2.7,0.9-4.6-0.3-7.2,0c6.1,4.6,12.9,5.7,19.7,8
	c-7.3-0.3-13.6-3-20.5-4.8c-3.4-0.8-6.1-2.8-9.4-3.6c-3.6-0.9-6.4,0.5-10.1,0.1c-4.4-0.4-4.8-0.7-6.9,3.3c-1.7,3-2.3,5.4-3.2,8.7
	c-2.1,7-7.3,11.3-6.8,19.5c0.7,11.4,4.1,22.9,4,34.2c0,5.6,0.4,10.6,0.8,15.9c0.4,4.8-1.3,11,1.7,15.1c1.6,2.3,2.9,2.9,3.7,5.7
	c0.7,2.4,0,5,0.5,7.6c1.1,6,6,6.1,10.6,3.2c9.8-6.1,6-18.7,7.4-28.5c1.1,2,0.7,5.3,2.7,6.4c2.1-4.4,3-7,3.6-11.9
	c5.2,0.3-1.5,10.5-0.7,13.2c7-0.4,10.6,1.7,16-4.6c2.5-2.9,4-11.1,7.3-12.2c0.9-3.4,4.5-11.9,7.3-13.9c-1.2,2.3-2.8,4.8-2.3,7.3
	c1.3-0.4,2.4-0.5,3.3-1.7c-0.7,1.7-2.4,2.9-3.3,4.4c4.8-1.5,9.4,1.3,11.7,6.1c-2.3-2-10.1-4.1-13.1-2.7c-3.2,1.6-3.7,8.3-6.2,11.3
	c-5.4,6.5-14.8,9.1-22.4,10.3c4.5,5-2.8,13.1-4.4,17.9c-10.1-1.3-12.3,17.5-11.1,24.2c0.7,4.4,1.9,7.4,1.9,12.1
	c0,4.4-0.7,8.3-0.7,12.7c0,7.6,0,14.8,0,22.4c0,9,0.4,16.7,3.2,25.2c2,5.8,4.2,11.7,6.1,17.6c2.3,7.3,2.9,15.2,4.8,22.7
	c2.8,11.8,3.6,23.2,7.9,34.3c2.1,5.4,3.6,11,4.2,16.8c0.4,4.4,2.9,9.8,3.2,14.3c0-0.1,0.1-0.1,0.1-0.3l2.4,7c1.6-1.1,2.8-1.1,3.7-3
	c0.7-1.6,0.4-5,0.7-6.8c0.7-4,1.3-8.1,2-12.1c1.3-8.3,2.8-16.6,4.8-24.8c2.7-10.5,7.8-19.9,11.4-30.2c3.4-9.8,6.5-19.7,9.7-29.5
	c3.4-10.3,6.9-22,6.9-32.9c0-11.9,0.1-23.7-0.7-35.6c-0.7-11.4-1.7-22.4-2.7-33.5c-0.8-9.5,1.5-58.4,3.8-67.7
	c1.1-4.4,3.4-8.5,4.2-12.7c0.8-4.4,0.3-10.3-0.1-14.7c-0.4-0.3-0.8-0.3-1.1,0c-1.1,4.1-4.2,8.1-5.3,12.2c-0.9,3-1.1,3-3,5.7
	c-0.9,1.3-2.3,3-2.7,4.8c-4.5,0.4-9.8,2.1-13.8-1.3c2.5,1.7,3.4-1.2,5.7-2.1c3.4-1.3,5.2-0.3,8.2-3c5.2-4.6,2.5-8.3,3.3-14.8
	c1.9,0,2.4-0.8,3-2.3c1.2-2.6,0.4-1.7-1.2-3.8c-1.5-2.1-3.4-4.8-5.6-6.5c-2.3-2-6-2.3-8.1-4c-2-1.6-3.7-5-4.4-7.4
	c4.1,2.9,8.2,4.8,12.5,7.4c-3-5.3-4.9-10.3-6.5-15.9c3,4.4,5.7,8.5,8.2,13.2c1.9,3.3,7.6,13.1,11.8,12.6c0.1-3.8-1.3-9-2.4-12.7
	c-1.1-3.7-4.6-4.9-7-8c-6-7.6-10.9-15.5-18.2-22.1c-6.9-6.1-13.9-11-21.3-16.3c-8.5-6.1-14.6-13.9-24.1-18.5
	c-4.6-2.3-8.6-4.6-12.6-7.8c-2.8-2.1-11.8-7.6-11.7-11c8.1,5.8,17,10.9,26,15.1c-4.5-9.3-17-14.4-19.7-24.6
	c6.1,2.8,12.2,11.3,15.9,16.8c4.1,6.1,11.8,10.7,16.8,16.4c-0.5-4.4-4.1-9.9-4-14.3c2.8,2.4,5.6,5.7,6.1,9.1
	c0.8,5.3,0.5,6.5,4.2,10.7c2.4,2.8,5.3,6.2,8.6,8.1c3.3,1.9,9.1,1.3,11.4,4.6c0.9,1.5,0.7,3.3,1.9,4.9c1.1,1.6,2.7,2.8,4.1,4.1
	c3,2.8,5.8,5.7,9,8.3c3.3,2.8,6.6,4.6,9.4,8.1c1.9,2.3,3.8,5.8,7,6.1c0.4-4.8-0.7-8.5-0.5-13.4c0-2.3,0.7-4.2,0.7-6.8
	c0-2.9,0-2.5-1.2-5.6c-3.2-7.3-6.8-17.5-12.7-23.3c-6-6-14.4-8.1-22.1-10.2c-4.4-1.2-8.7-3.7-13.5-4.6c-3.7-0.7-10.5-0.8-12.7-4.5
	c4.2,1.3,8.7,1.7,13.1,2.7c-6-2-11.3-5.8-15.1-10.9c-2.9-3.8-9-10.2-8.2-15.1c4.9,8.1,11.3,14,19.5,18.7c7.6,4.2,16.6,9.7,24.9,11.3
	c4.5,0.8,8.9,1.5,12.7,3.8c4.1,2.5,4.9,6.8,8.1,10.1c3,3.2,6,5.4,7.8,9.5c1.2,2.7,2.3,9.4,4.8,9.9c-0.3-5.2,2.7-9.8,1.3-15.2
	c-0.5-2-2.1-3.8-3.3-5.4c-2.1-2.9-1.7-3.4-2.5-6.8c-1.5-5.8-7.7-6-11.3-10.1c-3.3-3.8-5.3-7.7-9.5-10.9c-3.4-2.6-7.2-6.4-10.9-8.3
	c-4.5-2.5-9.5-2-13.9-4.6c-2.3-1.3-3.4-2.1-5.8-3c-1.7-0.5-4.1-1.2-5.7-2.4c-2.8-2.3-5-7.6-6.5-10.7c5.4,6.5,13.2,10.7,21.3,12.5
	c-0.4-2.9-4.1-3.2-5.2-5.4c-0.9-1.9-0.1-6.2-0.1-8.3c1.3,3,2.5,6.9,4.8,9.4c2.5,2.8,5.6,2.9,8.7,4.4c7.2,3.3,11.9,8.5,16.3,14.7
	c4.6,6.6,8.6,9.1,15.9,12.5c5.8,2.5,7.7,9.9,12.1,14.4c-0.1-4.1,1.6-12.5-0.7-15.9c-2.5-3.7-10.3-2.5-13.4-7.2
	c4.2,2.3,8.3,1.5,13.2,0.9c0.5-5.2-5.6-12.1-9.1-15.5c-2.5-2.5-5.4-3-8.2-4.6c-3-1.7-3.7-3.6-5.8-6.1c-3.7-4-10.1-8.5-15-9.8
	c-6.4-1.7-11.7-4.1-16.8-9.1c2.3,1.3,3.7,3.7,6.1,4.5c2,0.5,7.4,1.1,9.4,0.5c-5-6-9.4-12.6-14.8-18.5c-5.7-6.2-13.1-13.4-16.7-20.7
	c8.3,9,20.7,16.8,27.3,27.2c-2.5-3.4-3-10.9-3-15.1c0.9,5.8,4.8,12.5,6.8,17.9c2.5,7,9.8,11.4,15.2,16.8c2.8,2.8,5.6,6.1,8.9,8.1
	c2.9,1.7,5.7,2.3,8.2,5.2c1.1,1.3,1.5,2.9,2.7,4.2c1.1,1.2,2.5,1.6,3.3,2.5c1.9,2,4.2,6,4.5,8.7c2.1-12.9,2.8-28.1,0.7-40.7
	c-1.1-6.4-1.3-13.4-1.3-20.1c0-6.1,1.2-14.2-1.5-19.5c-4.4-8.3-11.7-13.8-15.5-22.7c-2-4.6-2.5-9.7-3.7-14.4
	c-1.1-4.5-3.2-8.9-4-13.4c-0.5-2.8,0.1-4.9-1.3-7.4c-1.1-1.9-3.3-3-4.8-4.8c-2.9-3.6-5.4-8-8.1-11.9c-2.8-4.2-5.2-8.5-8.3-12.6
	c-2.1-2.6-3.3-6.4-5-9.5c4.4,4.9,10.2,9,13.4,14.7c3,5.4,6.2,12.7,12.6,15.4c-1.2-3.7-1.7-8.3-3.3-11.9c-1.6-3.6-3.6-6.8-4.1-10.7
	c-0.5-5.7-0.4-11.1-1.3-16.8c-0.4-2.1,0-6.6-1.2-8.2c-0.9-1.3-4.2-1.9-5.6-2.5c-8.6-4-12.1-14.7-14.7-22.8
	c-1.5-4.6-1.7-9.8-2.9-14.7c-0.7-2.9-1.5-5.6-1.2-8.7c0.3-2.5,1.3-4.9,1.3-7.4c0-5-1.3-10.2-1.3-15.4c0-2.9,0.3-5.8,0-8.7
	c-0.3-2.5-1.5-4.6-1.3-7.2c2.4,2.1,3.4,6.6,6.1,7.8c2.3-3.7-1.3-10.3-1.9-14.2c-0.7-5-1.7-10.7-1.5-15.8c1.2,8.2,5.8,16.2,6.1,24.6
	c0.3,10.1-4.2,19.1-2.5,28.8c1.5,8.3,0.1,17.4,2.7,25.7c2.8,8.9,7,13.5,13,20.3c-2.3-6.9-5.7-14.2-7.2-21.6
	c-1.3-7.4,0.4-15.4-0.8-22.8c-3.6-21.3,7.6-42.8,1.5-63.7c-1.6-5.4-4.5-10.2-6.5-15.5c-1.9-4.8-3.2-9.8-5.3-14.2
	c-2.3-4.6-4.4-8.9-5.7-13.8c-1.3-4.8-2.7-10.9-6.4-14.7c4,2.8,5.8,6.2,7.7,10.5c1.6,3.7,3.7,7,5.4,10.7c2.3,4.8,3.6,9.5,6.2,14.2
	c2.1,3.7,4.5,6.4,5.8,10.5c2-3.8,0.4-13.8-0.7-17.9c-1.2-4.9-4-9.4-5.3-14.2c-1.2-4.9-2-10.5-1.5-16c0.3-2.6,1.2-5.2,1.3-8.1
	c0.1-2.8-0.5-6,0.5-8.5c1.1,8.3,0.8,16.4,2.1,24.6c1.3,7.7,4.1,13.8,6.2,21.3c1.2,4.5,0.5,6.9,0,11.5c-0.4,3.8,0.5,8.1,0.5,12.1
	c0,4.2,1.6,6.8,2,10.7c0.5,4.4-1.2,7.8-2.1,11.8c2.1-1.6,5-3.6,6.6-6c2.1-3.3,1.1-7.4,3.6-10.3c-0.1,4-1.5,9-2.8,12.5
	c-1.5,4-5,6.9-6.9,10.7s-1.6,9.3-2.5,13.4c-0.9,4.2-0.3,8.3-0.7,12.7c-0.8,9,1.2,16.6,2,25.6c0.4,4.4,3,7.7,5.6,11.3
	c2.5,3.4,2.9,6.1,3.8,10.2c1.3,5.4,3.7,9.8,4,15.5c0.3,3.2-0.1,5.8-0.8,8.7c-0.5,2.3-2.1,4.4-1.9,6.8c0.4,2.9,2.1,5.8,2.9,8.7
	c1.1,4.4,2,8.9,3.7,12.9c2.3,5.3,2.3,11.1,3.7,16.7c2.8,10.6,4.5,21.9,7.3,32.9c1.2,5.2,4.5,10.2,7.2,14.7c1.9,3.2,3.7,9.5,6.8,11.3
	c2.7-3-0.3-9,0.1-12.7c0.4-4.1,1.7-8.1,1.5-12.7c-0.4-4.6-0.7-9.3-0.7-14c0-4.1,1.1-9.4,0.1-12.9c-2-7.4-9-14.8-12.5-21.9
	c-1.6-3.3-3-5.8-5.8-8.2c-2.4-2.1-5.3-4.4-6-7.3c2.1,1.2,5.7,2.5,7,4.8c-5.2-12.2-12.2-21.9-12.5-35.4c1.6,1.7,2.5,4.8,4.6,5
	c0.3-2.4,0.1-4.4,0.8-6.6c0.5-1.6,1.6-2.5,2-4.1c0,3,1.5,5.8,1.3,8.7c-0.3,3.3-1.9,6.5-1.2,10.1c0.5,2.8,2.7,5.8,3.6,8.5
	c1.1,3.2,2.4,6.2,4.1,9.4c2.8,5.7,3.6,12.1,6.5,17.6c2.1,4,5.4,11.5,9.3,14c2.4-3.3,1.9-9.3,2.1-13.4c0.5-5.4,0-11.3,0-16.8
	c0-11.1,0.8-19.9-2.9-30.2c-3.4-9.7-4.6-19.9-7.8-29.5c-1.7-5.3-3.3-10.6-6.2-15.5c-2-3.3-6-8.7-5.8-12.6c0.8,0.5,2.4,0.9,3.2,1.9
	c-0.7-4.5-3.7-8.9-4.5-13.4c-1.2-5.7-2.4-11.7-3.6-17.5c-2.1-10.9-1.6-22-1.9-33.4c2.6,7.9,3.2,16.4,4.8,24.6
	c1.3,7.2,5.2,15.2,4.8,22.8c3.3-1.7,2.5-9.1,3.4-12.7c1.1-4.2,1.2-9.1,2.5-13.2c0,3.4,0.1,6.6-0.5,9.9c-0.5,2.9-1.7,4.8-1.5,8.1
	c0.1,3,0.5,4.9,0,7.9c-0.3,2-1.1,3.8-0.7,6.1c1.3,8.2,7.2,15.1,8.6,23.5c1.5,8.6,2.5,17.6,4.8,26.2c1.3,4.9,4,9.1,4.8,14
	c0.7,4,1.2,8.9,2.6,12.5c2.1-4.2,3.4-8.2,3.3-13.2c0-5,1.7-9.4,2-14c0.5-9.5-1.3-19.6-0.5-29.4c0.9-11.1,0.3-22.3-1.5-33
	c-1.6-10.1-2.3-21.5-8.7-29.5c-5.8-7.3-14.4-12.3-18-20.8c-2.1-4.9-4.5-9.4-5.4-14.7c-0.5-3.6-1.1-4.4-3.2-7.4c-1.3-2-2.8-4.1-2-6.6
	c2,1.2,2.1,4.1,3,6.1c1.2,2.8,3.6,4.8,5,7.2c2.9,4.6,4.2,10.1,6.8,14.8c4.2,8.1,14,15,20.7,21.2c-0.8-6.1-2.3-12.5-2.8-18.5
	c-0.5-6.4-0.9-12.9-4.9-18c-3.7-4.9-9.4-5.3-12.5-10.9c-3-5.6-7.7-12.3-6.9-19.2c4.2,7.2,9,18,16,22.5c-2.1-4,0.1-13.2,0.1-18
	c0-7,1.3-13.4,1.3-20.5c0,9.7-0.1,19.2,0.7,28.6c0.4,5,2.6,9.3,4.2,14c1.6,4.6,2,9.4,3.2,14c2.3,9,3.3,18.2,4,27.6
	c0.4,4.8,0.3,9.4,0.7,14c0.4,4.4,2.7,8.6,3.4,12.7c2,10.7,2.4,21.9,3.3,32.9c0.5,5.7-0.7,11.5-0.7,17.4c0,6,0.1,11.9-0.7,17.6
	c-0.9,6.2-2.8,11.8-3.3,18.2c-0.5,5.7-0.4,11,0,16.8c0.5,10.6,1.2,22,1.3,32.7c0-5,1.6-7.6,3.2-12.1c1.5-4,1.1-7.7,1.5-11.9
	c0.5-5,2.6-9.8,3.6-14.7c0.9-5.6-0.4-11.1,0.5-16.8c1.5-9.5,9.1-16.8,11.5-26.1c2.5-10.1,0.1-20.5-1.5-30.9
	c-0.8-5.3-2.9-10.3-3.3-15.5c-0.5-5.7-0.5-11.5-0.7-17.2c2.9,6.6,1.7,13.6,3.6,20.5c0.9,3.4,1.7,6.8,3,10.1c1.2,2.9,2.8,5.7,2.1,9.1
	c1.7-2.3,0.9-6.9,1.6-9.7c0.7-3,1.2-6.1,1.2-9.5c0-6.8-4.1-11-4.6-16.8c-0.7-6.6-2.3-11.7-4.2-18c-1.7-5.6-0.8-13.4,0.1-19.3
	c1.5,3.4,2.3,7.2,2.9,11.1c0.7,4.1,0.1,8.7,1.3,12.7c0.9-2,1.5-5,2.5-7.3c1.3-3,3.2-4,5.6-6.5c4.2-4.5,4.9-11.5,8.7-16
	c2.1,4.5-2.8,11.5-4.4,15.8c-2.3,5.8-5,11.7-5.3,18c1.5-3.4,2.9-6.9,4.1-10.3c-0.1,6.4-0.8,12.1-0.7,18.6c0.1,3.3,0.8,6.1,0.7,9.4
	c-0.1,3-1.2,5.8-1.2,8.5c2.4-2.4,5.4-7.4,8.5-8.5c-0.3,0.8-0.7,1.2-1.1,2c-2.9,5-7.8,8.1-9.7,14c-1.6,5.3-0.8,10.5-1.3,16.2
	c-0.9,10.2-4.8,20.5-8.1,30.2c-2,5.8-4.6,8.1-4.6,14.7c0,6-2.4,10.3-3.3,16.2c-0.8,5-3.3,10.3-3.3,15.5c0,5.2,1.7,10.7,2.7,15.9
	c-1.1-8.1,7-13.9,9.5-20.4c2.9-7.6,0.4-17.2,1.2-25.7c0.3-2.3,1.5-4.1,1.9-6.2c0.4-2.1,0-4.4,0.1-6.6c0.4-4.8,1.7-6.2,4.9-9.9
	c4.5-5.3,7.7-13.2,11.4-19.6c1.7,2.7-4.4,10.6-6.4,13.3c-3.4,4.5-4.4,8.2-5.8,13.6c-1.3,5-2.8,9.3-3.3,14.7
	c-0.4,4.5,0.3,11.9,2,15.9c2.9-3.8,4-7.4,5.8-11.3c1.2-2.4,3.3-3.8,4.6-6.1c1.2-2,0.8-3.2,1.5-5.2c2.4-6.9,9.7-13.2,14.2-18.8
	c4.8-6,7.3-14.3,9.5-21.3c0.7-2.3,2-4.1,3.2-6.2c1.5-2.5,1.5-3,2.1-6c0.8-3.3,2.7-7,4.5-9.9c3,5.8-2.9,10.9-4.1,16.4
	c-1.1,5.2-3.7,12.2-6.8,16.6c3.7-4.2,8.6-7.8,12.6-11.9c-0.4,3.4-6.1,9.9-8.5,12.9c-3,3.7-6.6,6.9-9.4,10.7
	c-2.7,3.6-16.2,17.8-12.7,20.8c4.4,4,9-1.9,12.1-4c3.8-2.6,7.7-2.5,11.3-6c1.1-1.1,2.9-2.5,3.7-3.8c1.3-2.1,1.1-3.8,1.7-6.2
	c0.8-2.9,2.4-6.5,4.2-9.4c-1.1,2.1-0.7,4.5-1.2,6.9c-0.9,3.3-2.5,7-2.8,10.5c2.3-0.4,3.7-2.9,5.2-4.8c1.9-2.6,3.7-4.6,5.7-7
	c3-3.7,5.2-9.1,9.1-12.1c-0.5,2.6-1.3,4.2-2.8,6.4c-3.2,4.6-6.1,8.6-8.7,13.5c-2.5,4.6-5.2,7.2-9.9,8.9c-4.9,1.6-9,2.8-13.4,6.2
	c-2.4,1.9-4.5,4-7.4,4.5c-2.7,0.5-4.5-0.4-6.9,1.2c-4.4,2.9-2.7,8.3-5.3,12.2c-3.2,4.6-6.8,7.7-9.3,12.9
	c-4.9,9.9-16.6,18.5-15.4,30.1c4.6-3.7,15.9-9.1,19.2-14.2c1.6-2.5,2.8-5.7,5-7.8c3.4-3.3,6.1-0.3,9.9-2.8
	c5.2-3.3,8.9-11.4,12.6-16.3c3.2-4.4,7.4-11.3,8.9-16.4c-0.3,11.4-8.1,21.2-14.6,30.1c-1.7,2.3-3.3,4.4-5.7,5.7
	c-3,1.7-4.9,0.8-7.8,2.4c-2.8,1.5-8.7,9.9-8.7,13.1c3.7-1.5,5.3-2.8,8.1-6c4.2-4.8,5.6-3,11.3-3.3c9-0.4,14.6-9.5,24.6-6.1
	c-2.7,1.7-6.9,1.2-9.8,2.1c-3.8,1.3-5.8,3.6-8.9,5.7c-3.3,2.3-6.2,2.5-9.9,2.9c-4.1,0.4-4,2.6-6.9,4.5c-1.9,1.2-3.3,0.1-5.2,0.8
	c-1.3,0.5-4.1,3.4-5.4,4.6c-2.9,2.8-26.2,10.6-28.8,13.6c-4.1,4.8-2.6,13.2-2,20c1.6-0.3,24-6.4,25.6-7.2c2.4-1.2,4.9-2.9,7.3-4.2
	c2.3-1.3,3.2-2.7,5.4-3.8c2.5-1.5,5-1.1,7.6-3.4c2.3-2.3,4-4.8,6.5-6.9c7.4-6.2,17.1-8.5,23.3-16.2c6.2-7.7,13.9-15.5,17.8-24.6
	c2-4.5,2.4-9.7,4.6-14c2.5-4.9,6.1-9.5,9.3-13.9c-1.2,2.8-3.2,4.2-4.1,7.2c-0.8,2.5-1.3,5.3-2,8.1c-1.2,5-1.9,9.8-4.4,14.7
	c4-3.7,8.9-6.4,12.7-10.3c-0.9,1.7-1.7,3.8-2.9,5c-2.3,2.4-5.3,4.1-7.9,6.8c-5.3,5.3-9,11.5-14.4,16.6c-6.6,6.2-13.6,12.9-21.5,16.8
	c-4.2,2.1-6.4,4.8-9.1,8.2c-1.6,2-5.8,4.2-6.1,6c2.8,0.3,5.6,0.1,8.5,0.1c-3,1.3-6.1,1.2-9.3,2c-2.8,0.7-7.3,0.9-9.5,2.5
	c-2.7,1.9-3.8,5.2-6.6,6.9c-2.1,1.3-7,5.7-9.1,5.3c-0.1-0.4-0.1-0.8-0.3-1.2c-2.5,0.9-18.8,8.7-19.5,11.4c-1.2,4.5-0.5,9.9-0.5,14.8
	c0,4.9-0.9,10.2-0.5,14.7c0.3,3.2,1.5,3.3,0,6.8c-1.1,2.5,1.9,12.1,10.7,7.3c3.6-2.1,6-4.4,8.3-7.9c3.2-4.8,7.6-8.1,10.7-12.2
	c2.8-3.6,4.1-7.3,7-10.3c3-3.3,6.6-5.3,9.9-8.2c2.8-2.5,4.6-6,7.6-8.6c3.8-3.4,4-6,6.4-10.5c2.1-4,5.4-7.4,7-11.7
	c1.6-4-0.3-7.4,2.3-11c0.9,2,0.1,5.6,2.9,6.2c0.4,4.5-5.4,8.3-5.8,12.6c2.1-0.1,3.3-2.3,4.8-3.7c1.6-1.7,3.8-2.6,5.3-4.1
	c3-3,5.2-7.3,8.2-10.6c2.8-3,6.2-6.2,8.3-9.8c2.4-3.7,3.7-8.3,6.4-11.9c11.1-15.1,18.7-33.8,25.2-51.4c0.4,3.8-0.5,6.9-1.7,10.6
	c-0.9,2.9-3.8,7.7-3.4,10.6c2.4-1.6,3.3-4.9,4.8-7.2c1.7-2.8,4.1-5.4,5.7-8.2c2.9-5,4-10.7,6.4-15.9c2.3-5,5.7-10.1,7.8-15
	c1.9-4.4,5.7-8.6,10.1-11c-0.5,2.3-3.2,3.8-4.5,6c-1.2,1.9-1.6,4.5-2.3,6.5c-1.7,4.4-3.8,10.1-6.5,14.2c-3.2,5-4.5,8.6-6.8,14
	c-2.1,5-5.3,8.9-8.7,13.2c4.1-4.8,9.4-8.3,14.7-11.8c-4.4,4.9-7.4,10.5-11.7,14.8c-2.5,2.5-5.6,4.8-7.7,7.8
	c-2.1,2.9-1.9,5.6-3.2,8.9c-1.2,2.9-3.8,4.5-6,6.8c-2.4,2.5-3,4.9-4.6,7.6c-1.9,3.2-4.9,6.2-7,9.3c-1.9,2.5-6.1,5.6-6.5,8.6
	c3.4,0.9,6.2-1.7,9.3-2.7c3-0.9,6.6-0.4,9.7-1.9c4.9-2.3,10.7-5.7,15.1-8.7c-1.6,4.8-11,8.3-15.4,10.5c-3.3,1.6-6.6,2.3-10.1,3.7
	c-1.7,0.8-3.4,2.3-5.4,2.5c-2,0.4-3.4-0.3-5.3,0.7c-5.6,2.8-8.6,10.3-13.1,14.6c-2.7,2.5-5.2,5.4-7.8,7.7c-2.1,1.9-5.4,2.5-6.6,5.2
	c4.2-3.4,10.5-5,15.2-7.3c5.4-2.6,10.7-4.2,16.2-7.2c4.9-2.6,9.7-6.2,14.7-8.9c5.7-2.9,9.8-8.2,15.2-10.7
	c-6.4,7.9-14.4,11.8-22.5,17.5c-3.6,2.5-7.4,3.8-11.3,5.6c-4.1,1.9-7.2,3.4-10.9,5.8s-8.2,3.7-11.9,6.2c-3.8,2.5-6,5.8-10.2,7.7
	c-2.5,1.1-4.4,1.7-6.2,3.6c-1.9,1.7-3.2,3.7-5,5.6c-3.3,3.2-8.2,7.2-10.1,11c2.4-1.1,3.4-3.7,6-4.5c3.4-1.1,4.5,1.1,6.9,2.5
	c4.8,3,10.2,1.7,15.2,3.6c5.2,1.9,11,3.3,15.9,0.5c4.8-2.8,6.2-8.7,10.1-11.8c0.9,3.2-1.7,6.6-3.2,9.1c3.3,2.7,11-1.1,14.6-3.4
	c2.7-1.7,8.7-4.5,11.4-7c-3.3,4.2-7.7,7-12.6,9.4c-5.4,2.8-9.1,2-14.7,3.2c-4.8,1.1-8.5,5.7-14,5.3c-2.9-0.1-4.8-1.7-7.4-2.5
	c-2.8-0.9-5.2-0.5-8.1-0.8c-2.9-0.3-4-0.5-6.2-2c-2.1-1.5-3.3-3.4-6.5-2.6c-2.3,0.7-4.5,4.1-6.9,5.2c-0.8,0.4-1.9-0.5-3.2,0.3
	c-0.9,0.5-1.7,2.4-2.4,3.2c-3,4.4-6.2,10.1-10.3,13.5c-2.8,2.3-7.6,4.1-7.6,8l-5.4,5.4c-1.2,0.4-3.2,13.8-2.7,16.8
	c1.1,6.4,0.7,11.4-0.7,17.9c4.2-1.7,7-6.4,9.3-9.9c1.3-2.1,2.1-4.4,3.7-6.4c1.9-2.4,4-4,5.2-6.9c1.1-2.5,1.5-4.8,2.1-7.4
	c0.4-1.6,0.8-2.8,1.7-4.2c0.8-1.2,2.4-2,3-3.2c2.7-5.3-1.2-11.7,4.4-16c0.3,1.7-0.1,2.3-1.7,2.8c-0.5,4.9-0.8,8.6-2.3,13.1
	c-1.3,4-0.3,9.1-1.9,12.9c-1.5,3.4-4.8,5.7-6.9,8.7c-2.4,3.7-4.6,8.1-7,12.1c3.6-2,6.2-3.2,10.5-3.3c2,0,4.9,0.3,6.6-0.8
	c2-1.2,1.5-2.8,3-4.4c2.8-3,6.6-3.4,9.4-6.9c2.3-2.8,4.5-5,7.8-6.5c-2.4,3-5.8,5.6-8.5,8.6c-1.1,1.2-2.8,2.3-3.6,3.7
	c-0.8,1.6-0.3,3.7-1.5,5.4c-2.4,3.3-9.3,2.3-12.6,2.8c-3.7,0.7-7.2,1.7-10.6,3.4c-1.2,4.5-3.3,6.5-7.6,7.9c-3.3,1.2-2.7-0.7-4,2.6
	c-0.7,1.7-0.3,4.2-0.8,6.1c-0.8,2.3-1.9,3.4-1.9,6.1c0,2,1.2,3.4,1.3,5.3c0.3,4.2-3.4,7.4-2.5,12.1c4.5-5,16.3-7.6,22.7-9.8
	c6.2-2.3,11.7-4,16.8-8.1c5.8-4.8,10.3-8.1,12.7-15.6c2.1-6.6,4.9-12.5,12.1-15.9c-2.7,5.3-7.4,9.3-9.8,14.6c-2,4.5-3,11.4-7.3,14.7
	c6.2-2.7,13.1-3.8,19.3-6.6c6-2.5,11.7-4.6,17.8-6.4c6-1.6,13-2.3,19.1-3.7c3.8-0.9,15-2.6,17.9,0.4c-6.9,0.8-14,1.7-20.7,2.3
	c-0.7,2.8-7.4,2.8-9.9,3.2c1.5,0,3,0.4,4.2,1.2c-3.6,1.7-7.3-0.1-10.5,0.1c-2.9,0.3-5.3,2.4-8.1,3.6c-5.7,2.4-11.5,4.6-17.6,6.8
	c-11.3,3.7-21.7,8.1-32.5,13.2c5-2,9.9-4.4,15.2-4.8c6.4-0.5,12.3-0.5,18.8-0.7c13.2-0.3,27.4-5.6,39.5-10.6
	c-0.5,2.8-9.1,6.1-12.1,7.3c-4.6,1.9-9.3,2.3-14,3.4c-4.9,1.2-9.9,2.9-14.7,3.8c-5.3,0.9-9.4-1.9-14.6-1.2
	c-9.4,1.3-18.8,6.4-27,10.7c-4.2,2.4-9.1,4-13.4,5.8c-3.7,1.6-2.4,1.3-3.3,4.8c-0.5,1.9-1.6,3.6-2,5.3c2.6,0.7,7.2-0.4,9.9-0.5
	c3.6-0.3,5.4-1.5,8.7-2.9c3.3-1.3,6.6-0.7,10.1-1.2c2.9-0.4,6.4-1.3,9.4-2c3.2-0.7,5.4-2.3,8.1-4c2.4-1.6,5.7-2.8,8.2-4.5
	c3.8-2.5,7.8-8.5,12.5-8.7c-1.3,2.9-4.6,6.4-6.8,9.1c-4,4.8-7.2,4.2-0.5,8.1c-2.8,0.3-7.7,1.2-9.3-1.6c-1.5,1.3-3.8,2.1-5.6,2.9
	c-2.4,1.2-3.6,2.4-6.5,2.3c-1.1,3.7,7.6,7.3,10.5,7.3c-5.2,0.9-11-6.1-15.9-6.8c-5.3-0.7-11.9,2.4-16.8,4.2c-4.6,1.7-14.3-0.9-17,5
	c-0.8,1.9-0.1,5.8-0.5,8.2c-0.4,2.6-2,6.1-1.2,8.6c8.5-4.1,16.7-1.2,26.1-2c5.3-0.4,20.4-4,20.9-10.7c0.9,1.5,0.8,4.2-0.5,6
	c6.2-3,11-4.1,16-9.1c2-2,4.4-4.1,5.3-6.9c1.1-3.2,0.4-7.3,4.6-8.6c-0.3,0.8-0.9,1.9-1.1,2.8c-1.1,4.9-1.1,11.3-4.4,15.1
	c-2.7,3-8.2,6.2-11.9,7.6c-2.9,0.9-5.8,0.5-8.7,1.5c-2.5,0.9-5,2.3-7.4,3.2c-4.8,1.7-11,1.2-16.2,1.2c-8.5,0-23.2-0.3-26.2,9.5
	c-1.6,5.3-0.5,10.6-0.7,16.2c-0.1,5.2-3.8,11.3-2.7,16c6.9,0.7,20.4-9.3,23.9-14.8c1.3-2.1,1.7-4.4,3.7-6.5c1.9-2,3.8-2.9,5.8-4.5
	c3-2.4,5.8-10.7,9.9-9.4c0,0.5,0.1,1.1,0,1.7c2.1-1.2,4.4-5,6.6-5c-3.4,5.3-9.8,7.8-14.6,12.7c-2.1,2.3-3.8,5.3-5.7,7.7
	c-2.1,2.8-4.4,5.6-6.6,8.2c-4.8,5.7-9.3,8.9-16,11.9c-3.7,1.6-7.4,2.7-8.9,6.1c-1.1,2.6-1.2,8.6-1.1,11.4
	c10.3,0.9,18.9-6.4,26.8-12.2c6.9-5.2,14.2-10.9,20.7-16.8c1.9-1.6,3.6-2.9,5.4-4.6c0.5-0.5,1.6-1.3,2-2c0.5-0.9,0.4-2.5,0.8-3.2
	c2.3-3.4,7.8-7.6,11.4-10.1c2.4-1.6,4.4-1.9,5.6-4.6c0.9-2.1,0.9-4.6,1.9-6.8c0.8-1.9,2.1-3.3,2.9-5.2c0.8-1.9,0.8-4.5,1.9-6
	c0.4,2.9,1.2,6.1,0,9.1c2.8-1.6,6-7,6.6-9.9c1.1-4.2-0.5-9.9,4.6-12.1c-3.3,4.4-1.2,12.5-5,16c5.6-1.6,9.9-6.6,15.4-8.6
	c6.9-2.6,15.5-0.5,22.7-2.8c5.7-1.9,10.2-7.3,6.2-12.9c-2.9-4.1-13.9-4.8-12.1-11.8c2.1,1.5,2.5,3,5,4.1c2.1,0.9,4.6,0.9,6.9,2.4
	c4.4,2.7,5.6,4.9,4.6,10.1c0.3-2.1,6.4-7.6,8.2-9c2.3-1.7,4.8-1.2,6-4.1c0.8-2.1,0.8-5.7,1.3-8.1c0.5-2.5,0.9-5,1.9-7.6
	c1.2-3.6,0.7-5,0.8-8.6c0.3-5,4.2-9.7,9.4-10.6c-3.3,2.3-4.8,5.8-6.1,9.8c-1.3,3.8-3.4,8-3.8,12.2c-0.4,4.2,0.3,8.6-0.7,12.7
	c-0.8,3.6-1.2,2.3-4.2,4.5c-1.6,1.2-2.8,1.6-2.7,4.1c-8.7,1.9-8.7,14.4-18.7,16.3c-5.3,0.9-10.3-0.5-15.5,1.3
	c-4.2,1.5-9.3,3.3-13.4,5.6c-4.5,2.5-8.9,6-13.4,8.3c-3,1.7-3.4,1.2-4.6,4.2c-0.7,1.7-0.5,4.2-1.5,5.8c-4.5,7.4-15,7.3-17.9,16
	c3.8-1.2,7-4.4,10.9-5.7c4.1-1.3,7.3-3.8,11.3-5.4c4.5-1.7,9-2.1,13.4-3.4c3.6-1.1,7.3-3.8,10.7-5.6c15.4-7.7,30.3-14.4,44.1-24.6
	c1.3,4.8-4.6,5.2-3.8,8.6c4.1,1.1,8.6-2.1,12.1-4.1c2.1-1.2,3.3-3,6-3.8c2-0.7,4.2-0.5,6.1-1.5c1.9-1.1,2.4-2.9,4-3.8
	c2-1.1,4.6-0.8,6.8-1.3c4.1-1.1,8.2-4.2,12.6-3.4c-1.3-0.1-1.9,0.4-3,0.8c-0.5,3.6-7.4,3-10.1,4.1c-3.7,1.3-2.3,3.6-5,5.7
	c-1.7,1.3-6.9,2.1-9.3,3.3c-3,1.5-6.5,4.2-9.9,4.2c0.4,3.3,2.8,2.5,4.6,4c1.6,1.2,2.5,3,4.5,4.1c-2-0.7-4-0.8-5.8-1.3
	c-1.3-0.4-2.7-1.9-3.8-2.3c-2.9-0.9-7.7-1.9-10.3-1.3c-4.8,0.9-22.4,4.6-24.1,9.4c-2,0.7-3.8,1.6-5.8,2.3c-0.5,3.3-5.4,5.4-8.2,6.8
	c-2,0.9-11.5,2.7-7.4,5.3c1.6,1.1,5.6-0.7,7.4,0c2,0.5,4.2,1.7,6.1,2.5c4.4,2,7.4,2.8,12.5,2.9c-2.4,0-6.4,1.3-8.6,0.7
	c-1.5-0.4-1.3-2-2.6-2.8c-1.6-0.8-3.2-0.4-4.9-0.7c-3.2-0.4-6.1-0.4-9.3-0.7c-2.6-0.3-5-2.5-7.2-2.5c-2.1,0-7.9,2.4-10.2,3.2
	c-2.6,0.8-5.4,2-8.1,2.9c-4.6,1.6-8.7,5.2-13.5,5.8c2,0,2.9,1.6,4.8,2c2.3,0.4,4.5-0.3,6.8-0.5c3.2-0.3,9.8-0.9,12.1,1.2
	c-6.1,0.8-12.1,0.4-18,1.5c-2,0.4-2.5,1.3-4.6,1.2c-1.6,0-2.9-1.6-4.8-1.2c-2.5,0.5-3.7,3-6.6,3.6c2.1,4.5,12.3,3.4,16.6,4
	c4.6,0.5,14-2.1,18.2,0.4c-7.7,3.6-16.8,0.8-24.8,1.7c1.9,1.6,4.8,2.5,6.8,4.4c1.2,1.1,1.7,2.9,3,3.7c1.5,0.9,3.2,0.3,4.6,1.1
	c-3.2-0.8-5.8-0.1-8.3-2.8c-3.4-3.3-2.7-4.2-7.6-5.3c-3-0.7-6.8-3-10.1-2.5c-3.3,0.5-5.6,4.1-9.1,4.8c3.4-0.8,4,2,6.5,3.2
	c2,0.9,5.2,1.2,7.4,1.5c4.6,0.8,8.6,2,13.4,2.6c5.3,0.8,10.5,1.9,15.8,2.7c6.5,1.1,8.1,4,12.3,8.6c-4.2,1.1-5.4-4-8.6-5.3
	c-2.4-0.9-9.4-0.5-12.5-0.7c1.1,2.6,2.8,4.5,4.4,6.6c-3.7,1.1-3.2-2.5-4.8-4.4c-1.7-2-3.6-1.3-5.7-2.3c-2.8-1.2-3.8-2-6.9-2.5
	c-2.5-0.5-4.9-0.8-7.2-1.5c-5-1.6-9.8-1.5-15.6-1.9c-3.7-0.3-2.8-0.3-5.8,1.6c-2.3,1.3-3.4,2.5-6.1,2.6c0.9,1.1,2.3,2.4,2.8,3.7
	c3.2-0.4,4.4,2,7.2,2.9c2,0.7,5,0.7,7,1.1c3,0.5,5,1.1,7.9,0.8c1.6-0.1,3-0.8,4.5-1.1c-1.3,0.5-2.4,1.9-3.8,2.5
	c-2.8,1.2-3.8-0.3-6.2-0.5c-4.8-0.8-8-1.7-12.6-3.3c-2.1-0.7-4-0.3-6.1-0.8c-2.3-0.5-3.3-2.5-5.3-2.3c-2,0.3-4.1,2.9-6.1,3.6
	c-0.3,0.1-2-0.3-2.6,0c-1.1,0.3-2.4,1.1-3.3,1.5c-3,1.5-5.7,3.7-8.7,5.2c-2.3,1.1-2.9,0.4-4.1,2.6c-0.4,0.9-1.2,4.4-1.3,5.3
	c-0.5,3.4-1.5,9.3,0.8,11.9c2.4,2.8,7.3,2.3,10.3,2.8c-2.4,0.4-4.2,2.7-6.5,2.9c-4,0.5-1.7-2.9-4.2-3.4c-3.6-0.8-0.9,12.3-1.2,14.7
	c-0.5,5.8-0.4,11,0.5,16.8c1.6,9.8,2.1,20.1,4.6,29.7c1.3,4.8,1.6,10.7,2.8,15.9c1.2,5,1.3,10.5,2.1,15.4c0.9,5.2,0.9,10.6,1.3,16.2
	c0.3,3-0.9,13.4,0.8,15.4c5.3-3.7,6.6-9.8,10.6-13.8c4.2-4.4,7.6-9.4,11.9-13.8c4.5-4.5,9.1-10.3,11.8-16.4c1.2-2.7,1.3-5.6,2.6-8.2
	c1.7-3.4,4.4-5.8,6.8-8.7c1.2-1.5,4-4.2,4.5-6c0.9-2.7,0.1-5.2,1.5-8c2.1-4.2,6.1-6.6,8.7-10.7c2.7-4,5.2-6.9,8.6-10.7
	c2.3-2.5,1.2-4.1,2.5-7c1.2-2.7,2.7-2.9,2.9-5.8c0.4-5-1.3-10.7,0.1-15.9c1.1-3.7,5.6-8.2,8.1-11.4c3.2-3.8,8.3-6.5,12.5-9
	c2.1-1.3,6-3.4,8.6-5.8c-4.1,4.6-10.6,8.6-15.2,12.5c-7.6,6.5-9.4,11.9-8.6,21.6c0.4,4.5-0.7,8.5-1.3,12.7c-0.7,3.6-1.6,7.6-4,10.2
	c-1.3,1.6-3.2,2-4.6,3.3c-1.7,1.6-2.4,3.2-3.6,5.2c-2,3.3-4.2,6.9-6.6,9.8c2.7-2.5,7.7-3.4,11-5.6c2.9-2,5.4-4.4,8.3-6.4
	c7.4-5,12.7-12.7,19.7-18.4c4.1-3.3,8.1-6.6,12.1-10.1c4.9-4.1,12.1-6.2,16.2-11.4c2.8-3.4,4.9-6.1,8.7-8.7c1.6-1.2,4.8-2.1,6-4
	c1.2-2,0.4-5,0.7-7.6c0.4-5,2.7-9.4,4-14c1.1-3.8,1.1-13.5,4.6-15.4c-0.1,3.2,1.2,6.2,1.5,9.4c0.4,4.2-0.7,4.4-2.8,7.3
	c-3,4.4-3.2,10.5-3.3,15.9c2.5-3.7,3.6-8.2,5.8-11.9c1.9-2.9,4.9-4.9,7.4-7.4c1.2-1.2,2.4-2.5,3.7-3.7c2-2,2.3-3,3.7-5
	c2.3-3,5.8-5.3,7.6-9.3c4-9.5-0.4-18,0.7-27.6c0.8-7.4,8.3-15.6,4.6-23.2c3.2,3.6,2.3,8.5,0.9,12.6c-1.6,4.6-2,9.4-1.3,14.6
	c2.4-1.6,4.4-7.4,5.7-10.2c1.5-2.9,1.5-10.7,4.8-11.9c0.5,3.3,0.8,6.4,0.8,9.8c3.3-2.9,5.6-7.4,7.6-11.1c1.7-3.3,4.9-12.5,8.5-13.4
	c0.5,2.8-2.1,9.9-3,12.7c-1.2,3.6-3.3,8.3-5.4,11.5c-2.1,3.2-5.3,5.3-7.4,8.5c-1.7,2.8-6.5,6.6-6.1,9.9c6.2-1.6,9.1-10.9,13.8-14.2
	c2.9-2.1,5.2-2.4,6.9-5.8c1.5-2.9,2.9-6.6,4.1-9.9c-0.1,4.4-1.2,7.2-2.8,11c3.6-3.6,8.6-5.8,12.3-9.7c2.7-2.6,6-8.7,9.7-9.5
	c-3.8,6-9,9.4-13.6,14.7c-2.9,3.3-5,6.2-8.9,8.7c-1.7,1.2-4.5,2.1-6.1,3.6c-1.5,1.3-1.7,2.6-2.8,4.5c-3,5.6-10.3,8.6-12.6,14.7
	c-2,5.4-2,14.8-6.8,18.5c14.3-6.6,23.3-21.2,36.3-29.9c3.2-2.1,4.6-4.8,7.6-7.3c2.4-2,5.3-2.7,7.4-5.3c4.2-5.6,4.2-17.1,11.8-19.6
	c-1.6,5.3-4.1,11.3-7,16c6-4.1,12.7-6.5,19.2-9.8c3-1.6,4.5-4.6,7.6-6.1c3.2-1.6,8.3-1.7,11.9-1.3c-3.2,2.7-8.9,3.2-12.7,5.7
	c-3.7,2.5-6.9,6.2-10.7,8.7c-4.4,2.9-10.3,3.2-14,7c-3.6,3.8-7.4,6.1-12.6,8.7c-8.9,4.6-13.4,12.7-20.3,19.6
	c-3.8,3.8-7.7,5.2-11.9,7.8c-4,2.5-4.4,7.8-8.2,10.5c-2.3,1.6-5,1.7-7.3,3c-1.3,0.7-2.1,1.7-3.3,2.5c-0.5,0.4,0.1,1.5-0.8,2
	c-0.7,0.4-1.6-0.3-2.1,0.1c-4.2,2.5-11.1,4-12.6,10.1c-0.4,1.6,0.8,2.9,0.8,3.8c0,1.3-0.3,1.1-0.7,2.4c-0.7,2-1.7,3.4-3.4,4.8
	c-2.5,1.9-5.3,1.6-7.6,3.7c-1.6,1.3-2.5,3.7-4,5.4c-7,7.6-16.2,13.9-24.5,19.9c-4,2.8-7.8,5.6-11,9c-4.1,4.2-8.3,9.1-13,12.9
	c6.9-3.6,14-6.6,21.1-10.1c6.2-3.2,14.7-6.1,20.1-10.7c5.6-4.8,10.2-10.7,16-15.4c6-4.8,9.8-10.2,18.2-9.9
	c-9.7,2.7-17,11.4-22.8,18.7c-3,3.7-7.4,6-11.3,8.9c-4.4,3.3-9,4-13.4,6.2c-4,2-6.2,6.2-9.4,8.6c-4,2.9-10.2,3.7-14.6,6.2
	c-8.5,4.6-17.9,10.5-27,13.4c-5.7,1.9-10.6,4.1-14.6,8.7c-1.3,1.5-4.4,3.7-5.4,5.4c-1.3,2.1-0.5,4.5-0.9,7
	c-0.8,4.5-4.1,9.1-5.7,13.5c-2.4,6.6-5.6,10.7-10.2,16.2c-6.9,8.1-10.1,18.3-16.6,26.4c-2.8,3.4-6,5.4-8.3,9.8
	c-2.4,4.1-4.8,9.3-6,14.2c-1.3,5.3-0.7,10.5-1.2,16.2c-0.5,5.8-3.4,10.7-6.1,16.2c-4.4,8.7-8.6,18.7-10.7,28.1
	c-2.3,10.3-6.6,18.3-6.8,29.5c0,3.3,0.3,11.5,3.2,13.6c1.7,1.3,6.1,0.4,8.2,0.7c2.7,0.3,5.4,0.8,8.1,1.2c6.9,1.1,13.6,1.3,20.8,1.3
	c6.1,0,12.1,1.1,17.9,0.7c8.5-0.5,16.7-4.5,25-5.3c7.6-0.7,15.6,1.2,22.9-1.3c5-1.7,10.5-1.3,16-2.3c3.4-0.5,6.1-1.5,9.4-0.7
	c2.8,0.7,4.4,1.6,7.4,1.5c3.7-0.3,7.7-1.9,11.4-1.9c2.9,0,4.1,1.1,6.8,1.2c2.3,0.1,6.6-0.7,8.7-1.3c2.5-0.9,4.5-3,7.3-2.8
	c0.9-1.9,1.2-7.7,4.8-5.6c4.4-5,10.5-3,8.7-11c3.2,0,5-2.9,7.9-3.4c2.7-0.5,5.3,0.8,8.1,0.7c3.2,0,4.1-0.4,7.4,0.7
	c2.9,1.1,4.8,0.3,7.3,0.7c3.2,0.5,4.2,3.8,7.4,4.8c2.9,0.8,6-0.4,8.7,0.7c3.7,1.3,3.2,2.9,4.9,6.1c1.1,2,4,3.6,4,6
	c4.4,0.1,8.5-2.9,12.7-3.3c10.7-0.9,20.9,0.4,31.4-2.3c6.2-1.5,12.1-2.8,18.8-3.2c3.3-0.1,6.1-1.2,9.5-1.3c3.4-0.1,7.3,0.7,10.7,0
	c3.4-0.5,5-3.2,8.1-4.1c2.9-0.9,6.1,0.9,8.6,1.6c5.3,1.2,13.5,1.3,18.9,1.2c3.2-0.1,6.2-2.3,9.4-2.8c3.2-0.5,4.6,0.8,7.3,1.6
	c5.3,1.3,10.9-1.7,16.3-3c3.7-0.9,13.6,0.4,15.6-3c3.8,2.5,8.6-4.5,13.1-4.8c0.3,5.3,6.4,3,9.4,3.2c0.1-0.4,0.1-0.8,0.3-1.1
	c1.6-0.4,3.2,0,4.6,0.5l2-232.3C1586.3,665.9,1581.1,670.5,1576.6,670.6z M808,629.3c0.4,0.4,0.8,0.9,1.1,1.5
	C808.8,630.2,808.4,629.7,808,629.3z M820.8,610.1c6,2.5,12.2,5.6,16.6,10.3c5,5.4,9.4,12.6,13.5,18.7c4.1,5.8,7,10.7,7.3,17.9
	c-3.3-6.5-7.7-12.9-11.5-18.5c-5-7.6-10.9-13.1-19.3-16.7c-7.6-3-17.5-2.7-24-8.3c4.6,3.8,12.6,3.2,18.3,2.7c-1.1-2.3-4-2.5-6-3.7
	c-2.5-1.6-4-3.2-5.8-5.6c-2.8-3.3-5.4-6.4-8.5-9.5C807.7,602.5,813.3,606.9,820.8,610.1z M970.6,540.9c0,0,0.1,0,0.3,0.1
	c-5.2-1.6-10.5-3-15.5-5c1.7,0.4,3.7,0.5,5.2,1.1C963.8,538.3,967.1,539.6,970.6,540.9z"/>
</svg>
